<svg width="30" height="21" viewBox="0 0 30 21" fill="none" xmlns="http://www.w3.org/2000/svg">
<path d="M29.0675 3.46375C30.0262 5.57007 29.2654 8.15863 27.3834 10.6226C25.6447 12.899 22.9151 15.1184 19.5438 16.8534C22.247 16.9406 24.5956 17.1007 26.3253 17.3091C27.2924 17.4257 28.0749 17.5583 28.6198 17.7046C28.8904 17.7773 29.1167 17.857 29.2803 17.9469C29.3618 17.9917 29.4402 18.0455 29.5007 18.1124C29.5548 18.1721 29.6037 18.2529 29.6151 18.3521L29.6176 18.396L29.6142 18.4478C29.5983 18.565 29.5303 18.6552 29.4635 18.7171C29.3867 18.7883 29.2862 18.8466 29.1781 18.8963C28.9602 18.9964 28.654 19.0868 28.28 19.17C27.5282 19.3372 26.4499 19.486 25.1288 19.6102C22.4838 19.859 18.8353 20.0124 14.8091 20.0124C12.6765 20.0124 10.6506 19.9686 8.82384 19.8912C7.67068 19.9391 6.58588 19.8767 5.59871 19.7037C3.95871 19.578 2.60659 19.4196 1.66014 19.2367C1.18762 19.1453 0.804038 19.0456 0.533744 18.9365C0.399846 18.8824 0.278869 18.8202 0.187407 18.7456C0.0992875 18.6737 0.000296088 18.5578 0.00022998 18.3961C0.000230127 18.2275 0.107459 18.1085 0.199742 18.0362C0.296566 17.9605 0.424953 17.897 0.568584 17.8413C0.767355 17.7644 1.02387 17.6925 1.32929 17.6243C1.01014 17.2714 0.747501 16.8779 0.549783 16.4434L0.548385 16.4403L0.506773 16.3454L0.505774 16.3432C-0.407713 14.1996 0.423043 11.5751 2.38462 9.09094C4.3546 6.59616 7.5064 4.18292 11.38 2.41989C15.284 0.643046 19.2043 -0.146873 22.393 0.0223828C25.5682 0.190937 28.0913 1.31939 29.0675 3.46375ZM2.51218 18.5978C2.34659 18.4952 2.18855 18.386 2.03773 18.271C1.95743 18.2852 1.88001 18.2992 1.8056 18.3136L1.50546 18.3756C1.47625 18.3821 1.44787 18.3889 1.42018 18.3953C1.44795 18.4018 1.47618 18.4098 1.50548 18.4163C1.78816 18.4792 2.12525 18.5393 2.51218 18.5978ZM14.809 17.5516C10.799 17.5516 7.1756 17.7047 4.56143 17.9506C4.06531 17.9973 3.60719 18.0473 3.19106 18.0998C3.88647 18.481 4.72713 18.764 5.69339 18.9367C6.64359 19.009 7.69436 19.0702 8.82318 19.1184C11.0218 19.0232 13.5065 18.5087 16.053 17.5563C15.643 17.553 15.2282 17.5516 14.809 17.5516ZM4.26478 19.0918C4.18532 19.066 4.10704 19.0389 4.02959 19.0114L4.01721 19.0668C4.09859 19.0753 4.18113 19.0835 4.26478 19.0918ZM10.9337 19.4086C10.8107 19.4268 10.6882 19.4429 10.5663 19.4588C10.6892 19.4623 10.8128 19.4663 10.9371 19.4695L10.9337 19.4086ZM28.1124 18.3757C27.4072 18.2189 26.3663 18.0734 25.0564 17.9502C23.1623 17.772 20.7377 17.6425 18.0195 17.5848C16.4152 18.2998 14.8111 18.8478 13.2589 19.2315C13.7681 19.2366 14.2855 19.2403 14.8092 19.2403C18.819 19.2402 22.4423 19.0873 25.0564 18.8414C26.3664 18.7182 27.4077 18.573 28.1128 18.4163C28.142 18.4098 28.1701 18.4021 28.1977 18.3956C28.17 18.3892 28.1416 18.3822 28.1124 18.3757ZM17.3481 17.2941L17.3563 17.3353C17.3872 17.3222 17.4181 17.3091 17.449 17.2958C17.4154 17.2952 17.3818 17.2946 17.3481 17.2941ZM18.4874 17.0641C18.4613 17.0765 18.4351 17.0887 18.4089 17.1009C18.4378 17.1016 18.4667 17.1021 18.4955 17.1028L18.4874 17.0641ZM11.6999 3.12267C7.88536 4.85881 4.82244 7.22624 2.94681 9.6257C1.05322 12.0477 0.455941 14.3735 1.25256 16.1235C1.48068 16.625 1.8193 17.068 2.2564 17.4518C4.81734 17.0481 9.48619 16.7794 14.8092 16.7794C15.8562 16.7794 16.8779 16.7897 17.8626 16.8094L17.9181 16.7847L18.2731 16.6199C21.9225 14.9004 24.8538 12.6062 26.6711 10.2817C28.5644 7.85969 29.1611 5.53361 28.3647 3.78361C27.568 2.03368 25.422 0.956039 22.3519 0.793071C19.3107 0.631665 15.5143 1.3866 11.6999 3.12267Z" fill="white"/>
</svg>
