<svg width="194" height="69" viewBox="0 0 194 69" fill="none" xmlns="http://www.w3.org/2000/svg">
<g clip-path="url(#clip0_2_225)">
<path d="M71.4287 33.0563C73.0151 33.0563 73.967 32.2996 74.899 30.4875L78.8452 22.8009C78.8542 22.7795 78.8551 22.7556 78.8478 22.7337C78.8405 22.7117 78.8255 22.6931 78.8056 22.6814C78.7857 22.6814 78.7857 22.6615 78.7659 22.6615H75.8707C75.8553 22.6618 75.8403 22.6655 75.8265 22.6724C75.8128 22.6793 75.8008 22.6892 75.7914 22.7013L73.6893 27.3013C73.6777 27.3213 73.6592 27.3364 73.6373 27.3437C73.6154 27.351 73.5916 27.3501 73.5704 27.3412C73.5601 27.3403 73.5506 27.3358 73.5433 27.3285C73.5361 27.3212 73.5316 27.3116 73.5307 27.3013L71.3097 22.7013C71.3003 22.6892 71.2883 22.6793 71.2745 22.6724C71.2608 22.6655 71.2457 22.6618 71.2304 22.6615H68.2558C68.2353 22.6629 68.2159 22.6717 68.2013 22.6864C68.1867 22.701 68.1779 22.7205 68.1765 22.7412C68.1765 22.7611 68.1765 22.781 68.1963 22.781L72.1228 30.1489C72.1426 30.1888 72.1426 30.2286 72.1029 30.2485C71.9952 30.3696 71.864 30.4674 71.7174 30.5358C71.5708 30.6043 71.4118 30.6421 71.2502 30.6468C70.8725 30.6493 70.5017 30.5458 70.1794 30.3481C70.1693 30.3413 70.1579 30.337 70.1459 30.3353C70.1339 30.3337 70.1216 30.3349 70.1102 30.3387C70.0987 30.3426 70.0882 30.349 70.0796 30.3575C70.071 30.366 70.0644 30.3764 70.0604 30.3879L69.0491 32.2797C69.0401 32.301 69.0392 32.3249 69.0465 32.3469C69.0538 32.3689 69.0688 32.3875 69.0887 32.3992C69.7904 32.8376 70.6023 33.0656 71.4287 33.0563ZM80.9869 32.8173C80.9883 32.838 80.9971 32.8575 81.0117 32.8721C81.0263 32.8868 81.0456 32.8956 81.0662 32.897H83.7433C83.7652 32.8933 83.7858 32.884 83.8032 32.8701C83.8205 32.8561 83.834 32.838 83.8425 32.8173V29.0935C83.8439 29.0729 83.8527 29.0534 83.8672 29.0388C83.8818 29.0241 83.9012 29.0153 83.9218 29.0139H87.3921C87.4127 29.0153 87.4321 29.0241 87.4466 29.0388C87.4612 29.0534 87.47 29.0729 87.4714 29.0935V32.7974C87.4728 32.8181 87.4816 32.8376 87.4962 32.8522C87.5108 32.8669 87.5302 32.8757 87.5507 32.8771H90.2278C90.2484 32.8757 90.2678 32.8669 90.2824 32.8522C90.297 32.8376 90.3058 32.8181 90.3071 32.7974V22.7412C90.3058 22.7205 90.297 22.701 90.2824 22.6864C90.2678 22.6717 90.2484 22.6629 90.2278 22.6615H87.5507C87.5302 22.6629 87.5108 22.6717 87.4962 22.6864C87.4816 22.701 87.4728 22.7205 87.4714 22.7412V26.4052C87.47 26.4259 87.4612 26.4453 87.4466 26.46C87.4321 26.4746 87.4127 26.4835 87.3921 26.4849H83.902C83.8814 26.4835 83.862 26.4746 83.8474 26.46C83.8328 26.4453 83.824 26.4259 83.8226 26.4052V22.7611C83.8212 22.7404 83.8124 22.7209 83.7979 22.7063C83.7833 22.6917 83.7639 22.6828 83.7433 22.6814H81.0662C81.0456 22.6828 81.0263 22.6917 81.0117 22.7063C80.9971 22.7209 80.9883 22.7404 80.9869 22.7611V32.8173ZM93.3214 32.8173C93.3228 32.838 93.3316 32.8575 93.3461 32.8721C93.3607 32.8868 93.3801 32.8956 93.4007 32.897H95.9191C95.949 32.892 95.9766 32.8781 95.9985 32.8572L99.786 27.3611C99.8059 27.3212 99.8654 27.3212 99.905 27.3412C99.9447 27.3611 99.9447 27.381 99.9447 27.4009V32.7974C99.9461 32.8181 99.9549 32.8376 99.9695 32.8522C99.9841 32.8669 100.003 32.8757 100.024 32.8771H102.661C102.682 32.8757 102.701 32.8669 102.716 32.8522C102.731 32.8376 102.739 32.8181 102.741 32.7974V22.7412C102.739 22.7205 102.731 22.701 102.716 22.6864C102.701 22.6717 102.682 22.6629 102.661 22.6615H100.143C100.113 22.6665 100.086 22.6804 100.064 22.7013L96.2761 28.1974C96.2562 28.2373 96.1968 28.2373 96.1571 28.2173C96.1174 28.1974 96.1174 28.1775 96.1174 28.1576V22.7611C96.116 22.7404 96.1072 22.7209 96.0927 22.7063C96.0781 22.6917 96.0587 22.6828 96.0381 22.6814H93.4007C93.3801 22.6828 93.3607 22.6917 93.3461 22.7063C93.3316 22.7209 93.3228 22.7404 93.3214 22.7611V32.8173ZM105.775 32.8173C105.776 32.838 105.785 32.8575 105.8 32.8721C105.814 32.8868 105.834 32.8956 105.854 32.897H111.069C113.528 32.897 114.956 31.8217 114.956 30.0693C114.956 28.7351 114.262 28.0381 113.132 27.6199C113.11 27.605 113.094 27.5829 113.087 27.5574C113.08 27.532 113.082 27.5048 113.092 27.4806C113.093 27.4703 113.098 27.4607 113.105 27.4534C113.112 27.4461 113.122 27.4416 113.132 27.4407C113.925 27.0225 114.5 26.3455 114.5 25.2502C114.511 24.9412 114.459 24.6332 114.346 24.3454C114.234 24.0576 114.063 23.7962 113.846 23.5775C113.251 22.9801 112.339 22.6615 111.05 22.6615H105.854C105.834 22.6629 105.814 22.6717 105.8 22.6864C105.785 22.701 105.776 22.7205 105.775 22.7412V32.8173ZM108.63 30.6269C108.61 30.6255 108.59 30.6166 108.576 30.602C108.561 30.5873 108.552 30.5679 108.551 30.5472V28.8347C108.552 28.814 108.561 28.7945 108.576 28.7799C108.59 28.7652 108.61 28.7564 108.63 28.755H110.713C111.664 28.755 112.101 29.1135 112.101 29.671C112.101 30.3083 111.605 30.6468 110.732 30.6468H108.63V30.6269ZM108.63 26.7637C108.61 26.7623 108.59 26.7534 108.576 26.7388C108.561 26.7241 108.552 26.7047 108.551 26.684V25.0511C108.552 25.0305 108.561 25.011 108.576 24.9963C108.59 24.9817 108.61 24.9729 108.63 24.9715H110.395C111.248 24.9715 111.684 25.2901 111.684 25.8477C111.684 26.4849 111.208 26.7637 110.336 26.7637H108.63ZM117.435 32.8173C117.436 32.838 117.445 32.8575 117.46 32.8721C117.474 32.8868 117.494 32.8956 117.514 32.897H125.684C125.706 32.8933 125.727 32.884 125.744 32.8701C125.762 32.8561 125.775 32.838 125.784 32.8173V30.587C125.781 30.5634 125.769 30.5419 125.75 30.5271C125.732 30.5122 125.708 30.5051 125.684 30.5074H120.35C120.328 30.5037 120.308 30.4944 120.29 30.4804C120.273 30.4665 120.259 30.4484 120.251 30.4277V28.9741C120.254 28.9504 120.266 28.9289 120.284 28.9141C120.303 28.8992 120.326 28.8921 120.35 28.8944H125.109C125.131 28.8907 125.152 28.8814 125.169 28.8675C125.187 28.8535 125.2 28.8354 125.209 28.8148V26.7637C125.206 26.7401 125.194 26.7185 125.175 26.7037C125.156 26.6888 125.133 26.6818 125.109 26.684H120.35C120.328 26.6803 120.308 26.671 120.29 26.6571C120.273 26.6431 120.259 26.625 120.251 26.6044V25.2303C120.252 25.2097 120.261 25.1902 120.276 25.1756C120.29 25.1609 120.31 25.1521 120.33 25.1507H125.605C125.627 25.1469 125.648 25.1377 125.665 25.1237C125.682 25.1098 125.696 25.0917 125.704 25.071V22.8407C125.703 22.8201 125.694 22.8006 125.679 22.786C125.665 22.7713 125.646 22.7625 125.625 22.7611H117.534C117.514 22.7625 117.494 22.7713 117.48 22.786C117.465 22.8006 117.456 22.8201 117.455 22.8407V32.8173H117.435ZM128.381 32.8173C128.383 32.838 128.392 32.8575 128.406 32.8721C128.421 32.8868 128.44 32.8956 128.461 32.897H131.138C131.158 32.8956 131.178 32.8868 131.192 32.8721C131.207 32.8575 131.216 32.838 131.217 32.8173V30.0693C131.218 30.0486 131.227 30.0292 131.242 30.0145C131.256 29.9999 131.276 29.991 131.296 29.9896H132.625C135.183 29.9896 137.047 28.7152 137.047 26.3057C137.047 24.0156 135.381 22.6814 132.784 22.6814H128.461C128.44 22.6828 128.421 22.6917 128.406 22.7063C128.392 22.7209 128.383 22.7404 128.381 22.7611V32.8173ZM131.316 27.7593C131.296 27.7579 131.276 27.7491 131.262 27.7345C131.247 27.7198 131.238 27.7004 131.237 27.6797V25.1507C131.238 25.13 131.247 25.1106 131.262 25.0959C131.276 25.0813 131.296 25.0724 131.316 25.071H132.566C133.597 25.071 134.211 25.5489 134.211 26.4251C134.211 27.2615 133.597 27.7793 132.585 27.7793H131.316V27.7593ZM144.384 33.1161C146.625 33.1161 147.914 32.1801 148.886 30.8857C148.906 30.8459 148.906 30.7862 148.866 30.7663L146.863 29.3524C146.824 29.3325 146.764 29.3325 146.744 29.3723C146.149 30.0892 145.515 30.5472 144.484 30.5472C143.036 30.5472 142.025 29.3524 142.025 27.8191C142.025 26.2857 143.036 25.0909 144.484 25.0909C145.435 25.0909 146.11 25.5091 146.685 26.2061C146.699 26.223 146.719 26.2343 146.741 26.238C146.762 26.2416 146.785 26.2374 146.804 26.226L148.747 24.7126C148.787 24.6927 148.787 24.6329 148.767 24.5931C147.855 23.3784 146.566 22.5022 144.503 22.5022C141.39 22.5022 139.09 24.8321 139.09 27.8191C139.07 30.8857 141.43 33.1161 144.384 33.1161ZM151.325 32.8173C151.326 32.838 151.335 32.8575 151.35 32.8721C151.364 32.8868 151.384 32.8956 151.404 32.897H153.923C153.953 32.892 153.98 32.8781 154.002 32.8572L157.79 27.3611C157.81 27.3212 157.869 27.3212 157.909 27.3412C157.948 27.3611 157.948 27.381 157.948 27.4009V32.7974C157.95 32.8181 157.959 32.8376 157.973 32.8522C157.988 32.8669 158.007 32.8757 158.028 32.8771H160.665C160.686 32.8757 160.705 32.8669 160.72 32.8522C160.734 32.8376 160.743 32.8181 160.744 32.7974V22.7412C160.743 22.7205 160.734 22.701 160.72 22.6864C160.705 22.6717 160.686 22.6629 160.665 22.6615H158.147C158.117 22.6665 158.089 22.6804 158.067 22.7013L154.28 28.1974C154.26 28.2373 154.2 28.2373 154.161 28.2173C154.121 28.1974 154.121 28.1775 154.121 28.1576V22.7611C154.12 22.7404 154.111 22.7209 154.096 22.7063C154.082 22.6917 154.062 22.6828 154.042 22.6814H151.404C151.384 22.6828 151.364 22.6917 151.35 22.7063C151.335 22.7209 151.326 22.7404 151.325 22.7611V32.8173ZM166.257 32.8173C166.259 32.838 166.267 32.8575 166.282 32.8721C166.297 32.8868 166.316 32.8956 166.337 32.897H169.014C169.034 32.8956 169.054 32.8868 169.068 32.8721C169.083 32.8575 169.092 32.838 169.093 32.8173V25.2502C169.096 25.2266 169.108 25.2051 169.127 25.1903C169.145 25.1754 169.169 25.1683 169.192 25.1706H172.107C172.129 25.1669 172.15 25.1576 172.167 25.1437C172.184 25.1297 172.198 25.1116 172.206 25.0909V22.781C172.205 22.7603 172.196 22.7409 172.182 22.7262C172.167 22.7116 172.148 22.7027 172.127 22.7013H163.303C163.282 22.7027 163.263 22.7116 163.248 22.7262C163.233 22.7409 163.225 22.7603 163.223 22.781V25.0909C163.225 25.1116 163.233 25.1311 163.248 25.1457C163.263 25.1604 163.282 25.1692 163.303 25.1706H166.178C166.199 25.172 166.218 25.1808 166.232 25.1955C166.247 25.2101 166.256 25.2296 166.257 25.2502V32.8173ZM174.606 32.8173C174.607 32.838 174.616 32.8575 174.631 32.8721C174.645 32.8868 174.665 32.8956 174.685 32.897H182.855C182.876 32.8956 182.895 32.8868 182.91 32.8721C182.924 32.8575 182.933 32.838 182.935 32.8173V30.587C182.933 30.5664 182.924 30.5469 182.91 30.5323C182.895 30.5176 182.876 30.5088 182.855 30.5074H177.501C177.48 30.506 177.461 30.4972 177.447 30.4825C177.432 30.4679 177.423 30.4484 177.422 30.4277V28.9741C177.423 28.9534 177.432 28.9339 177.447 28.9193C177.461 28.9046 177.48 28.8958 177.501 28.8944H182.26C182.281 28.893 182.3 28.8842 182.315 28.8695C182.329 28.8549 182.338 28.8354 182.34 28.8148V26.7637C182.338 26.743 182.329 26.7235 182.315 26.7089C182.3 26.6943 182.281 26.6854 182.26 26.684H177.501C177.48 26.6826 177.461 26.6738 177.447 26.6591C177.432 26.6445 177.423 26.625 177.422 26.6044V25.2303C177.423 25.2097 177.432 25.1902 177.447 25.1756C177.461 25.1609 177.48 25.1521 177.501 25.1507H182.776C182.797 25.1493 182.816 25.1404 182.83 25.1258C182.845 25.1112 182.854 25.0917 182.855 25.071V22.8407C182.854 22.8201 182.845 22.8006 182.83 22.786C182.816 22.7713 182.797 22.7625 182.776 22.7611H174.705C174.684 22.7625 174.665 22.7713 174.65 22.786C174.636 22.8006 174.627 22.8201 174.626 22.8407L174.606 32.8173ZM188.071 32.8173C188.072 32.838 188.081 32.8575 188.095 32.8721C188.11 32.8868 188.129 32.8956 188.15 32.897H190.827C190.848 32.8956 190.867 32.8868 190.882 32.8721C190.896 32.8575 190.905 32.838 190.906 32.8173V25.2502C190.909 25.2266 190.921 25.2051 190.94 25.1903C190.958 25.1754 190.982 25.1683 191.006 25.1706H193.921C193.941 25.1692 193.961 25.1604 193.975 25.1457C193.99 25.1311 193.998 25.1116 194 25.0909V22.781C193.998 22.7603 193.99 22.7409 193.975 22.7262C193.961 22.7116 193.941 22.7027 193.921 22.7013H185.076C185.056 22.7027 185.036 22.7116 185.022 22.7262C185.007 22.7409 184.998 22.7603 184.997 22.781V25.0909C184.998 25.1116 185.007 25.1311 185.022 25.1457C185.036 25.1604 185.056 25.1692 185.076 25.1706H187.991C188.012 25.172 188.031 25.1808 188.046 25.1955C188.06 25.2101 188.069 25.2296 188.071 25.2502V32.8173ZM69.0094 47.4338C69.0108 47.4545 69.0196 47.4739 69.0342 47.4886C69.0488 47.5032 69.0681 47.5121 69.0887 47.5135H71.7856C71.8062 47.5121 71.8256 47.5032 71.8402 47.4886C71.8548 47.4739 71.8636 47.4545 71.865 47.4338V44.9048C71.8637 44.894 71.8648 44.883 71.8682 44.8727C71.8716 44.8624 71.8773 44.8529 71.8848 44.8451L72.8366 43.7896C72.8763 43.7498 72.9358 43.7498 72.9556 43.7896L72.9755 43.8096L75.4741 47.4736C75.4835 47.4858 75.4955 47.4956 75.5093 47.5025C75.523 47.5094 75.5381 47.5132 75.5534 47.5135H78.7659C78.7865 47.5121 78.8059 47.5032 78.8204 47.4886C78.835 47.4739 78.8438 47.4545 78.8452 47.4338C78.8465 47.423 78.8454 47.412 78.842 47.4017C78.8386 47.3914 78.8329 47.3819 78.8254 47.3741L74.9387 41.7386C74.9288 41.7238 74.9236 41.7065 74.9236 41.6888C74.9236 41.6711 74.9288 41.6537 74.9387 41.639L78.6469 37.4373C78.6616 37.4208 78.6696 37.3996 78.6696 37.3775C78.6696 37.3555 78.6616 37.3342 78.6469 37.3178C78.6391 37.3103 78.6297 37.3046 78.6194 37.3011C78.6091 37.2977 78.5982 37.2966 78.5874 37.2979H75.4542C75.4344 37.2979 75.3948 37.3178 75.3948 37.3377L72.0434 41.2806C72.0292 41.2975 72.0094 41.3088 71.9876 41.3124C71.9658 41.3161 71.9434 41.3118 71.9244 41.3005C71.9046 41.2806 71.8848 41.2606 71.8848 41.2407V37.4173C71.8834 37.3967 71.8746 37.3772 71.86 37.3626C71.8454 37.3479 71.826 37.3391 71.8055 37.3377H69.1284C69.1078 37.3391 69.0884 37.3479 69.0738 37.3626C69.0592 37.3772 69.0504 37.3967 69.0491 37.4173L69.0094 47.4338ZM86.0635 47.7325C89.2363 47.7325 91.616 45.3429 91.616 42.4156C91.616 39.4485 89.276 37.0987 86.1031 37.0987C82.9303 37.0987 80.5506 39.4883 80.5506 42.4156C80.5506 45.3429 82.9104 47.7325 86.0635 47.7325ZM86.0833 45.1836C84.5167 45.1836 83.4657 43.8892 83.4657 42.4156C83.4657 40.9022 84.4969 39.6477 86.0635 39.6477C87.6301 39.6477 88.7009 40.942 88.7009 42.4156C88.7009 43.8892 87.6697 45.1836 86.0833 45.1836ZM99.211 47.7325C101.452 47.7325 102.741 46.7767 103.712 45.5022C103.732 45.4624 103.732 45.4026 103.693 45.3827L101.69 43.9689C101.65 43.949 101.591 43.9489 101.571 43.9888C100.976 44.7057 100.341 45.1637 99.3101 45.1637C97.8823 45.1637 96.8512 43.9689 96.8512 42.4355C96.8512 40.9022 97.8625 39.7074 99.3101 39.7074C100.262 39.7074 100.936 40.1256 101.511 40.8225C101.526 40.8395 101.545 40.8508 101.567 40.8544C101.589 40.8581 101.611 40.8538 101.63 40.8425L103.574 39.329C103.613 39.3091 103.613 39.2494 103.593 39.2096C102.681 37.9948 101.392 37.1186 99.3299 37.1186C96.2166 37.1186 93.9163 39.4485 93.9163 42.4355C93.9163 45.5022 96.2761 47.7325 99.211 47.7325ZM106.152 47.4338C106.153 47.4545 106.162 47.4739 106.176 47.4886C106.191 47.5032 106.21 47.5121 106.231 47.5135H110.693C113.211 47.5135 114.817 46.1793 114.817 43.9689C114.817 41.6589 113.013 40.484 110.554 40.484H109.086C109.066 40.4826 109.047 40.4738 109.032 40.4591C109.017 40.4445 109.009 40.425 109.007 40.4044V37.3576C109.006 37.3369 108.997 37.3175 108.982 37.3028C108.968 37.2882 108.948 37.2794 108.928 37.278H106.271C106.25 37.2794 106.231 37.2882 106.216 37.3028C106.201 37.3175 106.193 37.3369 106.191 37.3576L106.152 47.4338ZM109.086 45.1438C109.066 45.1424 109.047 45.1335 109.032 45.1189C109.017 45.1042 109.009 45.0848 109.007 45.0641V42.8139C109.009 42.7932 109.017 42.7738 109.032 42.7591C109.047 42.7445 109.066 42.7356 109.086 42.7342H110.494C111.426 42.7342 111.982 43.2122 111.982 43.9091C111.982 44.7057 111.426 45.1438 110.494 45.1438H109.086ZM116.027 47.4338C116.028 47.4545 116.037 47.4739 116.052 47.4886C116.066 47.5032 116.086 47.5121 116.106 47.5135H118.783C118.804 47.5121 118.823 47.5032 118.838 47.4886C118.853 47.4739 118.861 47.4545 118.863 47.4338V37.3775C118.861 37.3569 118.853 37.3374 118.838 37.3228C118.823 37.3081 118.804 37.2993 118.783 37.2979H116.126C116.106 37.2993 116.086 37.3081 116.072 37.3228C116.057 37.3374 116.048 37.3569 116.047 37.3775L116.027 47.4338ZM121.857 47.4338C121.86 47.4574 121.872 47.4789 121.891 47.4938C121.909 47.5087 121.933 47.5157 121.956 47.5135H124.633C124.654 47.5121 124.673 47.5032 124.688 47.4886C124.703 47.4739 124.711 47.4545 124.713 47.4338V39.8667C124.716 39.8431 124.728 39.8216 124.746 39.8067C124.765 39.7918 124.788 39.7848 124.812 39.787H129.214C129.235 39.7856 129.254 39.7768 129.269 39.7622C129.283 39.7475 129.292 39.7281 129.294 39.7074V37.3974C129.292 37.3768 129.283 37.3573 129.269 37.3427C129.254 37.328 129.235 37.3192 129.214 37.3178H121.996C121.974 37.3215 121.954 37.3308 121.936 37.3447C121.919 37.3587 121.905 37.3768 121.897 37.3974L121.857 47.4338ZM131.634 47.4338C131.637 47.4574 131.649 47.4789 131.667 47.4938C131.686 47.5087 131.709 47.5157 131.733 47.5135H134.251C134.281 47.5085 134.309 47.4946 134.33 47.4736L138.118 41.9775C138.138 41.9377 138.197 41.9377 138.237 41.9576C138.249 41.9671 138.259 41.9792 138.266 41.9929C138.273 42.0067 138.276 42.0219 138.277 42.0373V47.4338C138.28 47.4574 138.292 47.4789 138.31 47.4938C138.329 47.5087 138.352 47.5157 138.376 47.5135H140.993C141.015 47.5097 141.036 47.5004 141.053 47.4865C141.071 47.4726 141.084 47.4544 141.093 47.4338V37.3775C141.09 37.3539 141.078 37.3324 141.059 37.3175C141.041 37.3027 141.017 37.2956 140.993 37.2979H138.495C138.465 37.3029 138.437 37.3167 138.416 37.3377L134.628 42.8139C134.608 42.8537 134.549 42.8537 134.509 42.8338C134.497 42.8243 134.487 42.8123 134.48 42.7985C134.473 42.7847 134.47 42.7695 134.469 42.7541V37.3775C134.466 37.3539 134.454 37.3324 134.436 37.3175C134.417 37.3027 134.394 37.2956 134.37 37.2979H131.733C131.711 37.3016 131.69 37.3109 131.673 37.3248C131.655 37.3387 131.642 37.3569 131.634 37.3775V47.4338ZM144.067 47.4338C144.07 47.4574 144.082 47.4789 144.101 47.4938C144.119 47.5087 144.143 47.5157 144.166 47.5135H146.843C146.864 47.5121 146.883 47.5032 146.898 47.4886C146.913 47.4739 146.921 47.4545 146.923 47.4338V43.7299C146.926 43.7063 146.938 43.6848 146.956 43.6699C146.975 43.655 146.998 43.648 147.022 43.6502H150.512C150.534 43.654 150.554 43.6633 150.572 43.6772C150.589 43.6911 150.603 43.7093 150.611 43.7299V47.4338C150.613 47.4545 150.621 47.4739 150.636 47.4886C150.651 47.5032 150.67 47.5121 150.69 47.5135H153.368C153.389 47.5097 153.41 47.5004 153.427 47.4865C153.445 47.4726 153.458 47.4544 153.467 47.4338V37.3775C153.464 37.3539 153.452 37.3324 153.433 37.3175C153.415 37.3027 153.391 37.2956 153.368 37.2979H150.69C150.67 37.2993 150.651 37.3081 150.636 37.3228C150.621 37.3374 150.613 37.3569 150.611 37.3775V41.0416C150.608 41.0652 150.596 41.0867 150.578 41.1016C150.559 41.1165 150.536 41.1235 150.512 41.1212H147.042C147.02 41.1175 146.999 41.1082 146.982 41.0943C146.965 41.0804 146.951 41.0622 146.943 41.0416V37.3775C146.941 37.3569 146.932 37.3374 146.918 37.3228C146.903 37.3081 146.884 37.2993 146.863 37.2979H144.166C144.144 37.3016 144.124 37.3109 144.106 37.3248C144.089 37.3387 144.076 37.3569 144.067 37.3775V47.4338ZM155.628 47.4139C155.619 47.4352 155.618 47.4591 155.626 47.4811C155.633 47.5031 155.648 47.5217 155.668 47.5334H158.504C158.543 47.5334 158.563 47.5135 158.583 47.4736L159.277 45.7611C159.297 45.7212 159.317 45.7013 159.356 45.7013H163.203C163.243 45.7013 163.263 45.7212 163.283 45.7611L163.977 47.4736C163.997 47.5135 164.016 47.5334 164.056 47.5334H166.971C166.992 47.532 167.011 47.5231 167.026 47.5085C167.04 47.4938 167.049 47.4744 167.05 47.4537V47.4139L162.747 37.278C162.727 37.2381 162.708 37.2182 162.668 37.2182H160.031C159.991 37.2182 159.971 37.2381 159.951 37.278L155.628 47.4139ZM160.269 43.4909C160.247 43.4872 160.226 43.4779 160.209 43.464C160.191 43.4501 160.178 43.4319 160.169 43.4113V43.3715L161.201 40.7827C161.212 40.762 161.23 40.7452 161.251 40.7346C161.272 40.7239 161.296 40.7199 161.32 40.723C161.339 40.723 161.359 40.7429 161.379 40.7827L162.39 43.3715C162.399 43.3928 162.4 43.4167 162.393 43.4387C162.386 43.4607 162.371 43.4792 162.351 43.4909H160.269Z" fill="white"/>
<path d="M71.4287 33.0563C73.0151 33.0563 73.967 32.2996 74.899 30.4875L78.8452 22.8009C78.8542 22.7795 78.8551 22.7556 78.8478 22.7337C78.8405 22.7117 78.8255 22.6931 78.8056 22.6814C78.7857 22.6814 78.7857 22.6615 78.7659 22.6615H75.8707C75.8553 22.6618 75.8403 22.6655 75.8265 22.6724C75.8128 22.6793 75.8008 22.6892 75.7914 22.7013L73.6893 27.3013C73.6777 27.3213 73.6592 27.3364 73.6373 27.3437C73.6154 27.351 73.5916 27.3501 73.5704 27.3412C73.5601 27.3403 73.5506 27.3358 73.5433 27.3285C73.5361 27.3212 73.5316 27.3116 73.5307 27.3013L71.3097 22.7013C71.3003 22.6892 71.2883 22.6793 71.2745 22.6724C71.2608 22.6655 71.2457 22.6618 71.2304 22.6615H68.2558C68.2353 22.6629 68.2159 22.6717 68.2013 22.6864C68.1867 22.701 68.1779 22.7205 68.1765 22.7412C68.1765 22.7611 68.1765 22.781 68.1963 22.781L72.1228 30.1489C72.1426 30.1888 72.1426 30.2286 72.1029 30.2485C71.9952 30.3696 71.864 30.4674 71.7174 30.5358C71.5708 30.6043 71.4118 30.6421 71.2502 30.6468C70.8725 30.6493 70.5017 30.5458 70.1794 30.3481C70.1693 30.3413 70.1579 30.337 70.1459 30.3353C70.1339 30.3337 70.1216 30.3349 70.1102 30.3387C70.0987 30.3426 70.0882 30.349 70.0796 30.3575C70.071 30.366 70.0644 30.3764 70.0604 30.3879L69.0491 32.2797C69.0401 32.301 69.0392 32.3249 69.0465 32.3469C69.0538 32.3689 69.0688 32.3875 69.0887 32.3992C69.7904 32.8376 70.6023 33.0656 71.4287 33.0563ZM80.9869 32.8173C80.9883 32.838 80.9971 32.8575 81.0117 32.8721C81.0263 32.8868 81.0456 32.8956 81.0662 32.897H83.7433C83.7652 32.8933 83.7858 32.884 83.8032 32.8701C83.8205 32.8561 83.834 32.838 83.8425 32.8173V29.0935C83.8439 29.0729 83.8527 29.0534 83.8672 29.0388C83.8818 29.0241 83.9012 29.0153 83.9218 29.0139H87.3921C87.4127 29.0153 87.4321 29.0241 87.4466 29.0388C87.4612 29.0534 87.47 29.0729 87.4714 29.0935V32.7974C87.4728 32.8181 87.4816 32.8376 87.4962 32.8522C87.5108 32.8669 87.5302 32.8757 87.5507 32.8771H90.2278C90.2484 32.8757 90.2678 32.8669 90.2824 32.8522C90.297 32.8376 90.3058 32.8181 90.3071 32.7974V22.7412C90.3058 22.7205 90.297 22.701 90.2824 22.6864C90.2678 22.6717 90.2484 22.6629 90.2278 22.6615H87.5507C87.5302 22.6629 87.5108 22.6717 87.4962 22.6864C87.4816 22.701 87.4728 22.7205 87.4714 22.7412V26.4052C87.47 26.4259 87.4612 26.4453 87.4466 26.46C87.4321 26.4746 87.4127 26.4835 87.3921 26.4849H83.902C83.8814 26.4835 83.862 26.4746 83.8474 26.46C83.8328 26.4453 83.824 26.4259 83.8226 26.4052V22.7611C83.8212 22.7404 83.8124 22.7209 83.7979 22.7063C83.7833 22.6917 83.7639 22.6828 83.7433 22.6814H81.0662C81.0456 22.6828 81.0263 22.6917 81.0117 22.7063C80.9971 22.7209 80.9883 22.7404 80.9869 22.7611V32.8173ZM93.3214 32.8173C93.3228 32.838 93.3316 32.8575 93.3461 32.8721C93.3607 32.8868 93.3801 32.8956 93.4007 32.897H95.9191C95.949 32.892 95.9766 32.8781 95.9985 32.8572L99.786 27.3611C99.8059 27.3212 99.8654 27.3212 99.905 27.3412C99.9447 27.3611 99.9447 27.381 99.9447 27.4009V32.7974C99.9461 32.8181 99.9549 32.8376 99.9695 32.8522C99.9841 32.8669 100.003 32.8757 100.024 32.8771H102.661C102.682 32.8757 102.701 32.8669 102.716 32.8522C102.731 32.8376 102.739 32.8181 102.741 32.7974V22.7412C102.739 22.7205 102.731 22.701 102.716 22.6864C102.701 22.6717 102.682 22.6629 102.661 22.6615H100.143C100.113 22.6665 100.086 22.6804 100.064 22.7013L96.2761 28.1974C96.2562 28.2373 96.1968 28.2373 96.1571 28.2173C96.1174 28.1974 96.1174 28.1775 96.1174 28.1576V22.7611C96.116 22.7404 96.1072 22.7209 96.0927 22.7063C96.0781 22.6917 96.0587 22.6828 96.0381 22.6814H93.4007C93.3801 22.6828 93.3607 22.6917 93.3461 22.7063C93.3316 22.7209 93.3228 22.7404 93.3214 22.7611V32.8173ZM105.775 32.8173C105.776 32.838 105.785 32.8575 105.8 32.8721C105.814 32.8868 105.834 32.8956 105.854 32.897H111.069C113.528 32.897 114.956 31.8217 114.956 30.0693C114.956 28.7351 114.262 28.0381 113.132 27.6199C113.11 27.605 113.094 27.5829 113.087 27.5574C113.08 27.532 113.082 27.5048 113.092 27.4806C113.093 27.4703 113.098 27.4607 113.105 27.4534C113.112 27.4461 113.122 27.4416 113.132 27.4407C113.925 27.0225 114.5 26.3455 114.5 25.2502C114.511 24.9412 114.459 24.6332 114.346 24.3454C114.234 24.0576 114.063 23.7962 113.846 23.5775C113.251 22.9801 112.339 22.6615 111.05 22.6615H105.854C105.834 22.6629 105.814 22.6717 105.8 22.6864C105.785 22.701 105.776 22.7205 105.775 22.7412V32.8173ZM108.63 30.6269C108.61 30.6255 108.59 30.6166 108.576 30.602C108.561 30.5873 108.552 30.5679 108.551 30.5472V28.8347C108.552 28.814 108.561 28.7945 108.576 28.7799C108.59 28.7652 108.61 28.7564 108.63 28.755H110.713C111.664 28.755 112.101 29.1135 112.101 29.671C112.101 30.3083 111.605 30.6468 110.732 30.6468H108.63V30.6269ZM108.63 26.7637C108.61 26.7623 108.59 26.7534 108.576 26.7388C108.561 26.7241 108.552 26.7047 108.551 26.684V25.0511C108.552 25.0305 108.561 25.011 108.576 24.9963C108.59 24.9817 108.61 24.9729 108.63 24.9715H110.395C111.248 24.9715 111.684 25.2901 111.684 25.8477C111.684 26.4849 111.208 26.7637 110.336 26.7637H108.63ZM117.435 32.8173C117.436 32.838 117.445 32.8575 117.46 32.8721C117.474 32.8868 117.494 32.8956 117.514 32.897H125.684C125.706 32.8933 125.727 32.884 125.744 32.8701C125.762 32.8561 125.775 32.838 125.784 32.8173V30.587C125.781 30.5634 125.769 30.5419 125.75 30.5271C125.732 30.5122 125.708 30.5051 125.684 30.5074H120.35C120.328 30.5037 120.308 30.4944 120.29 30.4804C120.273 30.4665 120.259 30.4484 120.251 30.4277V28.9741C120.254 28.9504 120.266 28.9289 120.284 28.9141C120.303 28.8992 120.326 28.8921 120.35 28.8944H125.109C125.131 28.8907 125.152 28.8814 125.169 28.8675C125.187 28.8535 125.2 28.8354 125.209 28.8148V26.7637C125.206 26.7401 125.194 26.7185 125.175 26.7037C125.156 26.6888 125.133 26.6818 125.109 26.684H120.35C120.328 26.6803 120.308 26.671 120.29 26.6571C120.273 26.6431 120.259 26.625 120.251 26.6044V25.2303C120.252 25.2097 120.261 25.1902 120.276 25.1756C120.29 25.1609 120.31 25.1521 120.33 25.1507H125.605C125.627 25.1469 125.648 25.1377 125.665 25.1237C125.682 25.1098 125.696 25.0917 125.704 25.071V22.8407C125.703 22.8201 125.694 22.8006 125.679 22.786C125.665 22.7713 125.646 22.7625 125.625 22.7611H117.534C117.514 22.7625 117.494 22.7713 117.48 22.786C117.465 22.8006 117.456 22.8201 117.455 22.8407V32.8173H117.435ZM128.381 32.8173C128.383 32.838 128.392 32.8575 128.406 32.8721C128.421 32.8868 128.44 32.8956 128.461 32.897H131.138C131.158 32.8956 131.178 32.8868 131.192 32.8721C131.207 32.8575 131.216 32.838 131.217 32.8173V30.0693C131.218 30.0486 131.227 30.0292 131.242 30.0145C131.256 29.9999 131.276 29.991 131.296 29.9896H132.625C135.183 29.9896 137.047 28.7152 137.047 26.3057C137.047 24.0156 135.381 22.6814 132.784 22.6814H128.461C128.44 22.6828 128.421 22.6917 128.406 22.7063C128.392 22.7209 128.383 22.7404 128.381 22.7611V32.8173ZM131.316 27.7593C131.296 27.7579 131.276 27.7491 131.262 27.7345C131.247 27.7198 131.238 27.7004 131.237 27.6797V25.1507C131.238 25.13 131.247 25.1106 131.262 25.0959C131.276 25.0813 131.296 25.0724 131.316 25.071H132.566C133.597 25.071 134.211 25.5489 134.211 26.4251C134.211 27.2615 133.597 27.7793 132.585 27.7793H131.316V27.7593ZM144.384 33.1161C146.625 33.1161 147.914 32.1801 148.886 30.8857C148.906 30.8459 148.906 30.7862 148.866 30.7663L146.863 29.3524C146.824 29.3325 146.764 29.3325 146.744 29.3723C146.149 30.0892 145.515 30.5472 144.484 30.5472C143.036 30.5472 142.025 29.3524 142.025 27.8191C142.025 26.2857 143.036 25.0909 144.484 25.0909C145.435 25.0909 146.11 25.5091 146.685 26.2061C146.699 26.223 146.719 26.2343 146.741 26.238C146.762 26.2416 146.785 26.2374 146.804 26.226L148.747 24.7126C148.787 24.6927 148.787 24.6329 148.767 24.5931C147.855 23.3784 146.566 22.5022 144.503 22.5022C141.39 22.5022 139.09 24.8321 139.09 27.8191C139.07 30.8857 141.43 33.1161 144.384 33.1161ZM151.325 32.8173C151.326 32.838 151.335 32.8575 151.35 32.8721C151.364 32.8868 151.384 32.8956 151.404 32.897H153.923C153.953 32.892 153.98 32.8781 154.002 32.8572L157.79 27.3611C157.81 27.3212 157.869 27.3212 157.909 27.3412C157.948 27.3611 157.948 27.381 157.948 27.4009V32.7974C157.95 32.8181 157.959 32.8376 157.973 32.8522C157.988 32.8669 158.007 32.8757 158.028 32.8771H160.665C160.686 32.8757 160.705 32.8669 160.72 32.8522C160.734 32.8376 160.743 32.8181 160.744 32.7974V22.7412C160.743 22.7205 160.734 22.701 160.72 22.6864C160.705 22.6717 160.686 22.6629 160.665 22.6615H158.147C158.117 22.6665 158.089 22.6804 158.067 22.7013L154.28 28.1974C154.26 28.2373 154.2 28.2373 154.161 28.2173C154.121 28.1974 154.121 28.1775 154.121 28.1576V22.7611C154.12 22.7404 154.111 22.7209 154.096 22.7063C154.082 22.6917 154.062 22.6828 154.042 22.6814H151.404C151.384 22.6828 151.364 22.6917 151.35 22.7063C151.335 22.7209 151.326 22.7404 151.325 22.7611V32.8173ZM166.257 32.8173C166.259 32.838 166.267 32.8575 166.282 32.8721C166.297 32.8868 166.316 32.8956 166.337 32.897H169.014C169.034 32.8956 169.054 32.8868 169.068 32.8721C169.083 32.8575 169.092 32.838 169.093 32.8173V25.2502C169.096 25.2266 169.108 25.2051 169.127 25.1903C169.145 25.1754 169.169 25.1683 169.192 25.1706H172.107C172.129 25.1669 172.15 25.1576 172.167 25.1437C172.184 25.1297 172.198 25.1116 172.206 25.0909V22.781C172.205 22.7603 172.196 22.7409 172.182 22.7262C172.167 22.7116 172.148 22.7027 172.127 22.7013H163.303C163.282 22.7027 163.263 22.7116 163.248 22.7262C163.233 22.7409 163.225 22.7603 163.223 22.781V25.0909C163.225 25.1116 163.233 25.1311 163.248 25.1457C163.263 25.1604 163.282 25.1692 163.303 25.1706H166.178C166.199 25.172 166.218 25.1808 166.232 25.1955C166.247 25.2101 166.256 25.2296 166.257 25.2502V32.8173ZM174.606 32.8173C174.607 32.838 174.616 32.8575 174.631 32.8721C174.645 32.8868 174.665 32.8956 174.685 32.897H182.855C182.876 32.8956 182.895 32.8868 182.91 32.8721C182.924 32.8575 182.933 32.838 182.935 32.8173V30.587C182.933 30.5664 182.924 30.5469 182.91 30.5323C182.895 30.5176 182.876 30.5088 182.855 30.5074H177.501C177.48 30.506 177.461 30.4972 177.447 30.4825C177.432 30.4679 177.423 30.4484 177.422 30.4277V28.9741C177.423 28.9534 177.432 28.9339 177.447 28.9193C177.461 28.9046 177.48 28.8958 177.501 28.8944H182.26C182.281 28.893 182.3 28.8842 182.315 28.8695C182.329 28.8549 182.338 28.8354 182.34 28.8148V26.7637C182.338 26.743 182.329 26.7235 182.315 26.7089C182.3 26.6943 182.281 26.6854 182.26 26.684H177.501C177.48 26.6826 177.461 26.6738 177.447 26.6591C177.432 26.6445 177.423 26.625 177.422 26.6044V25.2303C177.423 25.2097 177.432 25.1902 177.447 25.1756C177.461 25.1609 177.48 25.1521 177.501 25.1507H182.776C182.797 25.1493 182.816 25.1404 182.83 25.1258C182.845 25.1112 182.854 25.0917 182.855 25.071V22.8407C182.854 22.8201 182.845 22.8006 182.83 22.786C182.816 22.7713 182.797 22.7625 182.776 22.7611H174.705C174.684 22.7625 174.665 22.7713 174.65 22.786C174.636 22.8006 174.627 22.8201 174.626 22.8407L174.606 32.8173ZM188.071 32.8173C188.072 32.838 188.081 32.8575 188.095 32.8721C188.11 32.8868 188.129 32.8956 188.15 32.897H190.827C190.848 32.8956 190.867 32.8868 190.882 32.8721C190.896 32.8575 190.905 32.838 190.906 32.8173V25.2502C190.909 25.2266 190.921 25.2051 190.94 25.1903C190.958 25.1754 190.982 25.1683 191.006 25.1706H193.921C193.941 25.1692 193.961 25.1604 193.975 25.1457C193.99 25.1311 193.998 25.1116 194 25.0909V22.781C193.998 22.7603 193.99 22.7409 193.975 22.7262C193.961 22.7116 193.941 22.7027 193.921 22.7013H185.076C185.056 22.7027 185.036 22.7116 185.022 22.7262C185.007 22.7409 184.998 22.7603 184.997 22.781V25.0909C184.998 25.1116 185.007 25.1311 185.022 25.1457C185.036 25.1604 185.056 25.1692 185.076 25.1706H187.991C188.012 25.172 188.031 25.1808 188.046 25.1955C188.06 25.2101 188.069 25.2296 188.071 25.2502V32.8173ZM69.0094 47.4338C69.0108 47.4545 69.0196 47.4739 69.0342 47.4886C69.0488 47.5032 69.0681 47.5121 69.0887 47.5135H71.7856C71.8062 47.5121 71.8256 47.5032 71.8402 47.4886C71.8548 47.4739 71.8636 47.4545 71.865 47.4338V44.9048C71.8637 44.894 71.8648 44.883 71.8682 44.8727C71.8716 44.8624 71.8773 44.8529 71.8848 44.8451L72.8366 43.7896C72.8763 43.7498 72.9358 43.7498 72.9556 43.7896L72.9755 43.8096L75.4741 47.4736C75.4835 47.4858 75.4955 47.4956 75.5093 47.5025C75.523 47.5094 75.5381 47.5132 75.5534 47.5135H78.7659C78.7865 47.5121 78.8059 47.5032 78.8204 47.4886C78.835 47.4739 78.8438 47.4545 78.8452 47.4338C78.8465 47.423 78.8454 47.412 78.842 47.4017C78.8386 47.3914 78.8329 47.3819 78.8254 47.3741L74.9387 41.7386C74.9288 41.7238 74.9236 41.7065 74.9236 41.6888C74.9236 41.6711 74.9288 41.6537 74.9387 41.639L78.6469 37.4373C78.6616 37.4208 78.6696 37.3996 78.6696 37.3775C78.6696 37.3555 78.6616 37.3342 78.6469 37.3178C78.6391 37.3103 78.6297 37.3046 78.6194 37.3011C78.6091 37.2977 78.5982 37.2966 78.5874 37.2979H75.4542C75.4344 37.2979 75.3948 37.3178 75.3948 37.3377L72.0434 41.2806C72.0292 41.2975 72.0094 41.3088 71.9876 41.3124C71.9658 41.3161 71.9434 41.3118 71.9244 41.3005C71.9046 41.2806 71.8848 41.2606 71.8848 41.2407V37.4173C71.8834 37.3967 71.8746 37.3772 71.86 37.3626C71.8454 37.3479 71.826 37.3391 71.8055 37.3377H69.1284C69.1078 37.3391 69.0884 37.3479 69.0738 37.3626C69.0592 37.3772 69.0504 37.3967 69.0491 37.4173L69.0094 47.4338ZM86.0635 47.7325C89.2363 47.7325 91.616 45.3429 91.616 42.4156C91.616 39.4485 89.276 37.0987 86.1031 37.0987C82.9303 37.0987 80.5506 39.4883 80.5506 42.4156C80.5506 45.3429 82.9104 47.7325 86.0635 47.7325ZM86.0833 45.1836C84.5167 45.1836 83.4657 43.8892 83.4657 42.4156C83.4657 40.9022 84.4969 39.6477 86.0635 39.6477C87.6301 39.6477 88.7009 40.942 88.7009 42.4156C88.7009 43.8892 87.6697 45.1836 86.0833 45.1836ZM99.211 47.7325C101.452 47.7325 102.741 46.7767 103.712 45.5022C103.732 45.4624 103.732 45.4026 103.693 45.3827L101.69 43.9689C101.65 43.949 101.591 43.9489 101.571 43.9888C100.976 44.7057 100.341 45.1637 99.3101 45.1637C97.8823 45.1637 96.8512 43.9689 96.8512 42.4355C96.8512 40.9022 97.8625 39.7074 99.3101 39.7074C100.262 39.7074 100.936 40.1256 101.511 40.8225C101.526 40.8395 101.545 40.8508 101.567 40.8544C101.589 40.8581 101.611 40.8538 101.63 40.8425L103.574 39.329C103.613 39.3091 103.613 39.2494 103.593 39.2096C102.681 37.9948 101.392 37.1186 99.3299 37.1186C96.2166 37.1186 93.9163 39.4485 93.9163 42.4355C93.9163 45.5022 96.2761 47.7325 99.211 47.7325ZM106.152 47.4338C106.153 47.4545 106.162 47.4739 106.176 47.4886C106.191 47.5032 106.21 47.5121 106.231 47.5135H110.693C113.211 47.5135 114.817 46.1793 114.817 43.9689C114.817 41.6589 113.013 40.484 110.554 40.484H109.086C109.066 40.4826 109.047 40.4738 109.032 40.4591C109.017 40.4445 109.009 40.425 109.007 40.4044V37.3576C109.006 37.3369 108.997 37.3175 108.982 37.3028C108.968 37.2882 108.948 37.2794 108.928 37.278H106.271C106.25 37.2794 106.231 37.2882 106.216 37.3028C106.201 37.3175 106.193 37.3369 106.191 37.3576L106.152 47.4338ZM109.086 45.1438C109.066 45.1424 109.047 45.1335 109.032 45.1189C109.017 45.1042 109.009 45.0848 109.007 45.0641V42.8139C109.009 42.7932 109.017 42.7738 109.032 42.7591C109.047 42.7445 109.066 42.7356 109.086 42.7342H110.494C111.426 42.7342 111.982 43.2122 111.982 43.9091C111.982 44.7057 111.426 45.1438 110.494 45.1438H109.086ZM116.027 47.4338C116.028 47.4545 116.037 47.4739 116.052 47.4886C116.066 47.5032 116.086 47.5121 116.106 47.5135H118.783C118.804 47.5121 118.823 47.5032 118.838 47.4886C118.853 47.4739 118.861 47.4545 118.863 47.4338V37.3775C118.861 37.3569 118.853 37.3374 118.838 37.3228C118.823 37.3081 118.804 37.2993 118.783 37.2979H116.126C116.106 37.2993 116.086 37.3081 116.072 37.3228C116.057 37.3374 116.048 37.3569 116.047 37.3775L116.027 47.4338ZM121.857 47.4338C121.86 47.4574 121.872 47.4789 121.891 47.4938C121.909 47.5087 121.933 47.5157 121.956 47.5135H124.633C124.654 47.5121 124.673 47.5032 124.688 47.4886C124.703 47.4739 124.711 47.4545 124.713 47.4338V39.8667C124.716 39.8431 124.728 39.8216 124.746 39.8067C124.765 39.7918 124.788 39.7848 124.812 39.787H129.214C129.235 39.7856 129.254 39.7768 129.269 39.7622C129.283 39.7475 129.292 39.7281 129.294 39.7074V37.3974C129.292 37.3768 129.283 37.3573 129.269 37.3427C129.254 37.328 129.235 37.3192 129.214 37.3178H121.996C121.974 37.3215 121.954 37.3308 121.936 37.3447C121.919 37.3587 121.905 37.3768 121.897 37.3974L121.857 47.4338ZM131.634 47.4338C131.637 47.4574 131.649 47.4789 131.667 47.4938C131.686 47.5087 131.709 47.5157 131.733 47.5135H134.251C134.281 47.5085 134.309 47.4946 134.33 47.4736L138.118 41.9775C138.138 41.9377 138.197 41.9377 138.237 41.9576C138.249 41.9671 138.259 41.9792 138.266 41.9929C138.273 42.0067 138.276 42.0219 138.277 42.0373V47.4338C138.28 47.4574 138.292 47.4789 138.31 47.4938C138.329 47.5087 138.352 47.5157 138.376 47.5135H140.993C141.015 47.5097 141.036 47.5004 141.053 47.4865C141.071 47.4726 141.084 47.4544 141.093 47.4338V37.3775C141.09 37.3539 141.078 37.3324 141.059 37.3175C141.041 37.3027 141.017 37.2956 140.993 37.2979H138.495C138.465 37.3029 138.437 37.3167 138.416 37.3377L134.628 42.8139C134.608 42.8537 134.549 42.8537 134.509 42.8338C134.497 42.8243 134.487 42.8123 134.48 42.7985C134.473 42.7847 134.47 42.7695 134.469 42.7541V37.3775C134.466 37.3539 134.454 37.3324 134.436 37.3175C134.417 37.3027 134.394 37.2956 134.37 37.2979H131.733C131.711 37.3016 131.69 37.3109 131.673 37.3248C131.655 37.3387 131.642 37.3569 131.634 37.3775V47.4338ZM144.067 47.4338C144.07 47.4574 144.082 47.4789 144.101 47.4938C144.119 47.5087 144.143 47.5157 144.166 47.5135H146.843C146.864 47.5121 146.883 47.5032 146.898 47.4886C146.913 47.4739 146.921 47.4545 146.923 47.4338V43.7299C146.926 43.7063 146.938 43.6848 146.956 43.6699C146.975 43.655 146.998 43.648 147.022 43.6502H150.512C150.534 43.654 150.554 43.6633 150.572 43.6772C150.589 43.6911 150.603 43.7093 150.611 43.7299V47.4338C150.613 47.4545 150.621 47.4739 150.636 47.4886C150.651 47.5032 150.67 47.5121 150.69 47.5135H153.368C153.389 47.5097 153.41 47.5004 153.427 47.4865C153.445 47.4726 153.458 47.4544 153.467 47.4338V37.3775C153.464 37.3539 153.452 37.3324 153.433 37.3175C153.415 37.3027 153.391 37.2956 153.368 37.2979H150.69C150.67 37.2993 150.651 37.3081 150.636 37.3228C150.621 37.3374 150.613 37.3569 150.611 37.3775V41.0416C150.608 41.0652 150.596 41.0867 150.578 41.1016C150.559 41.1165 150.536 41.1235 150.512 41.1212H147.042C147.02 41.1175 146.999 41.1082 146.982 41.0943C146.965 41.0804 146.951 41.0622 146.943 41.0416V37.3775C146.941 37.3569 146.932 37.3374 146.918 37.3228C146.903 37.3081 146.884 37.2993 146.863 37.2979H144.166C144.144 37.3016 144.124 37.3109 144.106 37.3248C144.089 37.3387 144.076 37.3569 144.067 37.3775V47.4338ZM155.628 47.4139C155.619 47.4352 155.618 47.4591 155.626 47.4811C155.633 47.5031 155.648 47.5217 155.668 47.5334H158.504C158.543 47.5334 158.563 47.5135 158.583 47.4736L159.277 45.7611C159.297 45.7212 159.317 45.7013 159.356 45.7013H163.203C163.243 45.7013 163.263 45.7212 163.283 45.7611L163.977 47.4736C163.997 47.5135 164.016 47.5334 164.056 47.5334H166.971C166.992 47.532 167.011 47.5231 167.026 47.5085C167.04 47.4938 167.049 47.4744 167.05 47.4537V47.4139L162.747 37.278C162.727 37.2381 162.708 37.2182 162.668 37.2182H160.031C159.991 37.2182 159.971 37.2381 159.951 37.278L155.628 47.4139ZM160.269 43.4909C160.247 43.4872 160.226 43.4779 160.209 43.464C160.191 43.4501 160.178 43.4319 160.169 43.4113V43.3715L161.201 40.7827C161.212 40.762 161.23 40.7452 161.251 40.7346C161.272 40.7239 161.296 40.7199 161.32 40.723C161.339 40.723 161.359 40.7429 161.379 40.7827L162.39 43.3715C162.399 43.3928 162.4 43.4167 162.393 43.4387C162.386 43.4607 162.371 43.4792 162.351 43.4909H160.269Z" fill="white"/>
<path fill-rule="evenodd" clip-rule="evenodd" d="M0 0V59.7403L17.7878 49.4649V10.355L0 0ZM51.539 29.8701L35.179 20.3515L32.6407 18.9775V40.8424L17.8076 49.4649L51.539 69V51.755L32.6407 40.8623L35.179 39.4087L51.539 29.8701Z" fill="white"/>
</g>
<defs>
<clipPath id="clip0_2_225">
<rect width="194" height="69" fill="white"/>
</clipPath>
</defs>
</svg>
