<svg width="289" height="46" viewBox="0 0 289 46" fill="none" xmlns="http://www.w3.org/2000/svg">
<path d="M96.4597 21.154V24.3576H87.6365V21.154H96.4597ZM88.8445 14.488V31.056H85.0801V14.488H88.8445ZM99.0161 14.488V31.056H95.2625V14.488H99.0161Z" fill="white"/>
<path d="M71.6356 25.7706L78.2692 14.488H82.2818V31.0559H78.5065V19.7625L71.8944 31.0559H67.8711V14.488H71.6356V25.7706ZM77.2013 8.79272H80.1245C80.1245 10.0511 79.6678 11.0723 78.7546 11.8561C77.8485 12.6327 76.6189 13.021 75.0656 13.021C73.5268 13.021 72.3007 12.6327 71.3875 11.8561C70.4814 11.0723 70.032 10.0511 70.0392 8.79272H72.9407C72.9407 9.31047 73.0989 9.77429 73.4153 10.1842C73.7389 10.5869 74.289 10.7882 75.0656 10.7882C75.8279 10.7882 76.3708 10.5869 76.6944 10.1842C77.0252 9.78148 77.1942 9.31766 77.2013 8.79272Z" fill="white"/>
<path d="M56.4153 31.3903C55.3654 31.3903 54.4198 31.2033 53.5785 30.8294C52.7443 30.4483 52.0828 29.8874 51.5938 29.1467C51.112 28.406 50.8711 27.4928 50.8711 26.4069C50.8711 25.4721 51.0437 24.6991 51.3888 24.0879C51.734 23.4766 52.205 22.9876 52.8019 22.6209C53.3987 22.2542 54.0711 21.9773 54.8189 21.7903C55.574 21.5962 56.3542 21.456 57.1596 21.3697C58.1304 21.269 58.9178 21.1791 59.5218 21.1C60.1258 21.0137 60.5645 20.8843 60.8377 20.7117C61.1182 20.5319 61.2584 20.2551 61.2584 19.8812V19.8164C61.2584 19.0039 61.0175 18.3747 60.5357 17.9288C60.0539 17.483 59.36 17.2601 58.4539 17.2601C57.4976 17.2601 56.7389 17.4686 56.178 17.8857C55.6243 18.3027 55.2504 18.7953 55.0562 19.3634L51.4104 18.8457C51.6981 17.8389 52.1727 16.9976 52.8342 16.3216C53.4958 15.6385 54.3048 15.1279 55.2612 14.79C56.2176 14.4448 57.2746 14.2722 58.4324 14.2722C59.2306 14.2722 60.0252 14.3657 60.8162 14.5527C61.6072 14.7396 62.3299 15.0488 62.9843 15.4803C63.6386 15.9046 64.1636 16.4834 64.5591 17.2169C64.9618 17.9504 65.1631 18.8672 65.1631 19.9674V31.0559H61.4094V28.78H61.28C61.0427 29.2402 60.7083 29.6716 60.2769 30.0743C59.8526 30.4698 59.3169 30.7898 58.6697 31.0343C58.0297 31.2716 57.2782 31.3903 56.4153 31.3903ZM57.4292 28.5211C58.2131 28.5211 58.8926 28.3665 59.4679 28.0573C60.0432 27.7409 60.4854 27.3238 60.7946 26.806C61.111 26.2883 61.2692 25.7238 61.2692 25.1126V23.1602C61.147 23.2609 60.9384 23.3544 60.6436 23.4407C60.356 23.527 60.0324 23.6025 59.6728 23.6672C59.3133 23.7319 58.9573 23.7894 58.605 23.8398C58.2526 23.8901 57.947 23.9333 57.6881 23.9692C57.1056 24.0483 56.5843 24.1777 56.1241 24.3575C55.6639 24.5373 55.3007 24.789 55.0347 25.1126C54.7686 25.429 54.6356 25.8389 54.6356 26.3422C54.6356 27.0613 54.898 27.6042 55.423 27.971C55.9479 28.3377 56.6167 28.5211 57.4292 28.5211Z" fill="white"/>
<path d="M33.504 31.056L33.4824 27.8416H34.0541C34.4856 27.8416 34.8487 27.7445 35.1435 27.5504C35.4384 27.3562 35.6829 27.0326 35.877 26.5796C36.0712 26.1194 36.2222 25.501 36.33 24.7243C36.4379 23.9477 36.5134 22.9805 36.5566 21.8228L36.8478 14.488H48.9286V31.056H45.1533V17.6916H40.3965L40.1376 23.0309C40.0729 24.4115 39.9183 25.6088 39.6738 26.6228C39.4365 27.6295 39.0986 28.46 38.6599 29.1144C38.2285 29.7688 37.6855 30.2578 37.0312 30.5814C36.3768 30.8978 35.6038 31.056 34.7121 31.056H33.504Z" fill="white"/>
<path d="M29.3562 21.154V24.3576H20.5329V21.154H29.3562ZM21.741 14.488V31.056H17.9766V14.488H21.741ZM31.9126 14.488V31.056H28.1589V14.488H31.9126Z" fill="white"/>
<path d="M7.93881 31.3795C6.32084 31.3795 4.91861 31.0235 3.7321 30.3116C2.5456 29.5997 1.62515 28.6038 0.970778 27.3238C0.323593 26.0438 0 24.5481 0 22.8366C0 21.1252 0.323593 19.6259 0.970778 18.3387C1.62515 17.0515 2.5456 16.052 3.7321 15.3401C4.91861 14.6282 6.32084 14.2722 7.93881 14.2722C9.55677 14.2722 10.959 14.6282 12.1455 15.3401C13.332 16.052 14.2489 17.0515 14.8961 18.3387C15.5504 19.6259 15.8776 21.1252 15.8776 22.8366C15.8776 24.5481 15.5504 26.0438 14.8961 27.3238C14.2489 28.6038 13.332 29.5997 12.1455 30.3116C10.959 31.0235 9.55677 31.3795 7.93881 31.3795ZM7.96038 28.2514C8.83768 28.2514 9.57115 28.0105 10.1608 27.5287C10.7505 27.0397 11.1891 26.3854 11.4768 25.5656C11.7716 24.7458 11.919 23.8326 11.919 22.8259C11.919 21.8119 11.7716 20.8951 11.4768 20.0753C11.1891 19.2484 10.7505 18.5904 10.1608 18.1014C9.57115 17.6124 8.83768 17.3679 7.96038 17.3679C7.06151 17.3679 6.31365 17.6124 5.7168 18.1014C5.12715 18.5904 4.6849 19.2484 4.39007 20.0753C4.10244 20.8951 3.95862 21.8119 3.95862 22.8259C3.95862 23.8326 4.10244 24.7458 4.39007 25.5656C4.6849 26.3854 5.12715 27.0397 5.7168 27.5287C6.31365 28.0105 7.06151 28.2514 7.96038 28.2514Z" fill="white"/>
<path fill-rule="evenodd" clip-rule="evenodd" d="M102.434 27.2978L102.49 27.4254C102.823 28.1564 103.3 28.7988 103.903 29.3519C102.546 29.6023 101.781 29.8859 101.781 30.1862C101.781 30.7629 104.601 31.2777 109.015 31.6151C110.322 31.8454 111.765 31.9293 113.305 31.8645C115.758 31.9687 118.481 32.0266 121.347 32.0266C132.153 32.0266 140.913 31.2027 140.913 30.1862C140.913 29.3332 134.743 28.6156 126.37 28.4071C136.459 23.6309 142.629 15.5874 140.204 10.2601C137.735 4.83621 127.292 4.2818 116.877 9.0218C106.544 13.7248 100.122 21.8729 102.434 27.2978ZM102.831 27.2703C101.683 24.7496 102.575 21.4878 105.147 18.1977C107.707 14.9237 111.869 11.7128 117.032 9.3625C122.196 7.01225 127.351 5.98291 131.5 6.20321C135.671 6.4246 138.716 7.89452 139.864 10.4152C141.011 12.9359 140.119 16.1976 137.547 19.4878C134.987 22.7618 130.826 25.9728 125.662 28.3231L125.519 28.3878C124.175 28.3603 122.779 28.3459 121.347 28.3459C114.09 28.3459 107.756 28.7174 104.378 29.2694C103.702 28.7035 103.179 28.0354 102.831 27.2703ZM103.4 29.8353C103.659 29.7777 103.95 29.7214 104.271 29.6667C104.983 30.2329 105.84 30.6919 106.816 31.0424C105.389 30.8927 104.23 30.7217 103.4 30.5372C102.913 30.429 102.559 30.3203 102.335 30.2171C102.312 30.2065 102.291 30.1959 102.272 30.1862C102.291 30.1766 102.312 30.1661 102.335 30.1555C102.559 30.0524 102.913 29.9435 103.4 29.8353ZM109.059 31.2431C107.344 30.9388 105.894 30.3795 104.785 29.5845C105.568 29.4663 106.495 29.3565 107.547 29.2576C111.073 28.9259 115.952 28.7202 121.347 28.7202C122.49 28.7202 123.609 28.7294 124.697 28.7471C120.703 30.4395 116.751 31.3427 113.304 31.4898C111.773 31.4246 110.348 31.3414 109.059 31.2431ZM116.171 31.5871C117.819 31.6296 119.555 31.6523 121.347 31.6523C126.742 31.6523 131.622 31.4466 135.148 31.1149C136.912 30.9489 138.327 30.7523 139.295 30.5372C139.781 30.429 140.135 30.3203 140.36 30.2171C140.383 30.2065 140.404 30.1959 140.423 30.1862L140.402 30.1758L140.36 30.1555C140.135 30.0524 139.781 29.9435 139.295 29.8353C138.327 29.6202 136.912 29.4236 135.148 29.2575C132.575 29.0156 129.283 28.8407 125.596 28.7638L125.573 28.7739C122.357 30.2119 119.145 31.1455 116.171 31.5871Z" fill="white"/>
<path d="M140.51 10.1225C141.798 12.9527 140.775 16.4308 138.247 19.7416C135.91 22.8003 132.243 25.7824 127.713 28.1136C131.345 28.2308 134.501 28.4458 136.825 28.726C138.124 28.8826 139.176 29.0608 139.908 29.2574C140.271 29.355 140.576 29.4621 140.795 29.5828C140.905 29.643 141.01 29.7154 141.092 29.8052C141.164 29.8855 141.23 29.994 141.245 30.1273L141.249 30.1863L141.244 30.256C141.223 30.4134 141.131 30.5346 141.042 30.6178C140.938 30.7135 140.803 30.7918 140.658 30.8585C140.365 30.9931 139.954 31.1146 139.451 31.2263C138.441 31.4509 136.992 31.6509 135.217 31.8178C131.663 32.1521 126.761 32.3583 121.351 32.3583C118.486 32.3583 115.764 32.2994 113.309 32.1954C111.76 32.2597 110.302 32.1759 108.976 31.9434C106.772 31.7746 104.955 31.5618 103.683 31.3159C103.049 31.1932 102.533 31.0592 102.17 30.9125C101.99 30.8399 101.827 30.7564 101.705 30.6561C101.586 30.5595 101.453 30.4037 101.453 30.1864C101.453 29.96 101.597 29.8 101.721 29.7029C101.851 29.6012 102.024 29.5158 102.217 29.4411C102.484 29.3377 102.829 29.2411 103.239 29.1495C102.81 28.6753 102.457 28.1465 102.192 27.5627L102.19 27.5586L102.134 27.431L102.132 27.4281C100.905 24.5478 102.021 21.0214 104.657 17.6835C107.304 14.3314 111.539 11.0889 116.744 8.71995C121.989 6.33248 127.257 5.2711 131.541 5.49852C135.808 5.725 139.198 7.24125 140.51 10.1225ZM104.828 30.4576C104.606 30.3196 104.393 30.1729 104.191 30.0184C104.083 30.0374 103.979 30.0563 103.879 30.0757L103.476 30.1589C103.436 30.1676 103.398 30.1768 103.361 30.1854C103.398 30.1941 103.436 30.2049 103.476 30.2137C103.855 30.2981 104.308 30.3789 104.828 30.4576ZM121.351 29.0517C115.963 29.0517 111.094 29.2575 107.582 29.5879C106.915 29.6506 106.3 29.7178 105.74 29.7884C106.675 30.3005 107.804 30.6809 109.103 30.9128C110.379 31.0101 111.791 31.0922 113.308 31.1569C116.262 31.029 119.601 30.3378 123.022 29.058C122.472 29.0536 121.914 29.0517 121.351 29.0517ZM107.183 31.1212C107.076 31.0867 106.971 31.0502 106.867 31.0132L106.851 31.0876C106.96 31.099 107.071 31.1101 107.183 31.1212ZM116.144 31.5469C115.979 31.5713 115.814 31.593 115.65 31.6144C115.815 31.6191 115.981 31.6245 116.148 31.6288L116.144 31.5469ZM139.226 30.159C138.279 29.9484 136.88 29.7529 135.12 29.5873C132.575 29.3479 129.317 29.1739 125.665 29.0963C123.509 30.0571 121.354 30.7934 119.268 31.3089C119.952 31.3158 120.648 31.3207 121.351 31.3207C126.739 31.3207 131.607 31.1152 135.12 30.7849C136.88 30.6193 138.279 30.4242 139.227 30.2136C139.266 30.2048 139.304 30.1945 139.341 30.1858C139.304 30.1772 139.265 30.1678 139.226 30.159ZM124.763 28.7057L124.774 28.7612C124.815 28.7435 124.857 28.7259 124.898 28.7081C124.853 28.7073 124.808 28.7065 124.763 28.7057ZM126.294 28.3968C126.258 28.4133 126.223 28.4298 126.188 28.4462C126.227 28.4472 126.266 28.4478 126.304 28.4488L126.294 28.3968ZM117.173 9.66424C112.048 11.997 107.932 15.178 105.412 18.4021C102.868 21.6564 102.065 24.7815 103.136 27.1329C103.442 27.8067 103.897 28.402 104.485 28.9176C107.926 28.3752 114.199 28.0142 121.351 28.0142C122.758 28.0142 124.131 28.028 125.454 28.0545L125.528 28.0213L126.006 27.7999C130.909 25.4895 134.848 22.4068 137.29 19.2835C139.834 16.0292 140.635 12.9037 139.565 10.5523C138.495 8.20101 135.611 6.75303 131.486 6.53406C127.4 6.31719 122.299 7.33156 117.173 9.66424Z" fill="white"/>
<path d="M286.289 31.5075C285.635 31.5075 285.074 31.2774 284.606 30.8172C284.139 30.357 283.909 29.7962 283.916 29.1347C283.909 28.4876 284.139 27.9339 284.606 27.4737C285.074 27.0135 285.635 26.7834 286.289 26.7834C286.922 26.7834 287.472 27.0135 287.939 27.4737C288.414 27.9339 288.655 28.4876 288.662 29.1347C288.655 29.5733 288.54 29.9723 288.317 30.3319C288.101 30.6914 287.813 30.979 287.454 31.1947C287.101 31.4032 286.713 31.5075 286.289 31.5075Z" fill="white"/>
<path d="M263.566 20.0966H268.452C270.566 20.0966 272.202 20.6107 273.359 21.6389C274.517 22.6671 275.1 24.0153 275.107 25.6835C275.1 26.7692 274.833 27.7327 274.309 28.574C273.791 29.4152 273.036 30.0767 272.044 30.5585C271.059 31.0331 269.861 31.2703 268.452 31.2703H260.924V14.7039H264.688V28.0671H268.452C269.301 28.0671 269.998 27.8513 270.544 27.4199C271.091 26.9813 271.364 26.4205 271.364 25.7374C271.364 25.0184 271.091 24.4324 270.544 23.9794C269.998 23.5264 269.301 23.2999 268.452 23.2999H263.566V20.0966ZM277.167 31.2703V14.7039H281.071V31.2703H277.167Z" fill="white"/>
<path d="M244.537 17.9071V14.7039H259.033V17.9071H253.672V31.2703H249.897V17.9071H244.537Z" fill="white"/>
<path d="M229.369 31.2703V14.7039H233.273V21.3908H234.697L239.68 14.7039H244.383L238.246 22.8361L244.447 31.2703H239.723L235.183 25.0256H233.273V31.2703H229.369Z" fill="white"/>
<path d="M215.506 37.4828C214.974 37.4828 214.482 37.4396 214.029 37.3533C213.583 37.2743 213.227 37.1808 212.961 37.0729L213.867 34.0314C214.435 34.1968 214.942 34.2759 215.388 34.2687C215.833 34.2615 216.225 34.1213 216.563 33.8481C216.908 33.582 217.2 33.1362 217.437 32.5107L217.771 31.6155L211.764 14.7039H215.905L219.723 27.215H219.896L223.725 14.7039H227.877L221.244 33.2764C220.935 34.1537 220.525 34.905 220.015 35.5306C219.504 36.1634 218.878 36.6451 218.138 36.9759C217.404 37.3138 216.527 37.4828 215.506 37.4828Z" fill="white"/>
<path d="M192.93 36.0807V28.0563H194.246C194.598 27.783 194.893 27.4127 195.13 26.9454C195.367 26.4708 195.561 25.9136 195.712 25.2736C195.871 24.6265 196 23.9039 196.101 23.1057C196.201 22.3004 196.291 21.434 196.37 20.5064L196.845 14.7039H208.817V28.0563H211.384V36.0807H207.609V31.2703H196.769V36.0807H192.93ZM198.258 28.0563H205.085V17.8532H200.231L199.973 20.5064C199.829 22.2609 199.638 23.7636 199.401 25.0148C199.164 26.2659 198.783 27.2797 198.258 28.0563Z" fill="white"/>
<path d="M184.358 31.5938C182.74 31.5938 181.338 31.2379 180.152 30.526C178.965 29.8142 178.045 28.8183 177.391 27.5385C176.743 26.2586 176.42 24.763 176.42 23.0517C176.42 21.3404 176.743 19.8412 177.391 18.5542C178.045 17.2671 178.965 16.2676 180.152 15.5558C181.338 14.844 182.74 14.488 184.358 14.488C185.976 14.488 187.378 14.844 188.564 15.5558C189.751 16.2676 190.668 17.2671 191.315 18.5542C191.969 19.8412 192.296 21.3404 192.296 23.0517C192.296 24.763 191.969 26.2586 191.315 27.5385C190.668 28.8183 189.751 29.8142 188.564 30.526C187.378 31.2379 185.976 31.5938 184.358 31.5938ZM184.38 28.466C185.257 28.466 185.99 28.2251 186.58 27.7434C187.169 27.2544 187.608 26.6001 187.896 25.7804C188.19 24.9607 188.338 24.0476 188.338 23.0409C188.338 22.0271 188.19 21.1103 187.896 20.2906C187.608 19.4637 187.169 18.8058 186.58 18.3169C185.99 17.8279 185.257 17.5835 184.38 17.5835C183.481 17.5835 182.733 17.8279 182.136 18.3169C181.547 18.8058 181.104 19.4637 180.81 20.2906C180.522 21.1103 180.378 22.0271 180.378 23.0409C180.378 24.0476 180.522 24.9607 180.81 25.7804C181.104 26.6001 181.547 27.2544 182.136 27.7434C182.733 28.2251 183.481 28.466 184.38 28.466Z" fill="white"/>
<path d="M159.363 37.4827V14.7037H163.203V17.4433H163.429C163.631 17.0406 163.915 16.6128 164.281 16.1598C164.648 15.6996 165.144 15.3077 165.77 14.9842C166.395 14.6534 167.194 14.488 168.164 14.488C169.444 14.488 170.598 14.8152 171.626 15.4695C172.662 16.1166 173.481 17.0765 174.085 18.3492C174.697 19.6147 175.002 21.1678 175.002 23.0086C175.002 24.8277 174.704 26.3736 174.107 27.6463C173.51 28.919 172.698 29.8897 171.67 30.5584C170.641 31.2271 169.476 31.5614 168.175 31.5614C167.226 31.5614 166.439 31.4032 165.813 31.0869C165.187 30.7705 164.684 30.3894 164.303 29.9436C163.929 29.4906 163.638 29.0628 163.429 28.6601H163.268V37.4827H159.363ZM163.192 22.987C163.192 24.0583 163.343 24.9967 163.645 25.802C163.954 26.6073 164.397 27.2365 164.972 27.6895C165.554 28.1353 166.259 28.3582 167.086 28.3582C167.949 28.3582 168.671 28.1281 169.254 27.6679C169.836 27.2005 170.275 26.5642 170.569 25.7589C170.871 24.9464 171.022 24.0224 171.022 22.987C171.022 21.9588 170.875 21.0456 170.58 20.2475C170.285 19.4494 169.847 18.8238 169.264 18.3708C168.682 17.9178 167.956 17.6913 167.086 17.6913C166.252 17.6913 165.543 17.9106 164.961 18.3492C164.379 18.7878 163.936 19.4026 163.634 20.1935C163.34 20.9845 163.192 21.9156 163.192 22.987Z" fill="white"/>
<path d="M142.576 31.2703V14.7039H156.565V31.2703H152.801V17.9071H146.308V31.2703H142.576Z" fill="white"/>
</svg>
