<svg width="131" height="59" viewBox="0 0 131 59" fill="none" xmlns="http://www.w3.org/2000/svg">
<g clip-path="url(#clip0_2_413)">
<path d="M46.5223 33.08C47.5734 33.08 48.2062 32.5774 48.8291 31.3455L51.4868 26.0833H49.4329L47.9728 29.3254L46.425 26.0833H44.3223L46.9895 31.178C46.7851 31.4145 46.5612 31.4736 46.3956 31.4736C46.2396 31.4736 46.0269 31.4393 45.818 31.344L44.4056 32.1697C44.9534 32.8875 45.9177 33.0799 46.5223 33.0799V33.08Z" fill="black"/>
<path d="M96.7787 31.395C95.747 31.395 95.0364 30.5277 95.0364 29.5326C95.0364 28.5176 95.7275 27.67 96.7593 27.67C97.4651 27.67 98.0189 28.0684 98.3027 28.6348L99.9366 27.6785C99.3142 26.6353 98.1649 25.9456 96.7787 25.9456C94.6764 25.9456 93.0996 27.5517 93.0996 29.5326C93.0996 31.5329 94.6569 33.1194 96.7593 33.1194C98.1475 33.1194 99.3066 32.4191 99.9338 31.3732L98.3118 30.4298C98.0355 31.0015 97.4885 31.395 96.7787 31.395Z" fill="black"/>
<path d="M126.925 32.9813H128.813V27.7585H130.858V26.0833H124.881V27.7585H126.925V32.9813Z" fill="black"/>
<path d="M117.688 32.9813H123.216V31.3555H119.556V30.2616H122.827V28.7538H119.556V27.7092H123.168V26.0833H117.688V32.9813Z" fill="black"/>
<path d="M111.851 32.9813H113.739V27.7585H115.783V26.0833H109.807V27.7585H111.851V32.9813Z" fill="black"/>
<path d="M101.631 32.9813H103.393L106.031 29.0987V32.9813H107.9V26.0833H106.138L103.5 29.966V26.0833H101.631V32.9813Z" fill="black"/>
<path d="M87.7066 29.5125V27.6896H88.5927C89.2739 27.6896 89.6827 28.0048 89.6827 28.5961C89.6827 29.1578 89.2739 29.5125 88.6022 29.5125H87.7066ZM85.8182 32.9813H87.7066V31.0105H88.6411C90.335 31.0105 91.5711 30.1532 91.5711 28.5272C91.5711 26.98 90.4616 26.0833 88.7383 26.0833H85.8182V32.9813Z" fill="black"/>
<path d="M78.2461 32.9813H83.7751V31.3555H80.115V30.2616H83.3857V28.7538H80.115V27.7092H83.7263V26.0833H78.2461V32.9813Z" fill="black"/>
<path d="M72.0489 28.8326V27.6205H73.2752C73.8401 27.6205 74.1318 27.8373 74.1318 28.2118C74.1318 28.6356 73.8107 28.8326 73.2367 28.8326H72.0489ZM72.0489 31.4441V30.1728H73.4895C74.1223 30.1728 74.4141 30.4193 74.4141 30.7936C74.4141 31.2174 74.0834 31.4441 73.509 31.4441H72.0489ZM70.209 32.9813H73.7234C75.3489 32.9813 76.3029 32.2619 76.3029 31.0794C76.3029 30.1237 75.7773 29.6506 74.9496 29.3747C75.5534 29.1086 76.0008 28.6356 76.0008 27.8374C76.0008 27.3447 75.8356 26.9801 75.5629 26.7041C75.164 26.3001 74.5606 26.0833 73.7039 26.0833H70.209V32.9813Z" fill="black"/>
<path d="M61.6541 32.9813H63.4158L66.0537 29.0987V32.9813H67.9226V26.0833H66.1609L63.523 29.966V26.0833H61.6541V32.9813Z" fill="black"/>
<path d="M53.3202 33.4309H55.2085V30.8097H57.6324V33.4309H59.5208V26.5328H57.6324V29.1148H55.2085V26.5328H53.3202V33.4309Z" fill="black"/>
<path d="M65.4432 41.9923C64.4115 41.9923 63.7009 41.1252 63.7009 40.1298C63.7009 39.115 64.392 38.2674 65.4237 38.2674C66.1295 38.2674 66.6833 38.6658 66.9668 39.2323L68.6007 38.2759C67.9786 37.2328 66.8294 36.543 65.4432 36.543C63.3404 36.543 61.7637 38.1492 61.7637 40.1298C61.7637 42.1302 63.321 43.7169 65.4237 43.7169C66.8119 43.7169 67.9707 43.0164 68.5983 41.9708L66.9763 41.0272C66.6996 41.5988 66.153 41.9923 65.4432 41.9923Z" fill="black"/>
<path d="M107.211 40.8591L107.98 38.8981L108.739 40.8591H107.211ZM104.183 43.5787H106.169L106.656 42.3469H109.284L109.78 43.5787H111.805L108.904 36.6315H107.084L104.183 43.5787Z" fill="black"/>
<path d="M96.2422 43.5787H98.131V40.9576H100.554V43.5787H102.443V36.6808H100.554V39.2626H98.131V36.6808H96.2422V43.5787Z" fill="black"/>
<path d="M87.6875 43.5787H89.4492L92.0871 39.6962V43.5787H93.956V36.6808H92.1943L89.5564 40.5633V36.6808H87.6875V43.5787Z" fill="black"/>
<path d="M80.906 43.5787H82.7944V38.3561H85.8122V36.6808H80.906V43.5787Z" fill="black"/>
<path d="M76.7324 43.5787H78.6207V36.6808H76.7324V43.5787Z" fill="black"/>
<path d="M72.07 41.9726V40.3465H73.0628C73.6762 40.3465 74.0461 40.6618 74.0461 41.1446C74.0461 41.6867 73.6762 41.9726 73.0529 41.9726H72.07ZM70.1816 43.5787H73.199C74.8635 43.5787 75.9345 42.6822 75.9345 41.194C75.9345 39.6371 74.7373 38.8488 73.1017 38.8488H72.07V36.6808H70.1816V43.5787Z" fill="black"/>
<path d="M56.275 41.9923C55.2433 41.9923 54.5327 41.1252 54.5327 40.1298C54.5327 39.115 55.2238 38.2674 56.2556 38.2674C57.2972 38.2674 58.0078 39.1346 58.0078 40.1298C58.0078 41.1448 57.3167 41.9923 56.275 41.9923ZM56.2556 43.7169C58.3583 43.7169 59.9351 42.1107 59.9351 40.1298C59.9351 38.1295 58.3778 36.543 56.275 36.543C54.1727 36.543 52.5959 38.1492 52.5959 40.1298C52.5959 42.1302 54.1532 43.7169 56.2556 43.7169Z" fill="black"/>
<path d="M44.6446 43.5787H46.5329V41.7952L47.2241 41.0166L48.9374 43.5787H51.2053L48.5384 39.647L51.1179 36.6808H48.879L46.5329 39.4795V36.6808H44.6446V43.5787Z" fill="black"/>
<path d="M36.4822 48.7375V35.845L23.6378 28.3711L12.6506 34.7962L36.4822 48.7375Z" fill="black"/>
<path d="M23.9844 28.9623L36.6739 21.5829L23.9844 14.2358V28.9623Z" fill="black"/>
<path d="M12.6896 7.41494L0 0V42.2994L12.6896 34.8521V7.41494Z" fill="black"/>
</g>
<defs>
<clipPath id="clip0_2_413">
<rect width="131" height="59" fill="white"/>
</clipPath>
</defs>
</svg>
