<svg width="221" height="82" viewBox="0 0 221 82" fill="none" xmlns="http://www.w3.org/2000/svg">
<g clip-path="url(#clip0_2007_2)">
<path d="M78.4829 55.5071C80.2563 55.5071 81.3238 54.6637 82.3746 52.5967L86.8582 43.7667H83.3932L80.93 49.2069L78.3189 43.7667H74.7715L79.2712 52.3155C78.9263 52.7123 78.5486 52.8115 78.2693 52.8115C78.0061 52.8115 77.6472 52.754 77.2949 52.594L74.9121 53.9795C75.8363 55.1841 77.463 55.5069 78.4829 55.5069V55.5071Z" fill="white"/>
<path d="M163.267 52.6796C161.527 52.6796 160.328 51.2244 160.328 49.5545C160.328 47.8514 161.494 46.4291 163.234 46.4291C164.425 46.4291 165.359 47.0976 165.838 48.0482L168.595 46.4435C167.545 44.6931 165.606 43.5356 163.267 43.5356C159.721 43.5356 157.061 46.2308 157.061 49.5545C157.061 52.911 159.688 55.5732 163.234 55.5732C165.576 55.5732 167.532 54.3981 168.59 52.6431L165.854 51.06C165.388 52.0194 164.465 52.6796 163.267 52.6796Z" fill="white"/>
<path d="M214.124 55.3414H217.31V46.5778H220.759V43.7667H210.676V46.5778H214.124V55.3414Z" fill="white"/>
<path d="M198.543 55.3415H207.87V52.6134H201.696V50.7779H207.214V48.248H201.696V46.4952H207.788V43.7668H198.543V55.3415Z" fill="white"/>
<path d="M188.694 55.3415H191.88V46.5779H195.329V43.7668H185.246V46.5779H188.694V55.3415Z" fill="white"/>
<path d="M171.455 55.3415H174.428L178.878 48.8267V55.3415H182.031V43.7668H179.059L174.608 50.2819V43.7668H171.455V55.3415Z" fill="white"/>
<path d="M147.963 49.5211V46.4622H149.458C150.607 46.4622 151.297 46.9912 151.297 47.9834C151.297 48.9259 150.607 49.5211 149.474 49.5211H147.963ZM144.777 55.3415H147.963V52.0346H149.54C152.397 52.0346 154.483 50.596 154.483 47.8677C154.483 45.2716 152.611 43.7668 149.704 43.7668H144.777V55.3415Z" fill="white"/>
<path d="M132.004 55.3414H141.331V52.6133H135.157V50.7778H140.674V48.2479H135.157V46.495H141.249V43.7667H132.004V55.3414Z" fill="white"/>
<path d="M121.547 48.3802V46.3463H123.616C124.569 46.3463 125.061 46.7101 125.061 47.3385C125.061 48.0496 124.52 48.3802 123.551 48.3802H121.547ZM121.547 52.7621V50.629H123.978C125.045 50.629 125.537 51.0425 125.537 51.6707C125.537 52.3819 124.98 52.7621 124.011 52.7621H121.547ZM118.443 55.3415H124.372C127.115 55.3415 128.724 54.1345 128.724 52.1503C128.724 50.5465 127.837 49.7527 126.441 49.2897C127.459 48.8432 128.214 48.0496 128.214 46.7103C128.214 45.8835 127.936 45.2718 127.476 44.8086C126.803 44.1307 125.785 43.7668 124.339 43.7668H118.443V55.3415Z" fill="white"/>
<path d="M104.012 55.3414H106.984L111.434 48.8266V55.3414H114.587V43.7667H111.615L107.165 50.2818V43.7667H104.012V55.3414Z" fill="white"/>
<path d="M89.6953 55.3414H92.8811V50.9432H96.9702V55.3414H100.156V43.7667H96.9702V48.0992H92.8811V43.7667H89.6953V55.3414Z" fill="white"/>
<path d="M110.403 70.4618C108.662 70.4618 107.463 69.0069 107.463 67.3366C107.463 65.6337 108.629 64.2115 110.37 64.2115C111.561 64.2115 112.495 64.88 112.973 65.8305L115.73 64.2259C114.68 62.4754 112.741 61.318 110.403 61.318C106.855 61.318 104.195 64.0131 104.195 67.3366C104.195 70.6932 106.823 73.3555 110.37 73.3555C112.712 73.3555 114.667 72.1802 115.725 70.4257L112.989 68.8423C112.522 69.8016 111.6 70.4618 110.403 70.4618Z" fill="white"/>
<path d="M180.867 68.5601L182.164 65.2696L183.445 68.5601H180.867ZM175.76 73.1235H179.11L179.931 71.0565H184.365L185.202 73.1235H188.617L183.724 61.4663H180.653L175.76 73.1235Z" fill="white"/>
<path d="M162.363 73.1237H165.55V68.7256H169.638V73.1237H172.824V61.5492H169.638V65.8814H165.55V61.5492H162.363V73.1237Z" fill="white"/>
<path d="M147.932 73.1236H150.904L155.354 66.6089V73.1236H158.507V61.5491H155.535L151.085 68.0639V61.5491H147.932V73.1236Z" fill="white"/>
<path d="M136.49 73.1237H139.676V64.3603H144.767V61.5492H136.49V73.1237Z" fill="white"/>
<path d="M129.449 73.1236H132.635V61.5491H129.449V73.1236Z" fill="white"/>
<path d="M121.582 70.4285V67.7H123.257C124.292 67.7 124.916 68.2291 124.916 69.0392C124.916 69.9489 124.292 70.4285 123.24 70.4285H121.582ZM118.396 73.1236H123.487C126.295 73.1236 128.102 71.6192 128.102 69.1221C128.102 66.5097 126.082 65.1869 123.323 65.1869H121.582V61.5491H118.396V73.1236Z" fill="white"/>
<path d="M94.9372 70.4617C93.1967 70.4617 91.9979 69.0068 91.9979 67.3365C91.9979 65.6336 93.1639 64.2114 94.9044 64.2114C96.6617 64.2114 97.8605 65.6666 97.8605 67.3365C97.8605 69.0395 96.6945 70.4617 94.9372 70.4617ZM94.9044 73.3554C98.4518 73.3554 101.112 70.6603 101.112 67.3365C101.112 63.98 98.4846 61.3179 94.9372 61.3179C91.3905 61.3179 88.7305 64.013 88.7305 67.3365C88.7305 70.6931 91.3577 73.3554 94.9044 73.3554Z" fill="white"/>
<path d="M75.3164 73.1236H78.5022V70.1308L79.6681 68.8244L82.5585 73.1236H86.3845L81.8855 66.5262L86.2372 61.5491H82.4601L78.5022 66.2453V61.5491H75.3164V73.1236Z" fill="white"/>
<path d="M61.5463 81.7798V60.1467L39.8775 47.6057L21.3418 58.3867L61.5463 81.7798Z" fill="white"/>
<path d="M40.2051 47.8433L61.6127 35.461L40.2051 23.1328V47.8433Z" fill="white"/>
<path d="M21.4076 12.442L0 0V70.977L21.4076 58.4806V12.442Z" fill="white"/>
</g>
<defs>
<clipPath id="clip0_2007_2">
<rect width="221" height="82" fill="white"/>
</clipPath>
</defs>
</svg>
