<svg width="125" height="56" viewBox="0 0 125 56" fill="none" xmlns="http://www.w3.org/2000/svg">
<g clip-path="url(#clip0_18_290)">
<path d="M44.3912 31.398C45.3943 31.398 45.9981 30.9209 46.5924 29.7517L49.1284 24.757H47.1685L45.7753 27.8342L44.2984 24.757H42.292L44.8371 29.5926C44.642 29.8171 44.4284 29.8732 44.2704 29.8732C44.1215 29.8732 43.9185 29.8407 43.7193 29.7502L42.3715 30.5339C42.8943 31.2153 43.8143 31.3978 44.3912 31.3978V31.398Z" fill="white"/>
<path d="M92.3456 29.7986C91.3611 29.7986 90.6831 28.9754 90.6831 28.0308C90.6831 27.0674 91.3425 26.2629 92.327 26.2629C93.0005 26.2629 93.5289 26.6411 93.7997 27.1788L95.3588 26.2711C94.7649 25.2809 93.6683 24.6262 92.3456 24.6262C90.3395 24.6262 88.835 26.1507 88.835 28.0308C88.835 29.9295 90.3209 31.4353 92.327 31.4353C93.6516 31.4353 94.7577 30.7706 95.3562 29.7779L93.8084 28.8824C93.5448 29.4251 93.0228 29.7986 92.3456 29.7986Z" fill="white"/>
<path d="M121.111 31.3043H122.912V26.3471H124.863V24.757H119.16V26.3471H121.111V31.3043Z" fill="white"/>
<path d="M112.299 31.3043H117.574V29.7611H114.082V28.7228H117.203V27.2918H114.082V26.3002H117.528V24.757H112.299V31.3043Z" fill="white"/>
<path d="M106.727 31.3043H108.529V26.3471H110.479V24.757H104.776V26.3471H106.727V31.3043Z" fill="white"/>
<path d="M96.9766 31.3043H98.658L101.175 27.6191V31.3043H102.958V24.757H101.277L98.7599 28.4423V24.757H96.9766V31.3043Z" fill="white"/>
<path d="M83.6886 28.0119V26.2816H84.5341C85.1841 26.2816 85.5742 26.5808 85.5742 27.1421C85.5742 27.6752 85.1841 28.0119 84.5432 28.0119H83.6886ZM81.8867 31.3043H83.6886V29.4336H84.5803C86.1966 29.4336 87.3761 28.6199 87.3761 27.0766C87.3761 25.6081 86.3174 24.757 84.6731 24.757H81.8867V31.3043Z" fill="white"/>
<path d="M74.6631 31.3043H79.9388V29.7611H76.4464V28.7228H79.5673V27.2918H76.4464V26.3002H79.8922V24.757H74.6631V31.3043Z" fill="white"/>
<path d="M68.7479 27.3665V26.216H69.9179C70.457 26.216 70.7354 26.4218 70.7354 26.7773C70.7354 27.1795 70.4289 27.3665 69.8812 27.3665H68.7479ZM68.7479 29.8452V28.6386H70.1225C70.7263 28.6386 71.0047 28.8725 71.0047 29.2278C71.0047 29.6301 70.6892 29.8452 70.1411 29.8452H68.7479ZM66.9922 31.3043H70.3456C71.8967 31.3043 72.807 30.6215 72.807 29.4991C72.807 28.5919 72.3054 28.1429 71.5157 27.881C72.0918 27.6284 72.5187 27.1795 72.5187 26.4219C72.5187 25.9543 72.3611 25.6082 72.1009 25.3462C71.7202 24.9628 71.1445 24.757 70.327 24.757H66.9922V31.3043Z" fill="white"/>
<path d="M58.8301 31.3043H60.5111L63.0282 27.6191V31.3043H64.8115V24.757H63.1305L60.6134 28.4423V24.757H58.8301V31.3043Z" fill="white"/>
<path d="M50.7324 31.3043H52.5343V28.8164H54.8472V31.3043H56.6491V24.757H54.8472V27.2076H52.5343V24.757H50.7324V31.3043Z" fill="white"/>
<path d="M62.4456 39.8572C61.4611 39.8572 60.7831 39.0342 60.7831 38.0894C60.7831 37.1262 61.4425 36.3217 62.427 36.3217C63.1005 36.3217 63.6289 36.6998 63.8993 37.2375L65.4584 36.3298C64.8649 35.3396 63.7683 34.6849 62.4456 34.6849C60.4391 34.6849 58.9346 36.2095 58.9346 38.0894C58.9346 39.9881 60.4206 41.494 62.427 41.494C63.7516 41.494 64.8573 40.8292 65.4562 39.8367L63.9084 38.9411C63.6444 39.4837 63.1228 39.8572 62.4456 39.8572Z" fill="white"/>
<path d="M102.301 38.7815L103.034 36.9201L103.759 38.7815H102.301ZM99.4121 41.3628H101.307L101.771 40.1936H104.279L104.753 41.3628H106.684L103.917 34.7688H102.18L99.4121 41.3628Z" fill="white"/>
<path d="M91.834 41.3629H93.6363V38.875H95.9488V41.3629H97.7506V34.8157H95.9488V37.2662H93.6363V34.8157H91.834V41.3629Z" fill="white"/>
<path d="M83.6719 41.3629H85.3529L87.87 37.6778V41.3629H89.6533V34.8157H87.9723L85.4552 38.5008V34.8157H83.6719V41.3629Z" fill="white"/>
<path d="M77.2002 41.3629H79.0021V36.4058H81.8816V34.8157H77.2002V41.3629Z" fill="white"/>
<path d="M73.2178 41.3629H75.0197V34.8157H73.2178V41.3629Z" fill="white"/>
<path d="M68.7687 39.8384V38.295H69.716C70.3013 38.295 70.6543 38.5943 70.6543 39.0525C70.6543 39.5671 70.3013 39.8384 69.7066 39.8384H68.7687ZM66.9668 41.3629H69.846C71.4342 41.3629 72.4562 40.5119 72.4562 39.0994C72.4562 37.6217 71.3138 36.8734 69.7532 36.8734H68.7687V34.8157H66.9668V41.3629Z" fill="white"/>
<path d="M53.6971 39.8572C52.7127 39.8572 52.0346 39.0342 52.0346 38.0894C52.0346 37.1262 52.6941 36.3217 53.6786 36.3217C54.6725 36.3217 55.3505 37.1448 55.3505 38.0894C55.3505 39.0527 54.6911 39.8572 53.6971 39.8572ZM53.6786 41.494C55.685 41.494 57.1896 39.9696 57.1896 38.0894C57.1896 36.1908 55.7036 34.6849 53.6971 34.6849C51.6911 34.6849 50.1865 36.2095 50.1865 38.0894C50.1865 39.9881 51.6725 41.494 53.6786 41.494Z" fill="white"/>
<path d="M42.5996 41.3629H44.4015V39.67L45.061 38.931L46.6958 41.3629H48.8598L46.3151 37.631L48.7765 34.8157H46.6401L44.4015 37.4721V34.8157H42.5996V41.3629Z" fill="white"/>
<path d="M34.8104 46.2592V34.0224L22.5543 26.9285L12.0703 33.0268L34.8104 46.2592Z" fill="white"/>
<path d="M22.7402 27.0629L34.8486 20.0587L22.7402 13.0852V27.0629Z" fill="white"/>
<path d="M12.1084 7.03791L0 0V40.1486L12.1084 33.08V7.03791Z" fill="white"/>
</g>
<defs>
<clipPath id="clip0_18_290">
<rect width="125" height="56" fill="white"/>
</clipPath>
</defs>
</svg>
