<svg xmlns="http://www.w3.org/2000/svg" width="40" height="27" viewBox="0 0 40 27" fill="none"><metadata><rdf:RDF xmlns:rdf="http://www.w3.org/1999/02/22-rdf-syntax-ns#" xmlns:dc="http://purl.org/dc/elements/1.1/"><rdf:Description><dc:creator>RealFaviconGenerator</dc:creator><dc:source>https://realfavicongenerator.net</dc:source></rdf:Description></rdf:RDF></metadata><path d="M39.0564 4.65403C40.3446 7.4842 39.3223 10.9623 36.7935 14.2731C34.4573 17.3318 30.7897 20.3139 26.2598 22.6451C29.892 22.7623 33.0477 22.9773 35.3718 23.2574C36.6713 23.4141 37.7227 23.5923 38.4549 23.7889C38.8184 23.8865 39.1225 23.9936 39.3423 24.1143C39.4518 24.1745 39.5571 24.2469 39.6385 24.3367C39.7111 24.417 39.7768 24.5255 39.7922 24.6588L39.7955 24.7178L39.791 24.7875C39.7695 24.9449 39.6783 25.0661 39.5885 25.1493C39.4852 25.2449 39.3502 25.3233 39.205 25.39C38.9123 25.5246 38.5007 25.6461 37.9983 25.7578C36.9881 25.9824 35.5392 26.1824 33.7642 26.3493C30.2102 26.6836 25.3078 26.8898 19.8979 26.8898C17.0325 26.8898 14.3104 26.8309 11.8559 26.7269C10.3064 26.7912 8.84881 26.7074 7.5224 26.4749C5.3188 26.3061 3.50202 26.0932 2.23031 25.8474C1.59541 25.7247 1.08001 25.5907 0.716825 25.444C0.536913 25.3713 0.374361 25.2879 0.251468 25.1876C0.133064 25.091 5.64269e-05 24.9352 -3.21231e-05 24.7179C-3.02353e-05 24.4915 0.144044 24.3315 0.26804 24.2344C0.398137 24.1327 0.570647 24.0473 0.76364 23.9726C1.03072 23.8691 1.37538 23.7726 1.78577 23.681C1.35694 23.2068 1.00404 22.678 0.738375 22.0942L0.736497 22.0901L0.680584 21.9625L0.679243 21.9596C-0.548168 19.0793 0.568081 15.5529 3.20376 12.215C5.85075 8.86291 10.0857 5.62035 15.2905 3.25144C20.536 0.863972 25.8036 -0.197407 30.0882 0.0300137C34.3545 0.256492 37.7448 1.77274 39.0564 4.65403ZM3.37516 24.9891C3.15267 24.8511 2.94032 24.7044 2.73767 24.5499C2.62977 24.5689 2.52574 24.5878 2.42576 24.6072L2.02247 24.6904C1.98323 24.6991 1.9451 24.7082 1.90789 24.7169C1.94521 24.7256 1.98313 24.7364 2.0225 24.7452C2.40233 24.8296 2.85527 24.9104 3.37516 24.9891ZM19.8979 23.5832C14.5097 23.5832 9.64119 23.789 6.12865 24.1194C5.46204 24.1821 4.84648 24.2493 4.28734 24.3199C5.22173 24.832 6.3513 25.2124 7.64961 25.4443C8.92635 25.5415 10.3382 25.6237 11.855 25.6884C14.8092 25.5605 18.1478 24.8693 21.5694 23.5895C21.0185 23.5851 20.4611 23.5832 19.8979 23.5832ZM5.73005 25.6527C5.62328 25.6182 5.5181 25.5817 5.41404 25.5447L5.39741 25.6191C5.50675 25.6305 5.61766 25.6416 5.73005 25.6527ZM14.6908 26.0784C14.5255 26.1028 14.3609 26.1245 14.1971 26.1459C14.3623 26.1506 14.5284 26.156 14.6954 26.1603L14.6908 26.0784ZM37.773 24.6905C36.8255 24.4799 35.4269 24.2844 33.6668 24.1188C31.1219 23.8794 27.8641 23.7054 24.2117 23.6278C22.0561 24.5886 19.9006 25.3249 17.8151 25.8404C18.4993 25.8473 19.1945 25.8522 19.8982 25.8522C25.2859 25.8522 30.1544 25.6467 33.6669 25.3163C35.4271 25.1508 36.8261 24.9557 37.7736 24.745C37.8128 24.7363 37.8505 24.726 37.8877 24.7173C37.8505 24.7087 37.8122 24.6993 37.773 24.6905ZM23.3096 23.2372L23.3206 23.2927C23.3621 23.275 23.4036 23.2574 23.4451 23.2396C23.4 23.2388 23.3548 23.238 23.3096 23.2372ZM24.8404 22.9283C24.8053 22.9448 24.7701 22.9613 24.7348 22.9777C24.7737 22.9787 24.8125 22.9793 24.8512 22.9802L24.8404 22.9283ZM15.7203 4.19573C10.5949 6.52851 6.47935 9.70953 3.95916 12.9336C1.41482 16.1879 0.612285 19.313 1.68267 21.6644C1.98918 22.3382 2.44418 22.9335 3.03148 23.4491C6.4725 22.9067 12.7458 22.5457 19.8982 22.5457C21.305 22.5457 22.6777 22.5595 24.0008 22.586L24.0754 22.5528L24.5524 22.3314C29.456 20.021 33.3946 16.9383 35.8365 13.815C38.3804 10.5607 39.1822 7.43521 38.1121 5.08381C37.0416 2.73251 34.1581 1.28453 30.033 1.06555C25.9466 0.84868 20.8455 1.86305 15.7203 4.19573Z" fill="white"></path><style>@media (prefers-color-scheme: light) { :root { filter: contrast(1) brightness(0.1); } }
@media (prefers-color-scheme: dark) { :root { filter: none; } }
</style></svg>