<svg width="1441" height="774" viewBox="0 0 1441 774" fill="none" xmlns="http://www.w3.org/2000/svg">
<path d="M1440.75 375.245C1440.75 478.726 1360.21 572.472 1229.85 640.362C1099.51 708.246 919.429 750.241 720.5 750.241C521.571 750.241 341.488 708.246 211.146 640.362C80.7909 572.472 0.25 478.726 0.25 375.245C0.250143 271.764 80.791 178.019 211.146 110.129C341.488 42.245 521.571 0.25 720.5 0.25C919.429 0.25 1099.51 42.245 1229.85 110.129C1360.21 178.019 1440.75 271.764 1440.75 375.245Z" fill="white" stroke="black" stroke-width="0.5"/>
<path d="M1440.75 486.04C1440.75 528.814 1420.63 569.583 1384.2 606.688C1347.77 643.793 1295.04 677.219 1229.87 705.297C1099.52 761.452 919.435 796.192 720.5 796.192C521.565 796.192 341.476 761.452 211.129 705.297C145.955 677.219 93.2282 643.793 56.7988 606.688C20.3705 569.583 0.25 528.814 0.25 486.04C0.25 443.267 20.3705 402.497 56.7988 365.393C93.2282 328.287 145.955 294.861 211.129 266.783C341.476 210.628 521.565 175.889 720.5 175.889C919.435 175.889 1099.52 210.628 1229.87 266.783C1295.04 294.861 1347.77 328.287 1384.2 365.393C1420.63 402.497 1440.75 443.267 1440.75 486.04Z" fill="white" stroke="black" stroke-width="0.5"/>
<path d="M1440.75 585.86C1440.75 614.811 1420.67 642.445 1384.24 667.622C1347.81 692.795 1295.08 715.474 1229.9 734.525C1099.54 772.624 919.444 796.193 720.5 796.193C521.556 796.193 341.456 772.624 211.1 734.525C145.92 715.474 93.191 692.795 56.7627 667.622C20.3269 642.445 0.250212 614.811 0.25 585.86C0.25 556.908 20.3267 529.274 56.7627 504.096C93.191 478.924 145.92 456.244 211.1 437.194C341.456 399.094 521.556 375.526 720.5 375.526C919.444 375.526 1099.54 399.094 1229.9 437.194C1295.08 456.244 1347.81 478.924 1384.24 504.096C1420.67 529.274 1440.75 556.908 1440.75 585.86Z" fill="white" stroke="black" stroke-width="0.5"/>
<path d="M1440.75 681.697C1440.75 689.504 1435.78 697.173 1426.21 704.624C1416.64 712.072 1402.51 719.267 1384.29 726.127C1347.85 739.847 1295.12 752.207 1229.93 762.588C1099.56 783.351 919.451 796.194 720.5 796.194C521.549 796.194 341.438 783.351 211.069 762.588C145.883 752.207 93.145 739.847 56.709 726.127C38.4897 719.267 24.3611 712.072 14.792 704.624C5.21849 697.173 0.250165 689.504 0.25 681.697C0.25 673.889 5.21833 666.219 14.792 658.768C24.3611 651.32 38.4897 644.125 56.709 637.265C93.145 623.545 145.883 611.186 211.069 600.804C341.438 580.041 521.549 567.198 720.5 567.198C919.451 567.198 1099.56 580.041 1229.93 600.804C1295.12 611.186 1347.85 623.545 1384.29 637.265C1402.51 644.125 1416.64 651.32 1426.21 658.768C1435.78 666.219 1440.75 673.889 1440.75 681.697Z" fill="white" stroke="black" stroke-width="0.5"/>
<path d="M1440.75 753.088C1440.75 754.438 1439.61 755.852 1437.15 757.306C1434.72 758.747 1431.08 760.176 1426.29 761.585C1416.71 764.402 1402.57 767.123 1384.34 769.716C1347.9 774.901 1295.15 779.571 1229.96 783.494C1099.58 791.339 919.457 796.192 720.5 796.192C521.543 796.192 341.423 791.339 211.045 783.494C145.855 779.571 93.1045 774.901 56.6553 769.716C38.4293 767.123 24.2889 764.402 14.709 761.585C9.91734 760.176 6.28082 758.747 3.84766 757.306C1.39459 755.852 0.250097 754.438 0.25 753.088C0.25 751.738 1.39448 750.324 3.84766 748.87C6.28082 747.428 9.91724 745.999 14.709 744.59C24.2889 741.773 38.4295 739.053 56.6553 736.46C93.1045 731.275 145.855 726.603 211.045 722.681C341.423 714.835 521.543 709.983 720.5 709.983C919.457 709.983 1099.58 714.835 1229.96 722.681C1295.15 726.603 1347.9 731.275 1384.34 736.46C1402.57 739.053 1416.71 741.773 1426.29 744.59C1431.08 745.999 1434.72 747.428 1437.15 748.87C1439.61 750.324 1440.75 751.738 1440.75 753.088Z" fill="white" stroke="black" stroke-width="0.5"/>
<path d="M1440.75 773.467C1440.75 773.724 1440.54 774.053 1439.93 774.438C1439.33 774.812 1438.43 775.193 1437.21 775.577C1434.76 776.344 1431.12 777.103 1426.32 777.85C1416.74 779.344 1402.59 780.786 1384.36 782.16C1347.91 784.909 1295.15 787.384 1229.96 789.463C1099.58 793.621 919.459 796.193 720.5 796.193C521.541 796.193 341.419 793.621 211.037 789.463C145.846 787.384 93.0934 784.909 56.6396 782.16C38.4118 780.786 24.2644 779.344 14.6768 777.85C9.8813 777.103 6.23645 776.344 3.79492 775.577C2.57235 775.193 1.66581 774.812 1.07031 774.438C0.459344 774.053 0.25022 773.724 0.25 773.467C0.25 773.21 0.459305 772.881 1.07031 772.496C1.66581 772.122 2.57235 771.74 3.79492 771.356C6.23645 770.589 9.88133 769.831 14.6768 769.083C24.2644 767.589 38.4118 766.147 56.6396 764.773C93.0934 762.024 145.846 759.549 211.037 757.47C341.419 753.312 521.541 750.74 720.5 750.74C919.459 750.74 1099.58 753.312 1229.96 757.47C1295.15 759.549 1347.91 762.024 1384.36 764.773C1402.59 766.147 1416.74 767.589 1426.32 769.083C1431.12 769.831 1434.76 770.589 1437.21 771.356C1438.43 771.74 1439.33 772.122 1439.93 772.496C1440.54 772.881 1440.75 773.21 1440.75 773.467Z" fill="white" stroke="black" stroke-width="0.5"/>
</svg>
