<svg width="972" height="747" viewBox="0 0 972 747" fill="none" xmlns="http://www.w3.org/2000/svg">
<path d="M971.31 253C971.31 322.724 917.041 385.908 829.162 431.677C741.296 477.439 619.892 505.75 485.78 505.75C351.668 505.75 230.264 477.439 142.397 431.677C54.5188 385.908 0.25 322.724 0.25 253C0.250079 183.276 54.5189 120.092 142.397 74.3242C230.264 28.5623 351.668 0.25 485.78 0.25C619.893 0.250064 741.296 28.5624 829.162 74.3242C917.041 120.092 971.309 183.276 971.31 253Z" fill="black" stroke="white" stroke-width="0.5"/>
<path d="M971.31 327.702C971.31 356.513 957.757 383.982 933.206 408.989C908.654 433.996 873.114 456.528 829.179 475.457C741.308 513.312 619.899 536.733 485.78 536.733C351.662 536.733 230.252 513.312 142.381 475.457C98.4452 456.528 62.9054 433.996 38.3535 408.989C13.8027 383.982 0.25 356.513 0.25 327.702C0.250115 298.89 13.8028 271.422 38.3535 246.416C62.9054 221.408 98.4451 198.876 142.381 179.948C230.252 142.092 351.662 118.671 485.78 118.671C619.899 118.671 741.308 142.092 829.179 179.948C873.114 198.876 908.654 221.408 933.206 246.416C957.757 271.422 971.309 298.89 971.31 327.702Z" fill="black" stroke="white" stroke-width="0.5"/>
<path d="M971.31 395.001C971.31 414.481 957.801 433.092 933.242 450.062C908.691 467.027 873.15 482.315 829.208 495.158C741.328 520.843 619.908 536.733 485.78 536.733C351.653 536.733 230.232 520.843 142.352 495.158C98.4101 482.315 62.8682 467.027 38.3174 450.062C13.7589 433.092 0.25 414.481 0.25 395.001C0.250183 375.522 13.759 356.912 38.3174 339.942C62.8682 322.977 98.41 307.689 142.352 294.846C230.232 269.161 351.653 253.271 485.78 253.271C619.908 253.271 741.328 269.161 829.208 294.846C873.15 307.689 908.691 322.977 933.242 339.942C957.801 356.912 971.309 375.522 971.31 395.001Z" fill="black" stroke="white" stroke-width="0.5"/>
<path d="M971.31 459.617C971.309 464.844 967.984 469.994 961.537 475.012C955.095 480.026 945.577 484.873 933.297 489.497C908.738 498.744 873.186 507.077 829.238 514.076C741.346 528.074 619.915 536.732 485.78 536.732C351.645 536.732 230.214 528.074 142.321 514.076C98.3732 507.077 62.8213 498.744 38.2627 489.497C25.9822 484.873 16.4648 480.026 10.0225 475.012C3.57574 469.994 0.250155 464.844 0.25 459.617C0.25 454.39 3.57582 449.24 10.0225 444.223C16.4648 439.209 25.9822 434.36 38.2627 429.736C62.8213 420.489 98.3732 412.157 142.321 405.158C230.214 391.16 351.645 382.501 485.78 382.501C619.915 382.501 741.346 391.16 829.238 405.158C873.186 412.157 908.738 420.489 933.297 429.736C945.577 434.36 955.095 439.209 961.537 444.223C967.984 449.24 971.31 454.39 971.31 459.617Z" fill="black" stroke="white" stroke-width="0.5"/>
<path d="M971.31 507.752C971.31 508.614 970.576 509.547 968.924 510.525C967.292 511.492 964.848 512.454 961.62 513.403C955.167 515.301 945.637 517.135 933.35 518.883C908.778 522.378 873.215 525.527 829.263 528.172C741.36 533.461 619.921 536.732 485.78 536.732C351.639 536.732 230.199 533.461 142.297 528.172C98.3447 525.527 62.7817 522.378 38.21 518.883C25.9225 517.135 16.3928 515.301 9.93945 513.403C6.71111 512.454 4.2675 511.492 2.63574 510.525C0.983904 509.547 0.25 508.614 0.25 507.752C0.250078 506.89 0.983992 505.957 2.63574 504.979C4.26751 504.012 6.71116 503.05 9.93945 502.101C16.3927 500.203 25.9225 498.37 38.21 496.622C62.7817 493.126 98.3447 489.977 142.297 487.332C230.199 482.043 351.639 478.771 485.78 478.771C619.921 478.771 741.36 482.043 829.263 487.332C873.215 489.977 908.778 493.126 933.35 496.622C945.637 498.37 955.167 500.203 961.62 502.101C964.848 503.05 967.292 504.012 968.924 504.979C970.576 505.957 971.309 506.89 971.31 507.752Z" fill="black" stroke="white" stroke-width="0.5"/>
<path d="M971.31 521.492C971.31 521.619 971.202 521.821 970.794 522.078C970.401 522.325 969.798 522.579 968.977 522.837C967.336 523.352 964.883 523.863 961.651 524.367C955.19 525.374 945.655 526.345 933.366 527.272C908.79 529.125 873.223 530.794 829.27 532.196C741.364 534.999 619.922 536.733 485.78 536.733C351.638 536.733 230.195 534.999 142.29 532.196C98.3368 530.794 62.7697 529.125 38.1934 527.272C25.9046 526.345 16.3691 525.374 9.9082 524.367C6.67606 523.863 4.2232 523.352 2.58301 522.837C1.76142 522.579 1.15834 522.325 0.765625 522.078C0.357174 521.821 0.250051 521.619 0.25 521.492C0.25 521.364 0.357077 521.163 0.765625 520.906C1.15834 520.659 1.76137 520.404 2.58301 520.146C4.2232 519.631 6.67603 519.12 9.9082 518.617C16.3691 517.61 25.9046 516.638 38.1934 515.711C62.7697 513.859 98.3368 512.189 142.29 510.788C230.195 507.984 351.638 506.25 485.78 506.25C619.922 506.25 741.364 507.984 829.27 510.788C873.223 512.189 908.79 513.859 933.366 515.711C945.655 516.638 955.19 517.61 961.651 518.617C964.884 519.12 967.336 519.631 968.977 520.146C969.798 520.404 970.401 520.659 970.794 520.906C971.202 521.163 971.31 521.364 971.31 521.492Z" fill="black" stroke="white" stroke-width="0.5"/>
<path d="M971.312 747.023C971.311 720.604 957.766 695.41 933.216 672.467C908.665 649.524 873.125 628.851 829.188 611.485C741.316 576.752 619.903 555.264 485.782 555.264C351.661 555.264 230.249 576.752 142.376 611.485C98.4388 628.851 62.8987 649.524 38.3477 672.467C13.7971 695.41 0.252094 720.604 0.251953 747.023C0.251953 773.442 13.797 798.637 38.3477 821.58C62.8987 844.523 98.4388 865.195 142.376 882.562C230.249 917.295 351.661 938.783 485.782 938.783C619.903 938.783 741.316 917.295 829.188 882.562C873.125 865.195 908.665 844.522 933.216 821.58C957.767 798.637 971.312 773.442 971.312 747.023Z" fill="black" stroke="white" stroke-width="0.5"/>
<path d="M971.312 690.33C971.312 668.512 957.787 647.685 933.233 628.704C908.683 609.726 873.142 592.624 829.202 578.258C741.325 549.526 619.907 531.751 485.782 531.751C351.657 531.751 230.239 549.526 142.361 578.258C98.4212 592.624 62.8806 609.726 38.3301 628.704C13.7762 647.685 0.251953 668.512 0.251953 690.33C0.252041 712.148 13.7763 732.976 38.3301 751.956C62.8806 770.934 98.4214 788.035 142.361 802.401C230.239 831.134 351.657 848.909 485.782 848.909C619.907 848.909 741.325 831.134 829.202 802.401C873.142 788.035 908.683 770.934 933.233 751.956C957.787 732.976 971.311 712.148 971.312 690.33Z" fill="black" stroke="white" stroke-width="0.5"/>
<path d="M971.312 639.254C971.311 631.897 967.952 624.692 961.509 617.708C955.064 610.722 945.548 603.972 933.271 597.533C908.717 584.657 873.171 573.052 829.226 563.305C741.339 543.81 619.914 531.751 485.782 531.751C351.651 531.751 230.224 543.81 142.338 563.305C98.3927 573.052 62.8465 584.657 38.293 597.533C26.016 603.972 16.4991 610.722 10.0547 617.708C3.61181 624.692 0.252074 631.897 0.251953 639.254C0.251953 646.611 3.61164 653.817 10.0547 660.801C16.4991 667.786 26.016 674.537 38.293 680.976C62.8465 693.852 98.3927 705.455 142.338 715.203C230.224 734.698 351.65 746.758 485.782 746.758C619.914 746.758 741.339 734.698 829.226 715.203C873.171 705.455 908.717 693.852 933.271 680.976C945.548 674.537 955.064 667.786 961.509 660.801C967.952 653.817 971.312 646.611 971.312 639.254Z" fill="black" stroke="white" stroke-width="0.5"/>
<path d="M971.312 590.216C971.312 586.309 968.029 582.416 961.565 578.598C955.122 574.792 945.601 571.112 933.317 567.602C908.754 560.583 873.2 554.258 829.25 548.946C741.354 538.322 619.92 531.751 485.782 531.75C351.645 531.75 230.21 538.322 142.313 548.946C98.3639 554.258 62.809 560.583 38.2461 567.602C25.9627 571.112 16.4419 574.792 9.99805 578.598C3.53484 582.416 0.251953 586.309 0.251953 590.216C0.252177 594.123 3.53511 598.016 9.99805 601.833C16.4419 605.64 25.9627 609.32 38.2461 612.831C62.809 619.85 98.364 626.174 142.313 631.486C230.21 642.11 351.645 648.681 485.782 648.681C619.92 648.681 741.354 642.11 829.25 631.486C873.199 626.174 908.754 619.85 933.317 612.831C945.601 609.32 955.122 605.64 961.565 601.833C968.028 598.016 971.311 594.123 971.312 590.216Z" fill="black" stroke="white" stroke-width="0.5"/>
<path d="M971.312 553.685C971.312 553.402 971.155 553.083 970.762 552.729C970.37 552.376 969.77 552.012 968.951 551.644C967.316 550.909 964.868 550.178 961.638 549.458C955.181 548.017 945.648 546.625 933.359 545.298C908.785 542.645 873.221 540.255 829.269 538.248C741.365 534.233 619.924 531.75 485.782 531.75C351.64 531.75 230.199 534.233 142.295 538.248C98.3424 540.255 62.7782 542.645 38.2041 545.298C25.9157 546.625 16.3828 548.017 9.92578 549.458C6.69527 550.178 4.24736 550.909 2.6123 551.644C1.79395 552.012 1.19392 552.376 0.801758 552.729C0.408575 553.083 0.251953 553.402 0.251953 553.685C0.252094 553.968 0.408764 554.286 0.801758 554.64C1.19391 554.993 1.79393 555.357 2.6123 555.725C4.24736 556.46 6.69527 557.191 9.92578 557.912C16.3828 559.353 25.9157 560.744 38.2041 562.071C62.7782 564.724 98.3424 567.114 142.295 569.122C230.199 573.136 351.64 575.619 485.782 575.619C619.924 575.619 741.365 573.136 829.269 569.122C873.221 567.114 908.785 564.724 933.359 562.071C945.648 560.744 955.181 559.353 961.638 557.912C964.868 557.191 967.316 556.46 968.951 555.725C969.77 555.357 970.37 554.993 970.762 554.64C971.155 554.286 971.311 553.968 971.312 553.685Z" fill="black" stroke="white" stroke-width="0.5"/>
<path d="M971.312 543.257C971.311 543.249 971.308 543.209 971.23 543.135C971.152 543.06 971.02 542.973 970.821 542.878C970.426 542.69 969.819 542.495 968.995 542.298C967.351 541.907 964.896 541.519 961.663 541.136C955.2 540.372 945.662 539.634 933.372 538.931C908.794 537.525 873.227 536.258 829.273 535.194C741.367 533.066 619.925 531.75 485.782 531.75C351.639 531.75 230.196 533.066 142.29 535.194C98.3366 536.258 62.7691 537.525 38.1914 538.931C25.9018 539.634 16.3637 540.372 9.90039 541.136C6.66769 541.519 4.21223 541.907 2.56836 542.298C1.74452 542.495 1.13781 542.69 0.742188 542.878C0.543666 542.973 0.411441 543.06 0.333008 543.135C0.25547 543.209 0.251997 543.249 0.251953 543.257C0.251953 543.265 0.2546 543.305 0.333008 543.38C0.411441 543.455 0.543666 543.542 0.742188 543.637C1.13781 543.826 1.74469 544.02 2.56836 544.216C4.21222 544.608 6.66766 544.996 9.90039 545.378C16.3637 546.143 25.9018 546.881 38.1914 547.584C62.7691 548.991 98.3366 550.257 142.29 551.321C230.196 553.448 351.639 554.764 485.782 554.764C619.925 554.764 741.367 553.448 829.273 551.321C873.227 550.257 908.794 548.991 933.372 547.584C945.662 546.881 955.2 546.143 961.663 545.378C964.896 544.996 967.351 544.608 968.995 544.216C969.819 544.02 970.426 543.826 970.821 543.637C971.02 543.542 971.152 543.455 971.23 543.38C971.309 543.305 971.312 543.265 971.312 543.257Z" fill="black" stroke="white" stroke-width="0.5"/>
</svg>
