<svg width="675" height="20" viewBox="0 0 675 20" fill="none" xmlns="http://www.w3.org/2000/svg">
<path d="M673.408 9.90625C673.169 10.0436 672.78 10.1969 672.218 10.3584C671.101 10.6792 669.417 11.0011 667.178 11.3203C662.706 11.9578 656.099 12.5741 647.574 13.1621C630.529 14.3378 605.857 15.3965 575.362 16.2861C514.375 18.0654 430.118 19.166 337.048 19.166C243.978 19.166 159.721 18.0654 98.7334 16.2861C68.239 15.3965 43.5671 14.3378 26.5215 13.1621C17.9968 12.5741 11.3893 11.9578 6.91801 11.3203C4.67908 11.0011 2.99461 10.6792 1.87797 10.3584C1.31585 10.1969 0.926275 10.0437 0.68754 9.90625C0.64169 9.87986 0.606395 9.85386 0.577189 9.83301C0.606309 9.81223 0.641897 9.78703 0.68754 9.76074C0.926248 9.62336 1.31595 9.47006 1.87797 9.30859C2.9946 8.98782 4.67913 8.66588 6.91801 8.34668C11.3893 7.7092 17.9968 7.09288 26.5215 6.50488C43.5671 5.32916 68.2389 4.26954 98.7334 3.37988C159.721 1.60062 243.978 0.5 337.048 0.5C430.118 0.5 514.375 1.60062 575.362 3.37988C605.857 4.26954 630.529 5.32915 647.574 6.50488C656.099 7.09288 662.706 7.7092 667.178 8.34668C669.417 8.66588 671.101 8.98782 672.218 9.30859C672.78 9.47005 673.17 9.62336 673.408 9.76074C673.454 9.78722 673.49 9.81212 673.52 9.83301C673.49 9.85397 673.454 9.87966 673.408 9.90625Z" stroke="black"/>
</svg>
