<svg width="330" height="377" viewBox="0 0 330 377" fill="none" xmlns="http://www.w3.org/2000/svg">
<path d="M329.241 9.83301C329.241 9.87849 329.187 10.0852 328.64 10.4082C328.134 10.7072 327.349 11.0191 326.272 11.335C324.125 11.9647 320.935 12.5787 316.797 13.166C308.527 14.3396 296.546 15.3977 281.727 16.2871C252.094 18.0658 211.148 19.166 165.916 19.166C120.684 19.166 79.7379 18.0658 50.1042 16.2871C35.2854 15.3977 23.3048 14.3396 15.0349 13.166C10.8965 12.5787 7.70628 11.9647 5.55927 11.335C4.48239 11.0191 3.69716 10.7072 3.19111 10.4082C2.6446 10.0852 2.59052 9.87849 2.59052 9.83301C2.59062 9.78727 2.64509 9.58052 3.19111 9.25781C3.69718 8.9588 4.48243 8.64693 5.55927 8.33105C7.70626 7.7013 10.8965 7.08824 15.0349 6.50098C23.3048 5.3274 35.2854 4.26836 50.1042 3.37891C79.7379 1.60024 120.684 0.5 165.916 0.5C211.148 0.5 252.094 1.60024 281.727 3.37891C296.546 4.26836 308.527 5.3274 316.797 6.50098C320.935 7.08824 324.125 7.7013 326.272 8.33105C327.349 8.64693 328.134 8.9588 328.64 9.25781C329.186 9.58052 329.241 9.78727 329.241 9.83301Z" fill="white" stroke="white"/>
<path d="M5.00679e-06 9.83325C5.00679e-06 11.306 1.19391 12.4999 2.66667 12.4999C4.13943 12.4999 5.33334 11.306 5.33334 9.83325C5.33334 8.36049 4.13943 7.16659 2.66667 7.16659C1.19391 7.16659 5.00679e-06 8.36049 5.00679e-06 9.83325ZM212.776 90.4113C212.776 91.8841 213.97 93.078 215.443 93.078C216.916 93.078 218.11 91.8841 218.11 90.4113C218.11 88.9385 216.916 87.7446 215.443 87.7446C213.97 87.7446 212.776 88.9385 212.776 90.4113ZM212.776 233.941C212.776 235.414 213.97 236.608 215.443 236.608C216.916 236.608 218.11 235.414 218.11 233.941C218.11 232.468 216.916 231.274 215.443 231.274C213.97 231.274 212.776 232.468 212.776 233.941ZM2.66667 373.693H2.16667V374.193H2.66667V373.693ZM212.776 373.693C212.776 375.166 213.97 376.36 215.443 376.36C216.916 376.36 218.11 375.166 218.11 373.693C218.11 372.221 216.916 371.027 215.443 371.027C213.97 371.027 212.776 372.221 212.776 373.693ZM2.66667 9.83325H2.16667V90.4113H2.66667H3.16667V9.83325H2.66667ZM2.66667 90.4113V90.9113H215.443V90.4113V89.9113H2.66667V90.4113ZM2.66667 90.4113H2.16667V233.941H2.66667H3.16667V90.4113H2.66667ZM2.66667 233.941V234.441H215.443V233.941V233.441H2.66667V233.941ZM2.66667 233.941H2.16667V373.693H2.66667H3.16667V233.941H2.66667ZM2.66667 373.693V374.193H215.443V373.693V373.193H2.66667V373.693Z" fill="white"/>
</svg>
