<svg width="216" height="464" viewBox="0 0 216 464" fill="none" xmlns="http://www.w3.org/2000/svg">
<path d="M135.084 2.66663C135.084 4.13939 136.278 5.33329 137.751 5.33329C139.224 5.33329 140.418 4.13939 140.418 2.66663C140.418 1.19387 139.224 -4.07696e-05 137.751 -4.07696e-05C136.278 -4.07696e-05 135.084 1.19387 135.084 2.66663ZM0.5 82.5659L0.248449 82.1338L0 82.2785V82.5659H0.5ZM210.61 82.5659C210.61 84.0387 211.803 85.2326 213.276 85.2326C214.749 85.2326 215.943 84.0387 215.943 82.5659C215.943 81.0932 214.749 79.8993 213.276 79.8993C211.803 79.8993 210.61 81.0932 210.61 82.5659ZM210.61 226.096C210.61 227.568 211.803 228.762 213.276 228.762C214.749 228.762 215.943 227.568 215.943 226.096C215.943 224.623 214.749 223.429 213.276 223.429C211.803 223.429 210.61 224.623 210.61 226.096ZM210.61 365.848C210.61 367.321 211.803 368.515 213.276 368.515C214.749 368.515 215.943 367.321 215.943 365.848C215.943 364.375 214.749 363.181 213.276 363.181C211.803 363.181 210.61 364.375 210.61 365.848ZM0.5 461.131H0V461.631H0.5V461.131ZM210.61 461.131C210.61 462.604 211.803 463.798 213.276 463.798C214.749 463.798 215.943 462.604 215.943 461.131C215.943 459.659 214.749 458.465 213.276 458.465C211.803 458.465 210.61 459.659 210.61 461.131ZM137.751 2.66663L137.499 2.23451L0.248449 82.1338L0.5 82.5659L0.751551 82.998L138.002 3.09874L137.751 2.66663ZM0.5 82.5659V83.0659H213.276V82.5659V82.0659H0.5V82.5659ZM0.5 82.5659H0V226.096H0.5H1V82.5659H0.5ZM0.5 226.096V226.596H213.276V226.096V225.596H0.5V226.096ZM0.5 226.096H0V365.848H0.5H1V226.096H0.5ZM0.5 365.848V366.348H213.276V365.848V365.348H0.5V365.848ZM0.5 365.848H0V461.131H0.5H1V365.848H0.5ZM0.5 461.131V461.631H213.276V461.131V460.631H0.5V461.131Z" fill="black"/>
</svg>
