<svg width="1396" height="628" viewBox="0 0 1396 628" fill="none" xmlns="http://www.w3.org/2000/svg">
<path d="M436.462 470.582C436.453 470.6 436.427 470.644 436.349 470.714C436.215 470.832 435.985 470.975 435.634 471.131C434.934 471.441 433.864 471.757 432.419 472.075C429.536 472.709 425.265 473.324 419.742 473.912C408.702 475.087 392.716 476.146 372.95 477.036C333.422 478.815 278.81 479.915 218.482 479.915C158.155 479.915 103.543 478.815 64.0147 477.036C44.2494 476.146 28.2633 475.087 17.2227 473.912C11.6996 473.324 7.42869 472.709 4.54592 472.075C3.1007 471.757 2.02956 471.441 1.3301 471.131C0.978546 470.975 0.74977 470.832 0.616237 470.714C0.53869 470.645 0.512684 470.601 0.503932 470.582C0.512788 470.563 0.538874 470.519 0.616237 470.45C0.749736 470.331 0.978699 470.19 1.3301 470.034C2.02956 469.724 3.10067 469.407 4.54592 469.089C7.42869 468.455 11.6996 467.839 17.2227 467.252C28.2633 466.077 44.2494 465.018 64.0147 464.129C103.543 462.35 158.155 461.249 218.482 461.249C278.81 461.249 333.422 462.35 372.95 464.129C392.715 465.018 408.702 466.077 419.742 467.252C425.265 467.839 429.536 468.455 432.419 469.089C433.864 469.406 434.934 469.724 435.634 470.034C435.985 470.19 436.215 470.331 436.349 470.45C436.427 470.519 436.453 470.563 436.462 470.582Z" fill="white" stroke="white"/>
<path d="M415.945 471.656L1406.1 0.451416M415.945 471.656L1420.63 274.456M415.945 471.656H1420.63M415.945 471.656L1451.77 670.933" stroke="white"/>
</svg>
