<svg width="1441" height="713" viewBox="0 0 1441 713" fill="none" xmlns="http://www.w3.org/2000/svg">
<path d="M1485.58 408.77C1485.58 521.508 1397.84 623.635 1255.83 697.592C1113.84 771.543 917.664 817.29 700.96 817.29C484.256 817.29 288.08 771.542 146.089 697.592C4.08572 623.635 -83.6592 521.508 -83.6592 408.77C-83.659 296.031 4.08574 193.904 146.089 119.947C288.08 45.9966 484.256 0.250043 700.96 0.25C917.664 0.25 1113.84 45.9965 1255.83 119.947C1397.84 193.904 1485.58 296.031 1485.58 408.77Z" fill="black" stroke="white" stroke-width="0.5"/>
<path d="M1485.58 529.465C1485.58 576.068 1463.66 620.485 1423.97 660.907C1384.29 701.33 1326.85 737.745 1255.85 768.332C1113.85 829.505 917.67 867.348 700.96 867.348C484.25 867.348 288.068 829.505 146.072 768.332C75.0743 737.745 17.6349 701.33 -22.0518 660.907C-61.7373 620.485 -83.6592 576.068 -83.6592 529.465C-83.6592 482.863 -61.7373 438.446 -22.0518 398.024C17.6349 357.601 75.0743 321.186 146.072 290.599C288.068 229.426 484.25 191.583 700.96 191.583C917.67 191.583 1113.85 229.426 1255.85 290.599C1326.85 321.186 1384.29 357.601 1423.97 398.024C1463.66 438.446 1485.58 482.863 1485.58 529.465Z" fill="black" stroke="white" stroke-width="0.5"/>
<path d="M1485.58 638.201C1485.58 669.75 1463.7 699.859 1424.01 727.287C1384.32 754.71 1326.88 779.416 1255.88 800.169C1113.87 841.673 917.679 867.348 700.96 867.348C484.241 867.348 288.049 841.673 146.044 800.169C75.0398 779.416 17.5968 754.71 -22.0889 727.287C-61.7819 699.859 -83.659 669.75 -83.6592 638.201C-83.6592 606.652 -61.7819 576.544 -22.0889 549.115C17.5968 521.692 75.0398 496.985 146.044 476.232C288.049 434.728 484.241 409.054 700.96 409.054C917.679 409.054 1113.87 434.728 1255.88 476.232C1326.88 496.985 1384.32 521.692 1424.01 549.115C1463.7 576.544 1485.58 606.652 1485.58 638.201Z" fill="black" stroke="white" stroke-width="0.5"/>
<path d="M1485.58 742.598C1485.58 751.113 1480.16 759.475 1469.73 767.593C1459.3 775.708 1443.91 783.547 1424.06 791.02C1384.37 805.966 1326.92 819.431 1255.91 830.74C1113.89 853.357 917.687 867.348 700.96 867.348C484.233 867.348 288.03 853.358 146.013 830.74C75.0023 819.431 17.5507 805.966 -22.1426 791.02C-41.9906 783.547 -57.384 775.708 -67.8105 767.593C-78.2417 759.475 -83.6592 751.113 -83.6592 742.598C-83.6591 734.083 -78.2414 725.722 -67.8105 717.604C-57.384 709.489 -41.9905 701.651 -22.1426 694.177C17.5507 679.231 75.0023 665.767 146.013 654.458C288.03 631.84 484.233 617.849 700.96 617.849C917.687 617.849 1113.89 631.84 1255.91 654.458C1326.92 665.767 1384.37 679.231 1424.06 694.177C1443.91 701.651 1459.3 709.489 1469.73 717.604C1480.16 725.722 1485.58 734.083 1485.58 742.598Z" fill="black" stroke="white" stroke-width="0.5"/>
</svg>
