<svg xmlns="http://www.w3.org/2000/svg" width="1198" height="765" fill="none"><path stroke="#000" d="M814.076 555.478V0m0 555.478L271.999 380.763m542.077 174.715-814 123.994m814-123.994v123.994m0-123.994 383.314-442.605M814.076 555.478h383.314"/><path fill="#000" d="M834.652 20V8h10.133v12h-2.726v-9.68h-4.704V20zm17.396.234q-1.758 0-3.047-.773a5.25 5.25 0 0 1-2-2.164q-.703-1.39-.703-3.25t.703-3.258q.71-1.398 2-2.172 1.289-.773 3.047-.773 1.757 0 3.047.773 1.289.774 1.992 2.172.711 1.398.711 3.258t-.711 3.25a5.2 5.2 0 0 1-1.992 2.164q-1.29.774-3.047.773m.015-2.265q.954 0 1.594-.524.64-.531.953-1.422.321-.89.321-1.984 0-1.101-.321-1.992-.312-.9-.953-1.43-.64-.531-1.594-.531-.976 0-1.625.531-.64.53-.961 1.43-.312.891-.312 1.992 0 1.094.312 1.984.32.891.961 1.422.649.524 1.625.524m14.161-1.258L869.787 8h2.281l-4.851 12h-1.977l-4.742-12h2.258zM862.045 8v12h-2.727V8zm8.476 12V8h2.703v12zm9.909.234q-1.757 0-3.047-.773a5.26 5.26 0 0 1-2-2.164q-.702-1.39-.703-3.25 0-1.86.703-3.258.711-1.398 2-2.172 1.29-.773 3.047-.773t3.047.773 1.992 2.172q.711 1.398.711 3.258t-.711 3.25a5.2 5.2 0 0 1-1.992 2.164q-1.289.774-3.047.773m.016-2.265q.953 0 1.594-.524.64-.531.953-1.422.32-.89.32-1.984 0-1.101-.32-1.992-.313-.9-.953-1.43-.641-.531-1.594-.531-.977 0-1.625.531-.64.53-.961 1.43-.312.891-.312 1.992 0 1.094.312 1.984.32.891.961 1.422.648.524 1.625.524m25.278-.29-.234 5.759h-2.664V20h-1.414v-2.32zM887.701 8h2.726v9.672h3.774V8h2.726v9.672h3.774V8h2.726v12h-15.726zm21.294 3.906h3.539q2.297 0 3.554 1.117 1.258 1.118 1.266 2.93-.008 1.18-.578 2.094-.562.914-1.641 1.437-1.07.516-2.601.516h-5.454V8h2.727v9.68h2.727q.921 0 1.515-.47.594-.476.594-1.218 0-.78-.594-1.273t-1.515-.492h-3.539zM923.475 20V8h5.039q2.133 0 3.367.852 1.242.85 1.242 2.375 0 1.006-.703 1.648-.695.633-1.898.852.945.078 1.656.476.719.399 1.125 1.047t.406 1.492q0 .992-.523 1.727-.516.726-1.508 1.133-.984.398-2.391.398zm2.648-2.227h3.164q.781 0 1.227-.367.445-.375.445-1.015 0-.742-.445-1.164-.446-.43-1.227-.43h-3.164zm0-4.804h2.446q.578 0 .992-.164a1.43 1.43 0 0 0 .633-.477q.218-.312.218-.742 0-.617-.508-.969-.5-.351-1.39-.351h-2.391zM939.74 24.5V8h2.781v1.984h.164q.219-.437.618-.93.398-.5 1.078-.85.68-.36 1.734-.36 1.39 0 2.508.71 1.125.704 1.781 2.087.664 1.374.664 3.375 0 1.976-.648 3.359t-1.766 2.11-2.531.726q-1.032 0-1.711-.344-.68-.343-1.094-.828a5.4 5.4 0 0 1-.633-.93h-.117V24.5zm2.774-10.5q0 1.164.328 2.04.336.874.961 1.366.633.485 1.531.485.937 0 1.57-.5.633-.508.953-1.383.328-.883.328-2.008 0-1.117-.32-1.984t-.953-1.36-1.578-.492q-.906 0-1.539.477-.633.476-.961 1.336-.32.858-.32 2.023m13.549 6.242q-1.14 0-2.054-.406a3.35 3.35 0 0 1-1.438-1.219q-.523-.805-.523-1.984 0-1.015.375-1.68t1.023-1.062a5.2 5.2 0 0 1 1.461-.602q.82-.21 1.695-.305a67 67 0 0 0 1.711-.195q.656-.093.953-.281.305-.195.305-.602v-.047q0-.882-.523-1.367-.524-.484-1.508-.484-1.039 0-1.649.453-.601.453-.812 1.07l-2.641-.375q.313-1.093 1.032-1.828a4.5 4.5 0 0 1 1.757-1.11q1.04-.375 2.297-.374.867 0 1.727.203t1.57.672a3.4 3.4 0 0 1 1.141 1.258q.437.796.437 1.992V20h-2.719v-1.648h-.093a3.5 3.5 0 0 1-.727.937 3.5 3.5 0 0 1-1.164.695q-.695.258-1.633.258m.735-2.078q.851 0 1.476-.336.625-.343.961-.906a2.3 2.3 0 0 0 .344-1.227v-1.414q-.134.109-.453.203a7 7 0 0 1-.703.164q-.391.07-.774.125l-.664.094a5 5 0 0 0-1.133.281q-.5.196-.789.547-.288.345-.289.89 0 .783.571 1.18.57.4 1.453.4m6.901-1.453h2.805q.039.672.601 1.039.563.367 1.461.367.913 0 1.539-.398.633-.407.633-1.227 0-.485-.242-.851a1.6 1.6 0 0 0-.68-.578 2.4 2.4 0 0 0-1.031-.204h-1.836v-2.007h1.836q.882 0 1.336-.407.46-.406.461-1.023 0-.664-.485-1.078-.476-.414-1.32-.414-.843 0-1.406.383-.555.383-.578.984h-2.789q.015-1.047.625-1.82.616-.774 1.656-1.204 1.047-.43 2.359-.43 1.407 0 2.43.423 1.023.42 1.578 1.18.555.75.555 1.765 0 .976-.61 1.617-.61.633-1.64.906v.125q.711.04 1.281.407.57.36.906.976.336.618.336 1.43 0 1.102-.633 1.906-.633.797-1.742 1.227-1.101.43-2.523.43-1.383 0-2.477-.415-1.086-.421-1.726-1.21-.64-.79-.68-1.9m11.128 7.789V8h2.781v1.984h.164q.22-.437.617-.93.399-.5 1.078-.85.68-.36 1.735-.36 1.39 0 2.508.71 1.125.704 1.781 2.087.664 1.374.664 3.375 0 1.976-.649 3.359-.648 1.383-1.765 2.11-1.118.726-2.531.726-1.032 0-1.711-.344a3.5 3.5 0 0 1-1.094-.828 5.4 5.4 0 0 1-.633-.93h-.117V24.5zM977.6 14q0 1.164.328 2.04.337.874.961 1.366.633.485 1.531.485.938 0 1.571-.5.633-.508.953-1.383.328-.883.328-2.008 0-1.117-.32-1.984-.321-.867-.953-1.36-.633-.492-1.579-.492-.906 0-1.539.477-.632.476-.961 1.336-.32.858-.32 2.023m13.55 6.242q-1.14 0-2.055-.406a3.35 3.35 0 0 1-1.437-1.219q-.524-.805-.524-1.984 0-1.015.375-1.68t1.024-1.062a5.2 5.2 0 0 1 1.461-.602q.82-.21 1.695-.305a67 67 0 0 0 1.711-.195q.656-.093.953-.281.305-.195.305-.602v-.047q0-.882-.524-1.367-.523-.484-1.508-.484-1.039 0-1.648.453-.602.453-.813 1.07l-2.64-.375q.312-1.093 1.031-1.828a4.5 4.5 0 0 1 1.758-1.11q1.039-.375 2.297-.374a7.5 7.5 0 0 1 1.726.203q.86.203 1.571.672.711.46 1.14 1.258.438.796.438 1.992V20h-2.719v-1.648h-.094a3.5 3.5 0 0 1-.726.937 3.5 3.5 0 0 1-1.164.695q-.696.258-1.633.258m.734-2.078q.852 0 1.477-.336.625-.343.961-.906a2.3 2.3 0 0 0 .343-1.227v-1.414q-.132.109-.453.203a6 6 0 0 1-.703.164q-.39.07-.773.125l-.664.094q-.633.086-1.133.281t-.789.547q-.29.345-.289.89 0 .783.57 1.18.57.4 1.453.4m17.186-14.602.98 1.829q-.525.452-1.17.656a6.7 6.7 0 0 1-1.52.266q-.87.054-2.07.078-1.335.03-2.19.507c-.57.318-1 .8-1.31 1.446-.3.64-.5 1.458-.59 2.453h.13c.38-.735.9-1.294 1.58-1.68s1.47-.578 2.38-.578q1.5 0 2.64.672c.76.443 1.36 1.086 1.79 1.93s.64 1.864.64 3.062q0 1.852-.69 3.211c-.47.901-1.12 1.596-1.98 2.086-.85.49-1.86.734-3.02.734q-1.74 0-3.03-.757-1.288-.766-1.987-2.258-.696-1.5-.696-3.696v-1.078q-.001-4.235 1.583-6.32 1.575-2.085 4.68-2.125c.61-.01 1.16-.013 1.64-.008.49.005.92-.018 1.28-.07q.555-.078.93-.36m-4.39 14.407q.87 0 1.5-.446c.43-.302.75-.729.97-1.28.23-.553.35-1.206.35-1.962 0-.745-.12-1.377-.35-1.898-.23-.526-.55-.927-.97-1.203-.43-.276-.93-.414-1.51-.414-.44 0-.83.078-1.18.234s-.65.385-.89.688c-.25.302-.43.669-.56 1.101s-.21.93-.22 1.492c0 1.13.26 2.029.77 2.696.51.661 1.21.992 2.09.992m12.44 2.265c-1.17 0-2.18-.257-3.04-.773a5.2 5.2 0 0 1-2-2.164c-.47-.927-.71-2.01-.71-3.25s.24-2.326.71-3.258a5.2 5.2 0 0 1 2-2.172c.86-.515 1.87-.773 3.04-.773 1.18 0 2.19.258 3.05.773.86.516 1.52 1.24 1.99 2.172.48.932.71 2.018.71 3.258s-.23 2.323-.71 3.25c-.47.927-1.13 1.648-1.99 2.164s-1.87.773-3.05.773m.02-2.265q.96 0 1.59-.524.645-.531.96-1.422c.21-.593.32-1.255.32-1.984 0-.734-.11-1.398-.32-1.992q-.315-.9-.96-1.43-.63-.531-1.59-.531c-.65 0-1.19.177-1.63.531q-.63.53-.96 1.43c-.2.594-.31 1.258-.31 1.992 0 .73.11 1.39.31 1.984q.33.891.96 1.422c.44.35.98.524 1.63.524m5.93-7.649V8h10.5v2.32h-3.88V20h-2.73v-9.68zm11.87 9.68V8h2.83v4.844h1.03L1042.41 8h3.41l-4.45 5.89 4.5 6.11h-3.43l-3.28-4.523h-1.39V20zm16.47.234c-1.21 0-2.24-.25-3.12-.75a5.1 5.1 0 0 1-2.01-2.14c-.47-.927-.7-2.019-.7-3.274 0-1.234.23-2.317.7-3.25.48-.937 1.14-1.666 1.99-2.187.85-.526 1.84-.79 2.99-.79.74 0 1.44.12 2.09.36.66.235 1.25.6 1.75 1.094.51.495.91 1.125 1.21 1.89.29.76.43 1.667.43 2.72v.866h-9.83v-1.906h7.12c0-.542-.12-1.023-.35-1.445a2.57 2.57 0 0 0-.96-1.008c-.41-.245-.88-.367-1.42-.367-.58 0-1.09.14-1.52.422-.44.276-.78.64-1.03 1.094-.24.447-.36.94-.37 1.476v1.664q0 1.047.39 1.797c.25.495.61.875 1.07 1.14.46.261.99.391 1.61.391q.615 0 1.11-.172.51-.18.87-.523c.25-.23.43-.513.56-.852l2.64.297a4.15 4.15 0 0 1-.96 1.828c-.46.516-1.05.917-1.78 1.203-.72.282-1.55.422-2.48.422M837.379 40.172 842.184 32h2.906v12h-2.735v-8.18L837.566 44h-2.914V32h2.727zm13.25 7.312v-5.812h.953q.383-.297.64-.805.258-.516.422-1.21.172-.704.282-1.571.109-.875.195-1.883l.344-4.203h8.671v9.672h1.86v5.812h-2.735V44h-7.851v3.484zm3.859-5.812h4.945v-7.39h-3.515l-.188 1.921q-.156 1.907-.414 3.266t-.828 2.203m15.974 2.562q-1.758 0-3.047-.773a5.25 5.25 0 0 1-2-2.164q-.703-1.39-.703-3.25t.703-3.258q.71-1.398 2-2.172 1.289-.773 3.047-.773 1.757 0 3.046.773 1.29.774 1.993 2.172.711 1.398.711 3.258t-.711 3.25a5.2 5.2 0 0 1-1.993 2.164q-1.289.773-3.046.773m.015-2.265q.954 0 1.594-.524.64-.531.953-1.422.32-.89.32-1.984 0-1.101-.32-1.992-.312-.9-.953-1.43-.64-.531-1.594-.531-.977 0-1.625.531-.64.53-.961 1.43-.312.891-.312 1.992 0 1.094.312 1.984.32.891.961 1.422.648.525 1.625.524m7.255 6.531V32h2.781v1.984h.164q.22-.436.617-.93.399-.5 1.079-.85.68-.36 1.734-.36 1.39 0 2.508.71 1.125.704 1.781 2.087.664 1.374.664 3.375 0 1.976-.648 3.359-.649 1.383-1.766 2.11-1.118.726-2.531.726-1.032 0-1.711-.344-.68-.343-1.094-.828a5.4 5.4 0 0 1-.633-.93h-.117V48.5zm2.773-10.5q0 1.164.329 2.04.335.873.96 1.366.633.485 1.532.485.937 0 1.57-.5.633-.508.953-1.383.328-.883.328-2.008 0-1.117-.32-1.984-.32-.868-.953-1.36t-1.578-.492q-.906 0-1.539.477-.633.476-.961 1.336-.321.86-.321 2.023m13.55 6.242q-1.14 0-2.055-.406a3.35 3.35 0 0 1-1.437-1.219q-.524-.804-.524-1.984 0-1.016.375-1.68.376-.664 1.024-1.062a5.2 5.2 0 0 1 1.461-.602q.82-.21 1.695-.305a67 67 0 0 0 1.711-.195q.657-.093.953-.281.305-.195.305-.602v-.047q0-.882-.524-1.367-.523-.484-1.507-.484-1.04 0-1.649.453-.602.453-.812 1.07l-2.641-.375q.312-1.093 1.031-1.828a4.5 4.5 0 0 1 1.758-1.11q1.039-.375 2.297-.374.867 0 1.727.203.859.203 1.57.672a3.4 3.4 0 0 1 1.141 1.258q.437.796.437 1.992V44h-2.719v-1.648h-.093a3.5 3.5 0 0 1-.727.937 3.5 3.5 0 0 1-1.164.695q-.696.258-1.633.258m.734-2.078q.852 0 1.477-.336.625-.343.961-.906a2.3 2.3 0 0 0 .344-1.227v-1.414q-.134.109-.453.203a6 6 0 0 1-.704.164q-.39.07-.773.125l-.664.094q-.633.087-1.133.281-.5.196-.789.547-.29.344-.289.89 0 .783.57 1.18.571.4 1.453.4m17.183-14.602.984 1.829a3.3 3.3 0 0 1-1.172.656q-.648.203-1.523.265-.867.055-2.062.079-1.344.03-2.196.507-.851.477-1.304 1.446-.454.96-.594 2.453h.133q.562-1.101 1.578-1.68 1.015-.578 2.383-.578 1.491 0 2.632.672 1.149.664 1.789 1.93.65 1.265.649 3.062 0 1.852-.695 3.211a4.97 4.97 0 0 1-1.977 2.086q-1.274.734-3.023.734-1.743 0-3.032-.757-1.28-.765-1.984-2.258-.696-1.5-.695-3.696v-1.078q0-4.235 1.578-6.32T908.12 28a60 60 0 0 1 1.649-.008 8.5 8.5 0 0 0 1.281-.07q.547-.078.922-.36m-4.383 14.407q.867 0 1.5-.446.633-.453.969-1.28.344-.83.344-1.962 0-1.117-.344-1.898-.344-.789-.977-1.203t-1.507-.414q-.657 0-1.18.234a2.4 2.4 0 0 0-.891.688 3.2 3.2 0 0 0-.562 1.101q-.196.649-.211 1.492 0 1.695.765 2.696.767.992 2.094.992m12.44 2.265q-1.757 0-3.046-.773a5.25 5.25 0 0 1-2-2.164q-.704-1.39-.704-3.25t.704-3.258q.71-1.398 2-2.172 1.289-.773 3.046-.773 1.758 0 3.047.773 1.29.774 1.993 2.172.71 1.398.71 3.258t-.71 3.25a5.2 5.2 0 0 1-1.993 2.164q-1.289.773-3.047.773m.016-2.265q.953 0 1.594-.524.64-.531.953-1.422.32-.89.32-1.984 0-1.101-.32-1.992-.312-.9-.953-1.43-.641-.531-1.594-.531-.977 0-1.625.531-.64.53-.961 1.43-.312.891-.312 1.992 0 1.094.312 1.984.32.891.961 1.422.648.525 1.625.524m5.933-7.649V32h10.5v2.32h-3.883V44h-2.735v-9.68zM937.85 44V32h2.828v4.844h1.031L945.318 32h3.407l-4.446 5.89 4.492 6.11h-3.421l-3.29-4.523h-1.382V44zm16.463.234q-1.804 0-3.117-.75a5.1 5.1 0 0 1-2.008-2.14q-.703-1.391-.703-3.274 0-1.85.703-3.25.711-1.405 1.985-2.187 1.273-.79 2.992-.79 1.109 0 2.094.36a4.74 4.74 0 0 1 1.75 1.094q.765.742 1.203 1.89.437 1.14.437 2.72v.866h-9.836v-1.906h7.125a3.04 3.04 0 0 0-.351-1.445 2.56 2.56 0 0 0-.961-1.008q-.609-.367-1.422-.367-.867 0-1.524.422-.655.414-1.023 1.093a3.14 3.14 0 0 0-.367 1.477v1.664q0 1.047.383 1.797.383.742 1.07 1.14.687.391 1.609.391.617 0 1.118-.172.5-.18.867-.523t.554-.852l2.641.297a4.1 4.1 0 0 1-.953 1.828q-.696.774-1.781 1.203-1.086.422-2.485.422M965.739 44V32h10.133v12h-2.727v-9.68h-4.703V44zm12.161 4.5V32h2.781v1.984h.164q.22-.436.617-.93.399-.5 1.078-.85.68-.36 1.735-.36 1.39 0 2.508.71 1.125.704 1.781 2.087.664 1.374.664 3.375 0 1.976-.648 3.359-.649 1.383-1.766 2.11-1.118.726-2.531.726-1.032 0-1.711-.344-.68-.343-1.094-.828a5.4 5.4 0 0 1-.633-.93h-.117V48.5zm2.773-10.5q0 1.164.328 2.04.337.873.961 1.366.633.485 1.532.485.937 0 1.57-.5.633-.508.953-1.383.328-.883.328-2.008 0-1.117-.32-1.984-.32-.868-.953-1.36t-1.578-.492q-.908 0-1.539.477-.634.476-.961 1.336-.321.86-.321 2.023m15.331 6.234q-1.757 0-3.047-.773a5.26 5.26 0 0 1-2-2.164q-.702-1.39-.703-3.25 0-1.86.703-3.258.711-1.398 2-2.172 1.29-.773 3.047-.773t3.047.773c.859.516 1.519 1.24 1.989 2.172.48.932.71 2.018.71 3.258s-.23 2.323-.71 3.25c-.47.927-1.13 1.648-1.989 2.164q-1.289.773-3.047.773m.016-2.265q.953 0 1.594-.524.64-.531.953-1.422.32-.89.32-1.984 0-1.101-.32-1.992-.313-.9-.953-1.43-.641-.531-1.594-.531-.977 0-1.625.531-.641.53-.961 1.43-.312.891-.313 1.992 0 1.094.313 1.984.32.891.961 1.422.648.525 1.625.524m6.19 5.515v-5.812h.96c.25-.198.46-.466.64-.805q.255-.516.42-1.21c.11-.47.21-.993.28-1.571.07-.583.14-1.211.19-1.883l.35-4.203h8.67v9.672h1.86v5.812h-2.74V44h-7.85v3.484zm3.86-5.812h4.95v-7.39h-3.52l-.19 1.921c-.1 1.271-.24 2.36-.41 3.266s-.45 1.64-.83 2.203m12.5 6.828c-.39 0-.74-.031-1.07-.094a4.3 4.3 0 0 1-.78-.203l.66-2.203c.41.12.78.177 1.1.172.33-.005.61-.107.85-.305.25-.192.46-.515.64-.969l.24-.648-4.35-12.25h3l2.76 9.063h.13l2.77-9.063h3.01l-4.81 13.453a5.3 5.3 0 0 1-.89 1.633c-.37.458-.82.807-1.36 1.047-.53.245-1.16.367-1.9.367m10.04-4.5V32h2.82v4.844h1.04l3.61-4.844h3.4l-4.44 5.89 4.49 6.11h-3.42l-3.29-4.523h-1.39V44zm10.99-9.68V32h10.5v2.32h-3.89V44h-2.73v-9.68zm14.83 9.922c-.76 0-1.45-.135-2.06-.406a3.4 3.4 0 0 1-1.44-1.219c-.34-.536-.52-1.198-.52-1.984 0-.677.13-1.237.38-1.68q.375-.664 1.02-1.062c.43-.266.92-.466 1.46-.602.55-.14 1.11-.242 1.7-.305q1.05-.11 1.71-.195c.43-.062.75-.156.95-.281q.3-.195.3-.602v-.047c0-.588-.17-1.044-.52-1.367s-.85-.484-1.51-.484q-1.035 0-1.65.453-.6.453-.81 1.07l-2.64-.375c.21-.729.55-1.338 1.03-1.828a4.5 4.5 0 0 1 1.76-1.11c.69-.25 1.46-.374 2.3-.374.58 0 1.15.067 1.72.203.58.135 1.1.36 1.57.672q.72.46 1.14 1.258c.3.53.44 1.195.44 1.992V44h-2.72v-1.648h-.09c-.17.333-.41.645-.73.937-.3.286-.69.518-1.16.695-.46.172-1.01.258-1.63.258m.73-2.078c.57 0 1.06-.112 1.48-.336q.615-.343.96-.906c.23-.375.34-.784.34-1.227v-1.414q-.135.109-.45.203c-.21.063-.44.118-.7.164q-.39.07-.78.125-.375.055-.66.094c-.42.058-.8.151-1.13.281-.34.13-.6.313-.79.547-.2.23-.29.526-.29.89q0 .783.57 1.18c.38.266.86.4 1.45.4M815.545 712.478v-12h10.133v12h-2.727v-9.68h-4.703v9.68zm12.161 4.5v-16.5h2.781v1.984h.164q.22-.437.617-.929.399-.5 1.079-.852.68-.359 1.734-.359 1.39 0 2.508.711 1.125.702 1.781 2.086.664 1.374.664 3.375 0 1.976-.648 3.359-.649 1.383-1.766 2.109-1.118.727-2.531.727-1.032 0-1.711-.344-.68-.344-1.094-.828a5.3 5.3 0 0 1-.633-.93h-.117v6.391zm2.773-10.5q0 1.164.328 2.039.337.875.961 1.367.633.485 1.532.485.937 0 1.57-.5.633-.508.953-1.383.328-.883.328-2.008 0-1.117-.32-1.984-.32-.868-.953-1.36t-1.578-.492q-.907 0-1.539.477-.634.476-.961 1.336-.321.86-.321 2.023m15.331 6.234q-1.758 0-3.047-.773a5.26 5.26 0 0 1-2-2.164q-.702-1.391-.703-3.25 0-1.86.703-3.258.711-1.398 2-2.172 1.29-.773 3.047-.773t3.047.773a5.2 5.2 0 0 1 1.992 2.172q.711 1.398.711 3.258 0 1.859-.711 3.25a5.2 5.2 0 0 1-1.992 2.164q-1.289.774-3.047.773m.016-2.265q.953 0 1.594-.524.64-.531.953-1.422.32-.89.32-1.984 0-1.101-.32-1.992-.313-.899-.953-1.43-.641-.531-1.594-.531-.977 0-1.625.531-.64.531-.961 1.43-.312.891-.313 1.992 0 1.094.313 1.984.32.891.961 1.422.648.524 1.625.524m12.7 6.109v-20.078h2.836v20.078zm0-3.844q-1.32 0-2.414-.445a5.5 5.5 0 0 1-1.891-1.266 5.8 5.8 0 0 1-1.226-1.953q-.43-1.14-.43-2.523t.43-2.524q.437-1.14 1.226-1.96a5.4 5.4 0 0 1 1.891-1.274q1.094-.445 2.414-.445h.602v12.39zm0-2.281h.352v-7.828h-.352q-.75 0-1.328.313-.57.305-.961.851a4 4 0 0 0-.586 1.25q-.195.703-.195 1.508 0 1.07.351 1.961.352.882 1.032 1.414.687.531 1.687.531m2.836 2.281h-.602v-12.39h.602q1.32 0 2.414.445a5.35 5.35 0 0 1 1.883 1.274q.797.82 1.226 1.96.438 1.141.438 2.524t-.438 2.523a5.6 5.6 0 0 1-1.226 1.953 5.4 5.4 0 0 1-1.883 1.266q-1.094.445-2.414.445m0-2.281q.758 0 1.328-.305a2.74 2.74 0 0 0 .953-.843 3.9 3.9 0 0 0 .586-1.242q.195-.712.195-1.516 0-1.07-.343-1.961t-1.032-1.422q-.68-.539-1.687-.539h-.352v7.828zm12.78 2.281q-1.804 0-3.117-.75a5.08 5.08 0 0 1-2.008-2.14q-.703-1.39-.703-3.274 0-1.85.703-3.25.711-1.406 1.984-2.187 1.274-.789 2.993-.789 1.109 0 2.093.359a4.7 4.7 0 0 1 1.75 1.094q.766.742 1.204 1.891.437 1.14.437 2.718v.867h-9.836v-1.906h7.125a3.04 3.04 0 0 0-.351-1.445 2.57 2.57 0 0 0-.961-1.008q-.61-.367-1.422-.367-.867 0-1.524.422-.655.413-1.023 1.094-.36.671-.367 1.476v1.664q0 1.047.382 1.797.383.742 1.071 1.141.688.39 1.609.39.618 0 1.117-.172.5-.179.868-.523.366-.344.554-.852l2.641.297a4.1 4.1 0 0 1-.953 1.828q-.696.774-1.782 1.204-1.085.421-2.484.421m12.083 0q-1.797 0-3.086-.789a5.27 5.27 0 0 1-1.977-2.179q-.687-1.4-.687-3.219 0-1.828.703-3.227.703-1.406 1.984-2.187 1.29-.789 3.047-.789 1.461 0 2.586.539a4.4 4.4 0 0 1 1.805 1.508q.672.968.766 2.265h-2.704a2.58 2.58 0 0 0-.781-1.445q-.609-.586-1.633-.586-.867 0-1.523.469-.657.46-1.023 1.328-.36.867-.36 2.078 0 1.227.36 2.109.359.875 1.007 1.352.657.469 1.539.469.625 0 1.118-.235.5-.242.836-.695t.46-1.102h2.704q-.102 1.274-.75 2.258a4.45 4.45 0 0 1-1.766 1.532q-1.117.546-2.625.546m11.817 0q-1.796 0-3.086-.789a5.26 5.26 0 0 1-1.976-2.179q-.688-1.4-.688-3.219 0-1.828.703-3.227.704-1.406 1.985-2.187 1.289-.789 3.047-.789 1.461 0 2.586.539a4.4 4.4 0 0 1 1.804 1.508q.672.968.766 2.265h-2.703a2.6 2.6 0 0 0-.781-1.445q-.61-.586-1.633-.586-.867 0-1.524.469-.655.46-1.023 1.328-.36.867-.36 2.078 0 1.227.36 2.109.359.875 1.008 1.352.656.469 1.539.469.625 0 1.117-.235.5-.242.836-.695t.461-1.102h2.703q-.102 1.274-.75 2.258a4.44 4.44 0 0 1-1.766 1.532q-1.117.546-2.625.546m9.31-4.062 4.804-8.172h2.907v12h-2.735v-8.18l-4.789 8.18h-2.914v-12h2.727zm14.969 4.062q-1.757 0-3.047-.773a5.26 5.26 0 0 1-2-2.164q-.702-1.391-.703-3.25 0-1.86.703-3.258.711-1.398 2-2.172 1.29-.773 3.047-.773t3.047.773a5.2 5.2 0 0 1 1.992 2.172q.711 1.398.711 3.258 0 1.859-.711 3.25a5.2 5.2 0 0 1-1.992 2.164q-1.289.774-3.047.773m.016-2.265q.953 0 1.594-.524.64-.531.953-1.422.32-.89.32-1.984 0-1.101-.32-1.992-.313-.899-.953-1.43-.641-.531-1.594-.531-.977 0-1.625.531-.64.531-.961 1.43-.312.891-.312 1.992 0 1.094.312 1.984.32.891.961 1.422.648.524 1.625.524m15.497-5.141v2.32h-6.391v-2.32zm-5.516-4.828v12h-2.726v-12zm7.367 0v12h-2.718v-12zm5.435 12.242q-1.14 0-2.055-.406a3.35 3.35 0 0 1-1.437-1.219q-.524-.804-.524-1.984 0-1.015.375-1.68a2.9 2.9 0 0 1 1.024-1.062 5.2 5.2 0 0 1 1.461-.602 12 12 0 0 1 1.695-.305 69 69 0 0 0 1.711-.195q.656-.093.953-.281.305-.195.305-.602v-.047q0-.882-.524-1.367-.523-.484-1.508-.484-1.038 0-1.648.453-.602.453-.812 1.07l-2.641-.375q.312-1.093 1.031-1.828a4.5 4.5 0 0 1 1.758-1.109q1.039-.375 2.297-.375a7.4 7.4 0 0 1 1.726.203 4.8 4.8 0 0 1 1.571.672q.711.46 1.14 1.258.438.797.438 1.992v8.031h-2.719v-1.648h-.094a3.5 3.5 0 0 1-.726.937q-.461.43-1.164.695-.696.258-1.633.258m.734-2.078q.852 0 1.477-.336a2.5 2.5 0 0 0 .961-.906q.344-.563.344-1.227v-1.414q-.133.11-.454.203a6 6 0 0 1-.703.164q-.39.07-.773.125l-.664.094q-.633.086-1.133.281a1.9 1.9 0 0 0-.789.547q-.29.344-.289.891 0 .781.57 1.18t1.453.398m6.737 1.836-.015-2.328h.414q.468 0 .789-.211t.531-.703q.211-.5.328-1.344.117-.843.164-2.101l.211-5.313h8.75v12h-2.734v-9.68h-3.445l-.188 3.868q-.07 1.5-.336 2.601-.258 1.094-.734 1.805a3 3 0 0 1-1.18 1.062q-.711.344-1.68.344zm15.054-8.094h3.539q2.296 0 3.555 1.117 1.257 1.118 1.265 2.93-.007 1.18-.578 2.094-.563.913-1.64 1.437-1.07.516-2.602.516h-5.453v-12h2.727v9.68h2.726q.922 0 1.516-.469.594-.477.594-1.219 0-.781-.594-1.273t-1.516-.492h-3.539zm18.145.922v2.32h-6.39v-2.32zm-5.515-4.828v12h-2.727v-12zm7.367 0v12h-2.719v-12zm3.895 3.906h3.539q2.298 0 3.555 1.117 1.259 1.118 1.266 2.93-.008 1.18-.578 2.094-.562.913-1.641 1.437-1.07.516-2.602.516h-5.453v-12h2.727v9.68h2.726q.922 0 1.516-.469.594-.477.594-1.219 0-.781-.594-1.273t-1.516-.492h-3.539zm9.853 8.094v-12h2.83v12zm7.59-3.828 4.8-8.172h2.91v12h-2.73v-8.18l-4.79 8.18h-2.92v-12h2.73zm4.03-12.297h2.12q0 1.367-.99 2.219c-.66.562-1.55.844-2.68.844-1.11 0-2-.282-2.66-.844-.66-.568-.98-1.308-.98-2.219h2.11c0 .375.11.711.34 1.008.23.292.63.437 1.19.437s.95-.145 1.18-.437c.24-.292.37-.628.37-1.008m-198.121 30.445v-2.32h10.5v2.32h-3.883v9.68h-2.735v-9.68zm11.872 14.18v-16.5h2.781v1.984h.164q.22-.437.617-.929.399-.5 1.078-.852.68-.359 1.735-.359 1.39 0 2.507.711 1.125.702 1.782 2.086.663 1.374.664 3.375 0 1.976-.649 3.359-.648 1.383-1.765 2.109-1.118.727-2.532.727-1.03 0-1.711-.344a3.5 3.5 0 0 1-1.093-.828 5.3 5.3 0 0 1-.633-.93h-.117v6.391zm2.773-10.5q0 1.164.328 2.039.336.875.961 1.367.633.485 1.531.485.938 0 1.571-.5.633-.508.953-1.383.328-.883.328-2.008 0-1.117-.32-1.984-.321-.868-.953-1.36-.633-.492-1.579-.492-.906 0-1.539.477-.633.476-.961 1.336-.32.86-.32 2.023m15.409 6.234q-1.804 0-3.117-.75a5.08 5.08 0 0 1-2.008-2.14q-.703-1.39-.703-3.274 0-1.85.703-3.25.712-1.406 1.984-2.187 1.274-.789 2.993-.789 1.109 0 2.093.359a4.7 4.7 0 0 1 1.75 1.094q.766.742 1.204 1.891.437 1.14.437 2.718v.867h-9.836v-1.906h7.125a3.04 3.04 0 0 0-.351-1.445 2.57 2.57 0 0 0-.961-1.008q-.61-.367-1.422-.367-.867 0-1.524.422-.656.413-1.023 1.094-.36.671-.367 1.476v1.664q0 1.047.382 1.797.383.742 1.071 1.141.688.39 1.609.39.618 0 1.117-.172.5-.179.868-.523.366-.344.554-.852l2.641.297a4.1 4.1 0 0 1-.953 1.828q-.696.774-1.781 1.204-1.087.421-2.485.421m6.849-.234v-12h2.828v4.844h1.031l3.609-4.844h3.407l-4.446 5.891 4.493 6.109h-3.422l-3.289-4.523h-1.383v4.523zm14.372-3.828 4.804-8.172h2.907v12h-2.735v-8.18l-4.789 8.18h-2.914v-12h2.727zm17.977-3.344v2.32h-6.391v-2.32zm-5.516-4.828v12h-2.726v-12zm7.368 0v12h-2.719v-12zm9.918 0v2.32h-5.171v9.68h-2.766v-12zm5.965 12v-12h2.828v4.844h1.031l3.61-4.844h3.406l-4.445 5.891 4.492 6.109h-3.422l-3.289-4.523h-1.383v4.523zm16.386.234q-1.758 0-3.047-.773a5.25 5.25 0 0 1-2-2.164q-.703-1.391-.703-3.25 0-1.86.703-3.258.71-1.398 2-2.172 1.289-.773 3.047-.773 1.757 0 3.047.773 1.289.774 1.992 2.172.711 1.398.711 3.258 0 1.859-.711 3.25a5.2 5.2 0 0 1-1.992 2.164q-1.29.774-3.047.773m.015-2.265q.954 0 1.594-.524.64-.531.953-1.422.32-.89.32-1.984 0-1.101-.32-1.992-.312-.899-.953-1.43-.64-.531-1.594-.531-.976 0-1.625.531-.64.531-.961 1.43-.312.891-.312 1.992 0 1.094.312 1.984.32.891.961 1.422.649.524 1.625.524m14.161-1.258 3.563-8.711h2.281l-4.852 12h-1.976l-4.742-12h2.258zm-4.179-8.711v12h-2.727v-12zm8.476 12v-12h2.703v12zm8.128.242q-1.14 0-2.055-.406a3.35 3.35 0 0 1-1.437-1.219q-.524-.804-.524-1.984 0-1.015.375-1.68a2.9 2.9 0 0 1 1.024-1.062 5.2 5.2 0 0 1 1.461-.602 12 12 0 0 1 1.695-.305 69 69 0 0 0 1.711-.195q.656-.093.953-.281.305-.195.305-.602v-.047q0-.882-.524-1.367-.523-.484-1.507-.484-1.04 0-1.649.453-.602.453-.812 1.07l-2.641-.375q.312-1.093 1.031-1.828a4.5 4.5 0 0 1 1.758-1.109q1.039-.375 2.297-.375a7.4 7.4 0 0 1 1.726.203 4.8 4.8 0 0 1 1.571.672q.711.46 1.14 1.258.438.797.438 1.992v8.031h-2.719v-1.648h-.094a3.5 3.5 0 0 1-.726.937 3.5 3.5 0 0 1-1.164.695q-.696.258-1.633.258m.734-2.078q.852 0 1.477-.336a2.5 2.5 0 0 0 .961-.906q.344-.563.344-1.227v-1.414q-.133.11-.454.203a6 6 0 0 1-.703.164q-.39.07-.773.125l-.664.094q-.633.086-1.133.281a1.9 1.9 0 0 0-.789.547q-.29.344-.289.891 0 .781.57 1.18t1.453.398m15.808-5.336v2.32h-6.391v-2.32zm-5.516-4.828v12h-2.726v-12zm7.367 0v12h-2.718v-12zm.919 15.484v-5.812h.953q.384-.297.641-.805.258-.515.422-1.211.171-.702.281-1.57.11-.875.195-1.883l.344-4.203h8.672v9.672h1.859v5.812h-2.734v-3.484h-7.852v3.484zm3.86-5.812h4.945v-7.391h-3.516l-.187 1.922q-.156 1.907-.414 3.266t-.828 2.203M6.764 712.712q-1.797 0-3.086-.789a5.27 5.27 0 0 1-1.977-2.179q-.687-1.4-.687-3.219 0-1.828.703-3.227.703-1.406 1.984-2.187 1.29-.789 3.047-.789 1.461 0 2.586.539a4.4 4.4 0 0 1 1.805 1.508q.672.968.765 2.265H9.201a2.6 2.6 0 0 0-.781-1.445q-.609-.586-1.633-.586-.867 0-1.523.469-.657.46-1.024 1.328-.36.867-.36 2.078 0 1.227.36 2.109.36.875 1.008 1.352.656.469 1.54.469.624 0 1.116-.235.5-.242.836-.695t.461-1.102h2.703q-.1 1.274-.75 2.258a4.44 4.44 0 0 1-1.765 1.532q-1.117.546-2.625.546m11.817 0q-1.758 0-3.047-.773a5.25 5.25 0 0 1-2-2.164q-.703-1.391-.703-3.25 0-1.86.703-3.258.71-1.398 2-2.172 1.29-.773 3.047-.773t3.047.773 1.992 2.172q.71 1.398.71 3.258 0 1.859-.71 3.25a5.2 5.2 0 0 1-1.992 2.164q-1.29.774-3.047.773m.016-2.265q.953 0 1.593-.524.64-.531.953-1.422.32-.89.32-1.984 0-1.101-.32-1.992-.312-.899-.953-1.43-.64-.531-1.593-.531-.977 0-1.625.531-.642.531-.961 1.43-.313.891-.313 1.992 0 1.094.313 1.984.32.891.96 1.422.649.524 1.626.524m7.254 2.031v-12h10.133v12h-2.726v-9.68h-4.704v9.68zm12.161 4.5v-16.5h2.782v1.984h.164a5.2 5.2 0 0 1 .617-.929q.398-.5 1.078-.852.68-.359 1.734-.359 1.39 0 2.508.711 1.125.702 1.781 2.086.664 1.374.664 3.375 0 1.976-.648 3.359t-1.766 2.109-2.53.727q-1.032 0-1.712-.344a3.5 3.5 0 0 1-1.093-.828 5.3 5.3 0 0 1-.633-.93h-.117v6.391zm2.774-10.5q0 1.164.328 2.039.336.875.96 1.367.634.485 1.532.485.937 0 1.57-.5.633-.508.953-1.383.33-.883.329-2.008 0-1.117-.32-1.984-.321-.868-.954-1.36t-1.578-.492q-.906 0-1.539.477-.633.476-.96 1.336-.321.86-.321 2.023m15.33 6.234q-1.757 0-3.046-.773a5.26 5.26 0 0 1-2-2.164q-.703-1.391-.703-3.25 0-1.86.703-3.258.71-1.398 2-2.172 1.29-.773 3.047-.773t3.047.773 1.992 2.172q.71 1.398.71 3.258 0 1.859-.71 3.25a5.2 5.2 0 0 1-1.992 2.164q-1.29.774-3.047.773m.016-2.265q.954 0 1.594-.524.64-.531.953-1.422.32-.89.32-1.984 0-1.101-.32-1.992-.312-.899-.953-1.43-.64-.531-1.594-.531-.975 0-1.625.531-.64.531-.96 1.43-.313.891-.313 1.992 0 1.094.312 1.984.32.891.961 1.422.649.524 1.625.524m7.255 2.031v-12h5.04q2.132 0 3.366.852 1.242.85 1.242 2.375 0 1.007-.703 1.648-.695.633-1.898.852.945.078 1.656.476.72.399 1.125 1.047.406.649.406 1.492 0 .993-.523 1.727-.516.726-1.508 1.133-.984.398-2.39.398zm2.648-2.227H69.2q.781 0 1.226-.367.445-.375.445-1.015 0-.742-.445-1.164-.446-.43-1.226-.43h-3.165zm0-4.804h2.446a2.7 2.7 0 0 0 .992-.164q.414-.173.633-.477.219-.312.219-.742 0-.616-.508-.969-.5-.351-1.39-.351h-2.392zm14.275 7.265q-1.758 0-3.047-.773a5.25 5.25 0 0 1-2-2.164q-.703-1.391-.703-3.25 0-1.86.703-3.258.71-1.398 2-2.172 1.29-.773 3.047-.773t3.047.773 1.992 2.172q.71 1.398.71 3.258 0 1.859-.71 3.25a5.2 5.2 0 0 1-1.992 2.164q-1.29.774-3.047.773m.016-2.265q.952 0 1.593-.524.64-.531.953-1.422.32-.89.32-1.984 0-1.101-.32-1.992-.312-.899-.953-1.43-.64-.531-1.593-.531-.977 0-1.625.531-.642.531-.961 1.43-.313.891-.313 1.992 0 1.094.313 1.984.32.891.96 1.422.649.524 1.626.524m6.022 2.031 4.43-6.195-4.391-5.805h3.266l3.414 4.836h.671v-4.836h2.829v4.836h.656l3.414-4.836h3.265l-4.367 5.805 4.407 6.195h-3.336l-3.414-4.844h-.625v4.844h-2.829v-4.844h-.625l-3.43 4.844zm17.766 3.484v-5.812h.953q.383-.297.641-.805.258-.515.422-1.211.172-.702.281-1.57.11-.875.195-1.883l.344-4.203h8.672v9.672h1.859v5.812h-2.734v-3.484h-7.851v3.484zm3.86-5.812h4.945v-7.391h-3.516l-.187 1.922q-.156 1.907-.414 3.266t-.828 2.203m16.051 2.562q-1.805 0-3.117-.75a5.08 5.08 0 0 1-2.008-2.14q-.703-1.39-.703-3.274 0-1.85.703-3.25.711-1.406 1.985-2.187 1.273-.789 2.992-.789 1.109 0 2.094.359a4.75 4.75 0 0 1 1.75 1.094q.765.742 1.203 1.891.437 1.14.437 2.718v.867h-9.836v-1.906h7.125a3.04 3.04 0 0 0-.351-1.445 2.56 2.56 0 0 0-.961-1.008q-.609-.367-1.422-.367-.867 0-1.523.422a2.9 2.9 0 0 0-1.024 1.094q-.36.671-.367 1.476v1.664q0 1.047.383 1.797.383.742 1.07 1.141.688.39 1.609.39.618 0 1.118-.172.5-.179.867-.523t.554-.852l2.641.297a4.1 4.1 0 0 1-.953 1.828q-.695.774-1.781 1.204-1.086.421-2.485.421m15.091-7.406v2.32h-6.391v-2.32zm-5.516-4.828v12h-2.726v-12zm7.368 0v12h-2.719v-12zm4.707 8.172 4.805-8.172h2.906v12h-2.734v-8.18l-4.789 8.18h-2.914v-12h2.726zm15.048 4.062q-1.804 0-3.117-.75a5.08 5.08 0 0 1-2.008-2.14q-.703-1.39-.703-3.274 0-1.85.703-3.25.711-1.406 1.985-2.187 1.273-.789 2.992-.789 1.109 0 2.094.359a4.75 4.75 0 0 1 1.75 1.094q.765.742 1.203 1.891.437 1.14.437 2.718v.867h-9.836v-1.906h7.125a3.04 3.04 0 0 0-.351-1.445 2.57 2.57 0 0 0-.961-1.008q-.61-.367-1.422-.367-.867 0-1.524.422-.656.413-1.023 1.094-.36.671-.367 1.476v1.664q0 1.047.383 1.797.383.742 1.07 1.141.687.39 1.609.39.618 0 1.117-.172.5-.179.868-.523.366-.344.554-.852l2.641.297a4.1 4.1 0 0 1-.953 1.828q-.695.774-1.781 1.204-1.086.421-2.485.421M1.529 736.478v-12h10.133v12H8.936v-9.68H4.232v9.68zm12.161 4.5v-16.5h2.782v1.984h.164q.219-.437.617-.929.398-.5 1.078-.852.68-.359 1.734-.359 1.39 0 2.508.711 1.125.702 1.781 2.086.664 1.374.664 3.375 0 1.976-.648 3.359-.647 1.383-1.766 2.109-1.117.727-2.53.727-1.032 0-1.712-.344a3.5 3.5 0 0 1-1.094-.828 5.4 5.4 0 0 1-.632-.93h-.118v6.391zm2.774-10.5q0 1.164.328 2.039.336.875.96 1.367.634.485 1.532.485.938 0 1.57-.5.633-.508.954-1.383.327-.883.328-2.008 0-1.117-.32-1.984-.321-.868-.954-1.36t-1.578-.492q-.906 0-1.539.477-.633.476-.96 1.336-.322.86-.321 2.023m12.823 2.172 4.805-8.172h2.906v12h-2.735v-8.18l-4.789 8.18H26.56v-12h2.727zm14.312 3.828v-12h10.133v12h-2.727v-9.68h-4.703v9.68zm17.396.234q-1.758 0-3.047-.773a5.25 5.25 0 0 1-2-2.164q-.704-1.391-.703-3.25 0-1.86.703-3.258.71-1.398 2-2.172 1.289-.773 3.047-.773 1.757 0 3.046.773 1.29.774 1.993 2.172.71 1.398.71 3.258 0 1.859-.71 3.25a5.2 5.2 0 0 1-1.993 2.164q-1.289.774-3.046.773m.015-2.265q.954 0 1.594-.524.64-.531.953-1.422.32-.89.32-1.984 0-1.101-.32-1.992-.312-.899-.953-1.43-.64-.531-1.594-.531-.976 0-1.625.531-.64.531-.96 1.43-.314.891-.313 1.992 0 1.094.312 1.984.32.891.961 1.422.648.524 1.625.524m6.192 5.515v-5.812h.954a2.3 2.3 0 0 0 .64-.805q.258-.515.422-1.211.172-.702.281-1.57.11-.875.196-1.883l.343-4.203h8.672v9.672h1.86v5.812h-2.735v-3.484h-7.851v3.484zm3.86-5.812h4.945v-7.391h-3.516l-.187 1.922q-.156 1.907-.414 3.266t-.828 2.203m18.676-9.672v2.32h-5.171v9.68H81.8v-12zm6.128 12.234q-1.758 0-3.047-.773a5.25 5.25 0 0 1-2-2.164q-.703-1.391-.703-3.25 0-1.86.703-3.258.711-1.398 2-2.172 1.29-.773 3.047-.773t3.047.773a5.2 5.2 0 0 1 1.992 2.172q.711 1.398.711 3.258 0 1.859-.711 3.25a5.2 5.2 0 0 1-1.992 2.164q-1.29.774-3.047.773m.016-2.265q.952 0 1.594-.524.64-.531.953-1.422.32-.89.32-1.984 0-1.101-.32-1.992-.313-.899-.953-1.43-.641-.531-1.594-.531-.977 0-1.625.531-.641.531-.961 1.43-.312.891-.313 1.992 0 1.094.313 1.984.32.891.96 1.422.65.524 1.626.524m5.932-7.649v-2.32h10.5v2.32h-3.882v9.68h-2.735v-9.68zm16.613 9.914q-1.758 0-3.047-.773a5.25 5.25 0 0 1-2-2.164q-.703-1.391-.703-3.25 0-1.86.703-3.258.71-1.398 2-2.172 1.289-.773 3.047-.773 1.757 0 3.046.773 1.29.774 1.993 2.172.711 1.398.711 3.258 0 1.859-.711 3.25a5.2 5.2 0 0 1-1.993 2.164q-1.289.774-3.046.773m.015-2.265q.954 0 1.594-.524.64-.531.953-1.422.32-.89.32-1.984 0-1.101-.32-1.992-.312-.899-.953-1.43-.64-.531-1.594-.531-.977 0-1.625.531-.64.531-.961 1.43-.312.891-.312 1.992 0 1.094.312 1.984.32.891.961 1.422.648.524 1.625.524m7.255 2.031v-12h5.039q2.133 0 3.367.852 1.242.85 1.242 2.375 0 1.007-.703 1.648-.695.633-1.898.852.945.078 1.656.476a3.04 3.04 0 0 1 1.125 1.047q.406.649.406 1.492 0 .993-.523 1.727-.516.726-1.508 1.133-.984.398-2.391.398zm2.648-2.227h3.164q.781 0 1.227-.367.445-.375.445-1.015 0-.742-.445-1.164-.445-.43-1.227-.43h-3.164zm0-4.804h2.446a2.7 2.7 0 0 0 .992-.164q.414-.173.633-.477a1.26 1.26 0 0 0 .218-.742q0-.616-.507-.969-.5-.351-1.391-.351h-2.391zm9.04 7.031v-12h2.828v4.844h1.032l3.609-4.844h3.406l-4.445 5.891 4.492 6.109h-3.422l-3.289-4.523h-1.383v4.523zm16.464.234q-1.804 0-3.117-.75a5.08 5.08 0 0 1-2.008-2.14q-.703-1.39-.703-3.274 0-1.85.703-3.25.71-1.406 1.984-2.187 1.274-.789 2.993-.789 1.109 0 2.093.359a4.7 4.7 0 0 1 1.75 1.094q.766.742 1.203 1.891.438 1.14.438 2.718v.867h-9.836v-1.906h7.125a3 3 0 0 0-.352-1.445 2.56 2.56 0 0 0-.96-1.008q-.61-.367-1.422-.367-.867 0-1.524.422-.655.413-1.023 1.094-.36.671-.367 1.476v1.664q0 1.047.382 1.797.383.742 1.071 1.141.688.39 1.609.39.618 0 1.117-.172.501-.179.867-.523.368-.344.555-.852l2.641.297a4.1 4.1 0 0 1-.953 1.828q-.696.774-1.782 1.204-1.086.421-2.484.421m10.762-3.523h2.804q.04.672.602 1.039.563.367 1.461.367.914 0 1.539-.398.633-.406.633-1.227 0-.485-.243-.851a1.57 1.57 0 0 0-.679-.578 2.4 2.4 0 0 0-1.032-.204h-1.835v-2.007h1.835q.883 0 1.336-.407.461-.406.461-1.023 0-.664-.484-1.078-.477-.414-1.32-.414t-1.407.383q-.554.382-.578.984h-2.789q.016-1.047.625-1.82.618-.774 1.656-1.204 1.047-.429 2.36-.429 1.406 0 2.43.422 1.023.421 1.578 1.179.554.75.554 1.766 0 .976-.609 1.617-.609.633-1.641.906v.125a2.6 2.6 0 0 1 1.282.407q.57.359.906.976.336.618.336 1.43 0 1.101-.633 1.906-.633.797-1.742 1.227-1.102.429-2.524.429-1.383 0-2.476-.414-1.086-.422-1.727-1.211-.64-.788-.679-1.898m14.58 3.531q-1.14 0-2.054-.406a3.35 3.35 0 0 1-1.438-1.219q-.523-.804-.523-1.984 0-1.015.375-1.68t1.023-1.062q.65-.399 1.461-.602a12 12 0 0 1 1.696-.305 68 68 0 0 0 1.71-.195q.657-.093.954-.281.304-.195.304-.602v-.047q0-.882-.523-1.367-.524-.484-1.508-.484-1.04 0-1.648.453-.601.453-.813 1.07l-2.641-.375q.314-1.093 1.032-1.828a4.5 4.5 0 0 1 1.758-1.109q1.038-.375 2.296-.375.868 0 1.727.203a4.8 4.8 0 0 1 1.57.672q.71.46 1.141 1.258.437.797.437 1.992v8.031h-2.718v-1.648h-.094a3.5 3.5 0 0 1-.727.937 3.5 3.5 0 0 1-1.164.695q-.695.258-1.633.258m.735-2.078q.852 0 1.476-.336a2.5 2.5 0 0 0 .961-.906q.344-.563.344-1.227v-1.414q-.132.11-.453.203a6 6 0 0 1-.703.164q-.39.07-.774.125l-.664.094a5 5 0 0 0-1.132.281 1.9 1.9 0 0 0-.79.547q-.289.344-.289.891 0 .781.571 1.18.57.398 1.453.398m14.659 1.836v-9.703h-2.563q-.977 0-1.5.453t-.515 1.125q-.007.672.492 1.109.5.438 1.43.438h3.547v2.062h-3.547q-1.438 0-2.485-.453t-1.609-1.281q-.563-.828-.563-1.937 0-1.157.571-2.008.578-.86 1.64-1.328 1.07-.477 2.539-.477h5.211v12zm-7.75 0 3.351-6.156h2.79l-3.36 6.156zm12.366 0v-12h5.039q2.133 0 3.367.852 1.242.85 1.242 2.375 0 1.007-.703 1.648-.695.633-1.898.852.945.078 1.656.476a3.04 3.04 0 0 1 1.125 1.047q.406.649.406 1.492 0 .993-.523 1.727-.516.726-1.508 1.133-.984.398-2.39.398zm2.648-2.227h3.165q.78 0 1.226-.367.445-.375.445-1.015 0-.742-.445-1.164-.446-.43-1.226-.43h-3.165zm0-4.804h2.446a2.7 2.7 0 0 0 .992-.164q.414-.173.633-.477a1.26 1.26 0 0 0 .219-.742q0-.616-.508-.969-.5-.351-1.391-.351h-2.391zm14.275 7.265q-1.758 0-3.047-.773a5.25 5.25 0 0 1-2-2.164q-.703-1.391-.703-3.25 0-1.86.703-3.258.71-1.398 2-2.172 1.289-.773 3.047-.773 1.757 0 3.047.773 1.288.774 1.992 2.172.711 1.398.711 3.258 0 1.859-.711 3.25a5.2 5.2 0 0 1-1.992 2.164q-1.29.774-3.047.773m.015-2.265q.954 0 1.594-.524.64-.531.953-1.422.321-.89.321-1.984 0-1.101-.321-1.992-.312-.899-.953-1.43-.64-.531-1.594-.531-.976 0-1.625.531-.64.531-.961 1.43-.312.891-.312 1.992 0 1.094.312 1.984.32.891.961 1.422.649.524 1.625.524m7.255 2.031v-12h2.828v4.844h1.032l3.609-4.844h3.406l-4.445 5.891 4.492 6.109h-3.422l-3.289-4.523h-1.383v4.523zM9.771 753.306v2.32h-6.39v-2.32zm-5.515-4.828v12H1.529v-12zm7.367 0v12H8.904v-12zm5.435 12.242q-1.14 0-2.055-.406a3.35 3.35 0 0 1-1.438-1.219q-.523-.804-.523-1.984 0-1.015.375-1.68t1.023-1.062a5.2 5.2 0 0 1 1.461-.602 12 12 0 0 1 1.696-.305 69 69 0 0 0 1.71-.195q.657-.093.954-.281.304-.195.304-.602v-.047q0-.882-.523-1.367-.525-.484-1.508-.484-1.04 0-1.648.453-.601.453-.813 1.07l-2.64-.375q.313-1.093 1.03-1.828a4.5 4.5 0 0 1 1.759-1.109q1.038-.375 2.296-.375a7.5 7.5 0 0 1 1.727.203 4.8 4.8 0 0 1 1.57.672q.711.46 1.14 1.258.439.797.438 1.992v8.031h-2.718v-1.648h-.094a3.5 3.5 0 0 1-.727.937 3.5 3.5 0 0 1-1.164.695q-.695.258-1.633.258m.734-2.078q.852 0 1.476-.336.625-.344.961-.906a2.3 2.3 0 0 0 .344-1.227v-1.414q-.133.11-.453.203a6 6 0 0 1-.703.164q-.39.07-.774.125l-.664.094q-.633.086-1.132.281a1.9 1.9 0 0 0-.79.547q-.288.344-.289.891 0 .781.57 1.18.571.398 1.454.398m17.588 5.914v-20.078h2.835v20.078zm0-3.844q-1.32 0-2.415-.445a5.5 5.5 0 0 1-1.89-1.266 5.8 5.8 0 0 1-1.227-1.953q-.43-1.14-.43-2.523t.43-2.524q.437-1.14 1.227-1.96a5.4 5.4 0 0 1 1.89-1.274q1.094-.445 2.414-.445h.602v12.39zm0-2.281h.351v-7.828h-.352q-.75 0-1.328.313-.57.305-.96.851-.383.539-.587 1.25-.195.703-.195 1.508 0 1.07.352 1.961.351.882 1.031 1.414.686.531 1.688.531m2.835 2.281h-.601v-12.39h.602q1.32 0 2.413.445 1.094.445 1.883 1.274.797.82 1.227 1.96.438 1.141.437 2.524 0 1.383-.437 2.523a5.6 5.6 0 0 1-1.227 1.953 5.4 5.4 0 0 1-1.883 1.266q-1.093.445-2.413.445m0-2.281q.758 0 1.329-.305a2.74 2.74 0 0 0 .953-.843q.39-.54.586-1.242.195-.712.195-1.516 0-1.07-.344-1.961t-1.031-1.422q-.68-.539-1.687-.539h-.352v7.828zm10.195-1.781 4.804-8.172h2.907v12h-2.735v-8.18l-4.789 8.18h-2.914v-12h2.727zm17.977-3.344v2.32h-6.39v-2.32zm-5.516-4.828v12h-2.726v-12zm7.368 0v12h-2.72v-12zm5.434 12.242q-1.14 0-2.055-.406a3.35 3.35 0 0 1-1.437-1.219q-.523-.804-.523-1.984 0-1.015.374-1.68.375-.665 1.024-1.062.649-.399 1.46-.602a12 12 0 0 1 1.696-.305 69 69 0 0 0 1.711-.195q.656-.093.953-.281.305-.195.305-.602v-.047q0-.882-.523-1.367-.524-.484-1.508-.484-1.04 0-1.649.453-.601.453-.812 1.07l-2.64-.375q.311-1.093 1.03-1.828a4.5 4.5 0 0 1 1.758-1.109q1.04-.375 2.297-.375a7.5 7.5 0 0 1 1.727.203 4.8 4.8 0 0 1 1.57.672q.711.46 1.14 1.258.438.797.438 1.992v8.031H77.29v-1.648h-.093a3.5 3.5 0 0 1-.727.937 3.5 3.5 0 0 1-1.164.695q-.696.258-1.633.258m.734-2.078q.852 0 1.477-.336.625-.344.961-.906.345-.563.344-1.227v-1.414q-.133.11-.453.203a6 6 0 0 1-.704.164 20 20 0 0 1-.773.125l-.664.094q-.633.086-1.133.281a1.9 1.9 0 0 0-.789.547q-.29.344-.289.891 0 .781.57 1.18t1.454.398m15.808-5.336v2.32h-6.39v-2.32zm-5.516-4.828v12h-2.726v-12zm7.368 0v12h-2.72v-12zm7.215 12.234q-1.796 0-3.086-.789a5.27 5.27 0 0 1-1.976-2.179q-.688-1.4-.688-3.219 0-1.828.703-3.227.704-1.406 1.985-2.187 1.29-.789 3.047-.789 1.461 0 2.586.539a4.4 4.4 0 0 1 1.804 1.508q.672.968.766 2.265h-2.703a2.6 2.6 0 0 0-.781-1.445q-.61-.586-1.633-.586-.867 0-1.524.469-.656.46-1.023 1.328-.36.867-.36 2.078 0 1.227.36 2.109.36.875 1.008 1.352.656.469 1.539.469.624 0 1.117-.235.5-.242.836-.695t.461-1.102h2.703q-.102 1.274-.75 2.258a4.44 4.44 0 0 1-1.766 1.532q-1.117.546-2.625.546m9.31-4.062 4.804-8.172h2.907v12h-2.735v-8.18l-4.789 8.18h-2.914v-12h2.727zm9.735 8.328v-16.5h2.781v1.984h.164q.22-.437.617-.929.398-.5 1.079-.852.68-.359 1.734-.359 1.39 0 2.508.711 1.125.702 1.781 2.086.664 1.374.664 3.375 0 1.976-.648 3.359-.649 1.383-1.766 2.109-1.118.727-2.531.727-1.032 0-1.711-.344-.68-.344-1.094-.828a5.3 5.3 0 0 1-.633-.93h-.117v6.391zm2.773-10.5q0 1.164.329 2.039.335.875.96 1.367.633.485 1.532.485.937 0 1.57-.5.633-.508.953-1.383.328-.883.328-2.008 0-1.117-.32-1.984-.32-.868-.953-1.36t-1.578-.492q-.906 0-1.539.477-.633.476-.961 1.336-.321.86-.321 2.023m15.331 6.234q-1.758 0-3.047-.773a5.26 5.26 0 0 1-2-2.164q-.702-1.391-.703-3.25 0-1.86.703-3.258.711-1.398 2-2.172 1.29-.773 3.047-.773t3.047.773a5.2 5.2 0 0 1 1.992 2.172q.711 1.398.711 3.258 0 1.859-.711 3.25a5.2 5.2 0 0 1-1.992 2.164q-1.289.774-3.047.773m.016-2.265q.953 0 1.594-.524.64-.531.953-1.422.32-.89.32-1.984 0-1.101-.32-1.992-.312-.899-.953-1.43t-1.594-.531q-.977 0-1.625.531-.64.531-.961 1.43-.312.891-.312 1.992 0 1.094.312 1.984.32.891.961 1.422.648.524 1.625.524m7.255 2.031v-12h5.039q2.133 0 3.367.852 1.242.85 1.242 2.375 0 1.007-.703 1.648-.695.633-1.898.852.945.078 1.656.476a3.04 3.04 0 0 1 1.125 1.047q.406.649.406 1.492 0 .993-.523 1.727-.516.726-1.508 1.133-.984.398-2.391.398zm2.648-2.227h3.164q.781 0 1.227-.367.445-.375.445-1.015 0-.742-.445-1.164-.446-.43-1.227-.43h-3.164zm0-4.804h2.445q.579 0 .993-.164.414-.173.632-.477a1.26 1.26 0 0 0 .219-.742q0-.616-.508-.969-.5-.351-1.39-.351h-2.391zm12.493 7.273q-1.14 0-2.054-.406a3.35 3.35 0 0 1-1.438-1.219q-.523-.804-.523-1.984 0-1.015.375-1.68t1.023-1.062a5.2 5.2 0 0 1 1.461-.602 12 12 0 0 1 1.695-.305 69 69 0 0 0 1.711-.195q.657-.093.953-.281.305-.195.305-.602v-.047q0-.882-.523-1.367-.524-.484-1.508-.484-1.039 0-1.649.453-.602.453-.812 1.07l-2.641-.375q.313-1.093 1.031-1.828a4.5 4.5 0 0 1 1.758-1.109q1.04-.375 2.297-.375.867 0 1.727.203a4.8 4.8 0 0 1 1.57.672q.71.46 1.141 1.258.437.797.437 1.992v8.031h-2.719v-1.648h-.093a3.5 3.5 0 0 1-.727.937 3.5 3.5 0 0 1-1.164.695q-.696.258-1.633.258m.735-2.078q.85 0 1.476-.336a2.5 2.5 0 0 0 .961-.906q.344-.563.344-1.227v-1.414q-.133.11-.453.203a6 6 0 0 1-.703.164q-.391.07-.774.125l-.664.094a5 5 0 0 0-1.133.281 1.9 1.9 0 0 0-.789.547q-.29.344-.289.891 0 .781.57 1.18.571.398 1.454.398m15.807-5.336v2.32h-6.391v-2.32zm-5.516-4.828v12h-2.726v-12zm7.368 0v12h-2.719v-12zm4.708 8.172 4.804-8.172h2.906v12h-2.734v-8.18l-4.789 8.18h-2.914v-12h2.727zm15.047 4.062q-1.804 0-3.117-.75a5.08 5.08 0 0 1-2.008-2.14q-.702-1.39-.703-3.274 0-1.85.703-3.25.711-1.406 1.985-2.187 1.273-.789 2.992-.789 1.109 0 2.094.359a4.75 4.75 0 0 1 1.75 1.094q.765.742 1.203 1.891.437 1.14.437 2.718v.867h-9.836v-1.906h7.125a3.04 3.04 0 0 0-.351-1.445 2.56 2.56 0 0 0-.961-1.008q-.609-.367-1.422-.367-.867 0-1.524.422-.656.413-1.023 1.094-.36.671-.367 1.476v1.664q0 1.047.383 1.797.383.742 1.07 1.141.687.39 1.609.39.618 0 1.118-.172.5-.179.867-.523.366-.344.554-.852l2.641.297a4.1 4.1 0 0 1-.953 1.828q-.695.774-1.781 1.204-1.086.421-2.485.421M272.211 306.475v-12h5.039q2.133 0 3.367.852 1.242.85 1.242 2.375 0 1.008-.703 1.648-.695.633-1.898.852.945.078 1.656.476a3.04 3.04 0 0 1 1.125 1.047q.406.649.406 1.492 0 .993-.523 1.727-.515.726-1.508 1.133-.984.398-2.391.398zm2.648-2.226h3.164q.782 0 1.227-.368.445-.375.445-1.015 0-.742-.445-1.164-.446-.43-1.227-.43h-3.164zm0-4.805h2.446a2.7 2.7 0 0 0 .992-.164q.414-.173.633-.477a1.26 1.26 0 0 0 .218-.742q0-.617-.507-.969-.5-.351-1.391-.351h-2.391zm14.275 7.265q-1.758 0-3.047-.773a5.25 5.25 0 0 1-2-2.164q-.703-1.39-.703-3.25t.703-3.258q.71-1.398 2-2.172 1.289-.773 3.047-.773t3.047.773q1.288.774 1.992 2.172.711 1.398.711 3.258t-.711 3.25a5.2 5.2 0 0 1-1.992 2.164q-1.29.774-3.047.773m.015-2.265q.954 0 1.594-.524.64-.531.953-1.421.32-.891.32-1.985 0-1.101-.32-1.992-.312-.899-.953-1.43-.64-.531-1.594-.531-.976 0-1.625.531-.64.531-.961 1.43-.312.891-.312 1.992 0 1.094.312 1.985.32.89.961 1.421.649.524 1.625.524m6.591-1.258h2.805q.039.672.601 1.039.563.367 1.461.367.915 0 1.539-.398.633-.406.633-1.227 0-.484-.242-.851a1.6 1.6 0 0 0-.68-.578q-.437-.204-1.031-.204h-1.836v-2.007h1.836q.883 0 1.336-.407.46-.406.461-1.023a1.35 1.35 0 0 0-.485-1.078q-.475-.414-1.32-.414-.843 0-1.406.383-.555.383-.578.984h-2.789q.015-1.047.625-1.82.617-.774 1.656-1.203 1.047-.43 2.359-.43 1.407 0 2.43.422t1.578 1.179q.555.75.555 1.766 0 .977-.61 1.617-.61.633-1.64.906v.125q.711.04 1.281.407.57.359.906.976t.336 1.43q0 1.101-.633 1.906-.632.797-1.742 1.227-1.101.429-2.523.429-1.383 0-2.477-.414-1.086-.421-1.726-1.211-.64-.788-.68-1.898m18.034 0 3.563-8.711h2.281l-4.852 12h-1.976l-4.742-12h2.257zm-4.18-8.711v12h-2.726v-12zm8.477 12v-12h2.703v12zm9.909.234q-1.758 0-3.047-.773a5.26 5.26 0 0 1-2-2.164q-.703-1.39-.703-3.25t.703-3.258q.711-1.398 2-2.172 1.289-.773 3.047-.773t3.047.773q1.288.774 1.992 2.172.711 1.398.711 3.258t-.711 3.25a5.2 5.2 0 0 1-1.992 2.164q-1.29.774-3.047.773m.016-2.265q.952 0 1.593-.524.64-.531.953-1.421.321-.891.321-1.985 0-1.101-.321-1.992-.312-.899-.953-1.43-.64-.531-1.593-.531-.977 0-1.625.531-.641.531-.961 1.43-.313.891-.313 1.992 0 1.094.313 1.985.32.89.961 1.421.648.524 1.625.524m6.022 2.031 4.43-6.195-4.391-5.805h3.266l3.414 4.836h.672v-4.836h2.828v4.836h.656l3.414-4.836h3.266l-4.368 5.805 4.407 6.195h-3.336l-3.414-4.844h-.625v4.844h-2.828v-4.844h-.625l-3.43 4.844zm27.071-7.172v2.321h-6.39v-2.321zm-5.515-4.828v12h-2.727v-12zm7.367 0v12h-2.719v-12zm7.215 12.234q-1.757 0-3.046-.773a5.24 5.24 0 0 1-2-2.164q-.704-1.39-.704-3.25t.704-3.258q.71-1.398 2-2.172 1.289-.773 3.046-.773 1.758 0 3.047.773a5.2 5.2 0 0 1 1.992 2.172q.711 1.398.711 3.258t-.711 3.25a5.2 5.2 0 0 1-1.992 2.164q-1.289.774-3.047.773m.016-2.265q.953 0 1.594-.524.64-.531.953-1.421.32-.891.32-1.985 0-1.101-.32-1.992-.312-.899-.953-1.43t-1.594-.531q-.977 0-1.625.531-.64.531-.961 1.43-.312.891-.312 1.992 0 1.094.312 1.985.32.89.961 1.421.648.524 1.625.524m12.489 2.265q-1.796 0-3.086-.789a5.26 5.26 0 0 1-1.976-2.179q-.688-1.399-.688-3.219 0-1.828.703-3.227.704-1.406 1.985-2.187 1.289-.789 3.047-.789 1.46 0 2.585.539a4.4 4.4 0 0 1 1.805 1.508q.672.969.766 2.265h-2.703a2.6 2.6 0 0 0-.782-1.445q-.609-.586-1.632-.586-.868 0-1.524.469-.656.46-1.023 1.328-.36.867-.36 2.078 0 1.227.36 2.109.358.876 1.008 1.352.656.47 1.539.469.624 0 1.117-.235.5-.242.836-.695t.461-1.101h2.703q-.102 1.273-.75 2.257a4.44 4.44 0 0 1-1.766 1.532q-1.118.546-2.625.546m5.712-9.914v-2.32h10.5v2.32h-3.883v9.68h-2.734v-9.68zm13.786 1.586h3.539q2.297 0 3.555 1.118 1.257 1.117 1.265 2.929-.008 1.18-.578 2.094-.563.914-1.64 1.437-1.07.516-2.602.516h-5.453v-12h2.726v9.68h2.727q.922 0 1.516-.469.594-.477.593-1.219 0-.781-.593-1.273-.594-.492-1.516-.492h-3.539zm14.48 8.094v-12h10.133v12h-2.727v-9.68h-4.703v9.68zm12.161 4.5v-16.5h2.781v1.984h.165q.218-.437.617-.929.398-.5 1.078-.852.68-.359 1.734-.359 1.39 0 2.508.711 1.125.703 1.781 2.086.664 1.374.664 3.375 0 1.976-.648 3.359t-1.766 2.109q-1.116.727-2.531.727-1.031 0-1.711-.344t-1.094-.828a5.4 5.4 0 0 1-.632-.93h-.118v6.391zm2.774-10.5q0 1.164.328 2.039.336.875.961 1.367.633.485 1.531.485.937 0 1.57-.5.633-.509.953-1.383.329-.883.329-2.008 0-1.117-.321-1.984-.32-.867-.953-1.36-.633-.492-1.578-.492-.906 0-1.539.477-.633.476-.961 1.336-.32.86-.32 2.023m15.331 6.234q-1.758 0-3.047-.773a5.25 5.25 0 0 1-2-2.164q-.703-1.39-.703-3.25t.703-3.258q.71-1.398 2-2.172 1.289-.773 3.047-.773 1.757 0 3.046.773 1.29.774 1.993 2.172.711 1.398.711 3.258t-.711 3.25a5.2 5.2 0 0 1-1.993 2.164q-1.289.774-3.046.773m.015-2.265q.954 0 1.594-.524.64-.531.953-1.421.32-.891.32-1.985 0-1.101-.32-1.992-.312-.899-.953-1.43-.64-.531-1.594-.531-.976 0-1.625.531-.64.531-.961 1.43-.312.891-.312 1.992 0 1.094.312 1.985.32.89.961 1.421.649.524 1.625.524m9.982-1.797 4.804-8.172h2.907v12h-2.735v-8.18l-4.789 8.18h-2.914v-12h2.727zm4.031-12.297h2.117q0 1.368-.992 2.219-.984.844-2.672.844-1.672 0-2.664-.844-.984-.851-.977-2.219h2.102q0 .563.344 1.008.35.437 1.195.437.828 0 1.18-.437.359-.438.367-1.008m4.36 6.445v-2.32h10.5v2.32h-3.883v9.68h-2.734v-9.68zm14.599 5.852 4.804-8.172h2.906v12h-2.734v-8.18l-4.789 8.18h-2.914v-12h2.727zm17.765 4.07q-1.14 0-2.055-.406a3.35 3.35 0 0 1-1.437-1.219q-.524-.804-.524-1.984 0-1.016.375-1.68t1.024-1.062a5.2 5.2 0 0 1 1.461-.602q.82-.21 1.695-.305a65 65 0 0 0 1.711-.195q.656-.093.953-.281.305-.195.305-.602v-.047q0-.882-.524-1.367-.523-.484-1.507-.484-1.04 0-1.649.453-.602.453-.812 1.07l-2.641-.375q.312-1.093 1.031-1.828a4.5 4.5 0 0 1 1.758-1.109q1.039-.375 2.297-.375.868 0 1.726.203a4.8 4.8 0 0 1 1.571.672q.711.46 1.14 1.258.438.797.438 1.992v8.031h-2.719v-1.648h-.094a3.5 3.5 0 0 1-.726.937 3.5 3.5 0 0 1-1.164.695q-.696.258-1.633.258m.734-2.078q.852 0 1.477-.336a2.5 2.5 0 0 0 .961-.906q.344-.562.344-1.227v-1.414q-.133.11-.454.203a6 6 0 0 1-.703.165q-.39.07-.773.125l-.664.093a5 5 0 0 0-1.133.282q-.5.195-.789.546-.29.344-.289.891 0 .781.57 1.18t1.453.398m7.566 1.836v-12h2.828v4.844h1.031l3.609-4.844h3.407l-4.446 5.891 4.493 6.109h-3.422l-3.289-4.523h-1.383v4.523zm16.385.234q-1.796 0-3.086-.789a5.26 5.26 0 0 1-1.976-2.179q-.688-1.399-.688-3.219 0-1.828.703-3.227.704-1.406 1.985-2.187 1.289-.789 3.047-.789 1.461 0 2.586.539a4.4 4.4 0 0 1 1.804 1.508q.672.969.766 2.265h-2.703a2.6 2.6 0 0 0-.781-1.445q-.61-.586-1.633-.586-.867 0-1.524.469-.655.46-1.023 1.328-.36.867-.36 2.078 0 1.227.36 2.109.359.876 1.008 1.352.656.47 1.539.469.625 0 1.117-.235.5-.242.836-.695t.461-1.101h2.703q-.102 1.273-.75 2.257a4.44 4.44 0 0 1-1.766 1.532q-1.117.546-2.625.546m11.896 0q-1.805 0-3.118-.75a5.07 5.07 0 0 1-2.007-2.14q-.703-1.39-.703-3.274 0-1.85.703-3.25.71-1.406 1.984-2.187 1.273-.789 2.992-.789 1.11 0 2.094.359a4.7 4.7 0 0 1 1.75 1.094q.765.742 1.203 1.891.438 1.14.438 2.718v.868h-9.836v-1.907h7.125a3.06 3.06 0 0 0-.352-1.445 2.55 2.55 0 0 0-.961-1.008q-.609-.367-1.422-.367-.867 0-1.523.422a2.9 2.9 0 0 0-1.024 1.094q-.359.672-.367 1.476v1.664q0 1.047.383 1.797.383.742 1.07 1.141.688.39 1.61.39a3.4 3.4 0 0 0 1.117-.172q.5-.179.867-.523.368-.344.555-.852l2.64.297a4.1 4.1 0 0 1-.953 1.828q-.695.774-1.781 1.204-1.086.421-2.484.421m6.02-.234-.016-2.328h.414q.47 0 .79-.211t.531-.703q.21-.5.328-1.344.117-.843.164-2.101l.211-5.313h8.75v12h-2.734v-9.68h-3.446l-.187 3.868q-.07 1.5-.336 2.601-.258 1.094-.735 1.805a3 3 0 0 1-1.179 1.062q-.711.345-1.68.344zm18.452.234q-1.804 0-3.117-.75a5.08 5.08 0 0 1-2.008-2.14q-.703-1.39-.703-3.274 0-1.85.703-3.25.71-1.406 1.984-2.187 1.274-.789 2.993-.789 1.109 0 2.093.359a4.7 4.7 0 0 1 1.75 1.094q.766.742 1.204 1.891.437 1.14.437 2.718v.868h-9.836v-1.907h7.125a3.04 3.04 0 0 0-.351-1.445 2.57 2.57 0 0 0-.961-1.008q-.61-.367-1.422-.367-.867 0-1.524.422-.656.413-1.023 1.094a3.14 3.14 0 0 0-.367 1.476v1.664q0 1.047.382 1.797.383.742 1.071 1.141.688.39 1.609.39.618 0 1.117-.172.5-.179.868-.523.366-.344.554-.852l2.641.297a4.1 4.1 0 0 1-.953 1.828q-.696.774-1.782 1.204-1.086.421-2.484.421m6.849 4.266v-16.5h2.781v1.984h.164q.218-.437.617-.929.399-.5 1.078-.852.68-.359 1.735-.359 1.39 0 2.507.711 1.125.703 1.782 2.086.663 1.374.664 3.375 0 1.976-.649 3.359t-1.765 2.109q-1.118.727-2.532.727-1.03 0-1.711-.344a3.5 3.5 0 0 1-1.093-.828 5.3 5.3 0 0 1-.633-.93h-.117v6.391zm2.773-10.5q0 1.164.328 2.039.336.875.961 1.367.633.485 1.531.485.938 0 1.571-.5.633-.509.953-1.383.328-.883.328-2.008 0-1.117-.32-1.984-.321-.867-.954-1.36-.631-.492-1.578-.492-.906 0-1.539.477-.633.476-.961 1.336-.32.86-.32 2.023m13.55 6.242q-1.142 0-2.055-.406a3.35 3.35 0 0 1-1.437-1.219q-.524-.804-.524-1.984 0-1.016.375-1.68t1.024-1.062a5.2 5.2 0 0 1 1.46-.602q.82-.21 1.696-.305a65 65 0 0 0 1.711-.195q.656-.093.953-.281.305-.195.305-.602v-.047q0-.882-.524-1.367-.523-.484-1.508-.484-1.038 0-1.648.453-.601.453-.813 1.07l-2.64-.375q.312-1.093 1.031-1.828a4.5 4.5 0 0 1 1.758-1.109q1.038-.375 2.297-.375.867 0 1.726.203a4.8 4.8 0 0 1 1.571.672 3.4 3.4 0 0 1 1.14 1.258q.438.797.438 1.992v8.031h-2.719v-1.648h-.094a3.5 3.5 0 0 1-.726.937 3.5 3.5 0 0 1-1.164.695q-.696.258-1.633.258m.734-2.078q.852 0 1.477-.336.625-.343.961-.906a2.3 2.3 0 0 0 .343-1.227v-1.414q-.132.11-.453.203a6 6 0 0 1-.703.165q-.39.07-.773.125l-.664.093a5 5 0 0 0-1.133.282q-.501.195-.789.546-.29.344-.289.891 0 .781.57 1.18t1.453.398m17.698-10.164v9.891h1.836v5.968h-2.765v-3.859h-9.204v-12h2.727v9.68h4.703v-9.68zm6.001 8.172 4.805-8.172h2.906v12h-2.734v-8.18l-4.789 8.18h-2.914v-12h2.726zm16.071-3.258v2.328h-6.461v-2.328zm-4.218-4.914v12h-2.836v-12zm7.843 12.234q-1.734 0-3.008-.789-1.265-.789-1.96-2.187-.696-1.399-.696-3.234 0-1.836.696-3.227.695-1.39 1.96-2.172 1.274-.781 3.008-.781 1.727 0 2.992.781a5.23 5.23 0 0 1 1.969 2.172q.703 1.39.703 3.227 0 1.835-.703 3.234a5.27 5.27 0 0 1-1.969 2.187q-1.265.789-2.992.789m0-2.343q1.024 0 1.672-.516.648-.515.953-1.391.305-.875.305-1.96 0-1.086-.305-1.961-.305-.876-.953-1.383-.648-.516-1.672-.516-1.031 0-1.687.516-.649.507-.953 1.383-.305.875-.305 1.961 0 1.093.305 1.968.304.875.953 1.391.656.507 1.687.508m-354.863 29.593v-5.812h.954q.382-.297.64-.805.258-.515.422-1.211.172-.702.281-1.57a50 50 0 0 0 .196-1.883l.343-4.203h8.672v9.672h1.86v5.812h-2.735v-3.484h-7.851v3.484zm3.86-5.812h4.945v-7.391h-3.515l-.188 1.922q-.156 1.907-.414 3.266t-.828 2.203m9.911 2.328-.016-2.328h.414q.47 0 .789-.211t.532-.703q.21-.5.328-1.344.117-.843.164-2.101l.211-5.313h8.75v12h-2.735v-9.68h-3.445l-.187 3.868q-.07 1.5-.336 2.601-.258 1.094-.735 1.805a3 3 0 0 1-1.179 1.062q-.711.345-1.68.344zm20.233 0v-9.703h-2.562q-.977 0-1.5.453a1.4 1.4 0 0 0-.516 1.125q-.007.672.492 1.109.5.438 1.43.438h3.547v2.062h-3.547q-1.437 0-2.485-.453-1.046-.453-1.609-1.281t-.562-1.937q0-1.157.57-2.008.577-.86 1.641-1.328 1.07-.477 2.539-.477h5.211v12zm-7.75 0 3.352-6.156h2.789l-3.36 6.156zm16.279-3.289h2.805q.039.672.601 1.039.563.367 1.461.367.915 0 1.539-.398.633-.406.633-1.227 0-.484-.242-.851a1.57 1.57 0 0 0-.68-.578q-.437-.204-1.031-.204h-1.836v-2.007h1.836q.883 0 1.336-.407.46-.406.461-1.023 0-.664-.484-1.078-.477-.414-1.321-.414-.843 0-1.406.383-.555.383-.578.984h-2.789q.015-1.047.625-1.82.616-.774 1.656-1.203 1.047-.43 2.359-.43 1.407 0 2.43.422t1.578 1.179q.555.75.555 1.766 0 .977-.609 1.617-.61.633-1.641.906v.125q.711.04 1.281.407.57.359.906.976t.336 1.43q0 1.101-.632 1.906-.633.797-1.743 1.227-1.101.429-2.523.429-1.383 0-2.477-.414-1.086-.421-1.726-1.211-.64-.788-.68-1.898m14.581 3.531q-1.14 0-2.055-.406a3.35 3.35 0 0 1-1.437-1.219q-.524-.804-.524-1.984 0-1.016.375-1.68t1.024-1.062a5.2 5.2 0 0 1 1.461-.602q.82-.21 1.695-.305a64 64 0 0 0 1.711-.195q.656-.093.953-.281.305-.195.305-.602v-.047q0-.882-.524-1.367-.523-.484-1.507-.484-1.04 0-1.649.453-.602.453-.812 1.07l-2.641-.375q.312-1.093 1.031-1.828a4.5 4.5 0 0 1 1.758-1.109q1.04-.375 2.297-.375a7.5 7.5 0 0 1 1.727.203 4.8 4.8 0 0 1 1.57.672q.71.46 1.141 1.258.437.797.437 1.992v8.031h-2.719v-1.648h-.093a3.5 3.5 0 0 1-.727.937 3.5 3.5 0 0 1-1.164.695q-.696.258-1.633.258m.734-2.078q.852 0 1.477-.336a2.5 2.5 0 0 0 .961-.906q.344-.562.344-1.227v-1.414q-.134.11-.453.203a6 6 0 0 1-.704.165q-.39.07-.773.125l-.664.093a5 5 0 0 0-1.133.282q-.5.195-.789.546-.29.344-.289.891 0 .781.57 1.18.571.398 1.453.398m7.566 1.836v-12h10.133v12h-2.727v-9.68h-4.703v9.68zm13.489 4.5q-.578 0-1.07-.094a4 4 0 0 1-.774-.203l.656-2.203q.618.18 1.102.172t.852-.305q.374-.288.632-.968l.243-.649-4.352-12.25h3l2.766 9.063h.125l2.773-9.063h3.008l-4.805 13.453a5.4 5.4 0 0 1-.89 1.633q-.555.687-1.36 1.047-.796.367-1.906.367m14.864-4.266q-1.796 0-3.086-.789a5.26 5.26 0 0 1-1.976-2.179q-.688-1.399-.688-3.219 0-1.828.703-3.227.703-1.406 1.985-2.187 1.289-.789 3.046-.789 1.461 0 2.586.539a4.4 4.4 0 0 1 1.805 1.508q.672.969.766 2.265h-2.703a2.6 2.6 0 0 0-.782-1.445q-.609-.586-1.632-.586-.868 0-1.524.469-.656.46-1.023 1.328-.36.867-.36 2.078 0 1.227.36 2.109.359.876 1.007 1.352.657.47 1.54.469.624 0 1.117-.235.5-.242.836-.695t.461-1.101h2.703q-.102 1.273-.75 2.257a4.45 4.45 0 0 1-1.766 1.532q-1.118.546-2.625.546m6.583-.234v-12h2.828v4.844h1.031l3.61-4.844h3.406l-4.445 5.891 4.492 6.109h-3.422l-3.289-4.523h-1.383v4.523zm15.098.242q-1.14 0-2.054-.406a3.35 3.35 0 0 1-1.438-1.219q-.523-.804-.523-1.984 0-1.016.375-1.68t1.023-1.062q.65-.399 1.461-.602.82-.21 1.696-.305a64 64 0 0 0 1.71-.195q.657-.093.954-.281.304-.195.304-.602v-.047q0-.882-.523-1.367-.524-.484-1.508-.484-1.04 0-1.648.453-.601.453-.813 1.07l-2.641-.375q.314-1.093 1.032-1.828a4.5 4.5 0 0 1 1.758-1.109q1.039-.375 2.296-.375.868 0 1.727.203a4.8 4.8 0 0 1 1.57.672q.71.46 1.141 1.258.438.797.437 1.992v8.031h-2.718v-1.648h-.094a3.5 3.5 0 0 1-.727.937 3.5 3.5 0 0 1-1.164.695q-.695.258-1.633.258m.735-2.078q.852 0 1.476-.336a2.5 2.5 0 0 0 .961-.906q.344-.562.344-1.227v-1.414q-.132.11-.453.203a6 6 0 0 1-.703.165q-.39.07-.774.125l-.664.093a5 5 0 0 0-1.132.282q-.5.195-.79.546-.288.344-.289.891 0 .781.571 1.18.57.398 1.453.398m17.377 2.07q-1.797 0-3.086-.789a5.27 5.27 0 0 1-1.977-2.179q-.687-1.399-.687-3.219 0-1.828.703-3.227.703-1.406 1.984-2.187 1.289-.789 3.047-.789 1.461 0 2.586.539a4.4 4.4 0 0 1 1.805 1.508q.671.969.765 2.265h-2.703a2.6 2.6 0 0 0-.781-1.445q-.61-.586-1.633-.586-.867 0-1.523.469-.657.46-1.024 1.328-.359.867-.359 2.078 0 1.227.359 2.109.36.876 1.008 1.352.656.47 1.539.469.625 0 1.117-.235.5-.242.836-.695t.461-1.101h2.703q-.102 1.273-.75 2.257a4.45 4.45 0 0 1-1.765 1.532q-1.118.546-2.625.546m11.817 0q-1.758 0-3.047-.773a5.26 5.26 0 0 1-2-2.164q-.703-1.39-.703-3.25t.703-3.258q.711-1.398 2-2.172 1.289-.773 3.047-.773 1.757 0 3.047.773 1.288.774 1.992 2.172.711 1.398.711 3.258t-.711 3.25a5.2 5.2 0 0 1-1.992 2.164q-1.29.774-3.047.773m.015-2.265q.954 0 1.594-.524.64-.531.953-1.421.321-.891.321-1.985 0-1.101-.321-1.992-.312-.899-.953-1.43-.64-.531-1.594-.531-.976 0-1.625.531-.64.531-.96 1.43-.313.891-.313 1.992 0 1.094.313 1.985.32.89.96 1.421.649.524 1.625.524m16.872-14.406.985 1.828q-.524.453-1.172.656t-1.524.266q-.867.054-2.062.078-1.344.031-2.195.508-.852.476-1.305 1.445-.453.96-.594 2.453h.133q.563-1.101 1.578-1.68 1.016-.578 2.383-.578 1.492 0 2.633.672 1.148.664 1.789 1.93.648 1.265.648 3.062 0 1.852-.695 3.211a4.96 4.96 0 0 1-1.977 2.086q-1.273.734-3.023.734-1.742 0-3.031-.757-1.281-.766-1.985-2.258-.695-1.5-.695-3.695v-1.079q0-4.234 1.578-6.32t4.68-2.125q.921-.015 1.648-.008a8.6 8.6 0 0 0 1.282-.07q.546-.078.921-.359m-4.382 14.406q.867 0 1.5-.445.632-.454.968-1.282.344-.827.344-1.961 0-1.116-.344-1.898-.343-.789-.976-1.203t-1.508-.414a2.9 2.9 0 0 0-1.18.234 2.4 2.4 0 0 0-.89.688 3.2 3.2 0 0 0-.563 1.101q-.195.649-.211 1.492 0 1.696.766 2.696.765.992 2.094.992m12.44 2.265q-1.797 0-3.086-.789a5.27 5.27 0 0 1-1.977-2.179q-.687-1.399-.687-3.219 0-1.828.703-3.227.703-1.406 1.984-2.187 1.29-.789 3.047-.789 1.461 0 2.586.539a4.4 4.4 0 0 1 1.805 1.508q.672.969.766 2.265h-2.704a2.58 2.58 0 0 0-.781-1.445q-.609-.586-1.633-.586-.867 0-1.523.469-.657.46-1.024 1.328-.359.867-.359 2.078 0 1.227.359 2.109.36.876 1.008 1.352.657.47 1.539.469.625 0 1.118-.235.5-.242.835-.695.336-.453.461-1.101h2.704q-.102 1.273-.75 2.257a4.45 4.45 0 0 1-1.766 1.532q-1.117.546-2.625.546m5.712-9.914v-2.32h10.5v2.32h-3.883v9.68h-2.734v-9.68zm11.872 9.68v-12h5.039q2.133 0 3.367.852 1.242.85 1.242 2.375 0 1.008-.703 1.648-.696.633-1.898.852.945.078 1.656.476a3.04 3.04 0 0 1 1.125 1.047q.406.649.406 1.492 0 .993-.523 1.727-.516.726-1.508 1.133-.984.398-2.391.398zm2.648-2.226h3.164q.782 0 1.227-.368.445-.375.445-1.015 0-.742-.445-1.164-.446-.43-1.227-.43h-3.164zm0-4.805h2.445q.579 0 .993-.164.414-.173.632-.477a1.26 1.26 0 0 0 .219-.742q0-.617-.508-.969-.5-.351-1.39-.351h-2.391zm14.353 7.265q-1.806 0-3.118-.75a5.07 5.07 0 0 1-2.007-2.14q-.704-1.39-.704-3.274 0-1.85.704-3.25.71-1.406 1.984-2.187 1.273-.789 2.992-.789 1.11 0 2.094.359a4.7 4.7 0 0 1 1.75 1.094q.765.742 1.203 1.891.438 1.14.437 2.718v.868h-9.835v-1.907h7.125a3.06 3.06 0 0 0-.352-1.445 2.56 2.56 0 0 0-.961-1.008q-.609-.367-1.422-.367-.867 0-1.523.422a2.9 2.9 0 0 0-1.024 1.094q-.359.672-.367 1.476v1.664q0 1.047.383 1.797.383.742 1.07 1.141.688.39 1.61.39.616 0 1.117-.172.5-.179.867-.523.368-.344.555-.852l2.64.297a4.1 4.1 0 0 1-.953 1.828q-.695.774-1.781 1.204-1.086.421-2.484.421m15.09-7.406v2.321h-6.39v-2.321zm-5.515-4.828v12h-2.727v-12zm7.367 0v12h-2.719v-12zm10.223 4.828v2.321h-6.39v-2.321zm-5.515-4.828v12h-2.727v-12zm7.367 0v12h-2.719v-12zm7.216 12.234q-1.758 0-3.047-.773a5.25 5.25 0 0 1-2-2.164q-.703-1.39-.703-3.25t.703-3.258q.71-1.398 2-2.172 1.289-.773 3.047-.773 1.757 0 3.046.773 1.29.774 1.993 2.172.711 1.398.711 3.258t-.711 3.25a5.2 5.2 0 0 1-1.993 2.164q-1.289.774-3.046.773m.015-2.265q.954 0 1.594-.524.64-.531.953-1.421.32-.891.32-1.985 0-1.101-.32-1.992-.312-.899-.953-1.43-.64-.531-1.594-.531-.977 0-1.625.531-.64.531-.961 1.43-.312.891-.312 1.992 0 1.094.312 1.985.32.89.961 1.421.648.524 1.625.524m15.192-9.969v2.32h-5.171v9.68h-2.766v-12zm6.128 12.234q-1.758 0-3.047-.773a5.26 5.26 0 0 1-2-2.164q-.702-1.39-.703-3.25 0-1.86.703-3.258.711-1.398 2-2.172 1.29-.773 3.047-.773t3.047.773a5.2 5.2 0 0 1 1.992 2.172q.711 1.398.711 3.258t-.711 3.25a5.2 5.2 0 0 1-1.992 2.164q-1.289.774-3.047.773m.016-2.265q.953 0 1.594-.524.64-.531.953-1.421.32-.891.32-1.985 0-1.101-.32-1.992-.313-.899-.953-1.43-.641-.531-1.594-.531-.977 0-1.625.531-.64.531-.961 1.43-.312.891-.313 1.992 0 1.094.313 1.985.32.89.961 1.421.648.524 1.625.524m-256.194 26.265q-1.757 0-3.047-.773a5.26 5.26 0 0 1-2-2.164q-.702-1.39-.703-3.25 0-1.86.703-3.258.711-1.398 2-2.172 1.29-.773 3.047-.773t3.047.773a5.2 5.2 0 0 1 1.992 2.172q.711 1.398.711 3.258t-.711 3.25a5.2 5.2 0 0 1-1.992 2.164q-1.289.774-3.047.773m.016-2.265q.953 0 1.594-.524.64-.531.953-1.421.32-.891.32-1.985 0-1.101-.32-1.992-.313-.899-.953-1.43-.641-.531-1.594-.531-.977 0-1.625.531-.64.531-.961 1.43-.312.891-.312 1.992 0 1.094.312 1.985.32.89.961 1.421.648.524 1.625.524m16.872-14.406.984 1.828a3.3 3.3 0 0 1-1.172.656 6.8 6.8 0 0 1-1.523.266q-.867.054-2.063.078-1.343.031-2.195.508-.851.476-1.305 1.445-.453.96-.593 2.453h.133q.563-1.101 1.578-1.68 1.015-.578 2.382-.578 1.493 0 2.633.672 1.149.664 1.789 1.93.65 1.265.649 3.062 0 1.852-.696 3.211a4.96 4.96 0 0 1-1.976 2.086q-1.274.734-3.024.734-1.741 0-3.031-.757-1.28-.766-1.984-2.258-.695-1.5-.695-3.695v-1.079q0-4.234 1.578-6.32t4.679-2.125q.922-.015 1.649-.008.733.008 1.281-.07t.922-.359m-4.383 14.406q.867 0 1.5-.445.633-.454.969-1.282.344-.827.344-1.961 0-1.116-.344-1.898-.344-.789-.977-1.203-.632-.414-1.508-.414-.656 0-1.179.234a2.4 2.4 0 0 0-.891.688 3.2 3.2 0 0 0-.562 1.101q-.196.649-.211 1.492 0 1.696.765 2.696.767.992 2.094.992m7.206 6.531v-16.5h2.781v1.984h.164q.219-.437.618-.929.398-.5 1.078-.852.68-.359 1.734-.359 1.39 0 2.508.711 1.125.703 1.781 2.086.664 1.374.664 3.375 0 1.976-.648 3.359-.649 1.383-1.766 2.109-1.117.727-2.531.727-1.032 0-1.711-.344-.68-.344-1.094-.828a5.3 5.3 0 0 1-.633-.93h-.117v6.391zm2.773-10.5q0 1.164.329 2.039.336.875.961 1.367.632.485 1.531.485.937 0 1.57-.5.633-.509.953-1.383.328-.883.328-2.008 0-1.117-.32-1.984t-.953-1.36-1.578-.492q-.906 0-1.539.477-.633.476-.961 1.336-.321.86-.321 2.023m13.55 6.242q-1.14 0-2.055-.406a3.35 3.35 0 0 1-1.437-1.219q-.523-.804-.523-1.984 0-1.016.375-1.68t1.023-1.062a5.2 5.2 0 0 1 1.461-.602q.82-.21 1.695-.305a64 64 0 0 0 1.711-.195q.656-.093.953-.281.305-.195.305-.602v-.047q0-.882-.523-1.367-.524-.484-1.508-.484-1.039 0-1.649.453-.602.453-.812 1.07l-2.641-.375q.312-1.093 1.031-1.828a4.5 4.5 0 0 1 1.758-1.109q1.04-.375 2.297-.375a7.5 7.5 0 0 1 1.727.203 4.8 4.8 0 0 1 1.57.672q.71.46 1.141 1.258.437.797.437 1.992v8.031h-2.719v-1.648h-.093a3.5 3.5 0 0 1-.727.937 3.5 3.5 0 0 1-1.164.695q-.696.258-1.633.258m.735-2.078q.85 0 1.476-.336a2.5 2.5 0 0 0 .961-.906q.344-.562.344-1.227v-1.414q-.134.11-.453.203a6 6 0 0 1-.703.165q-.392.07-.774.125l-.664.093a5 5 0 0 0-1.133.282q-.5.195-.789.546-.29.344-.289.891 0 .781.57 1.18.571.398 1.454.398m6.901-1.453h2.804q.04.672.602 1.039.563.367 1.461.367.913 0 1.539-.398.633-.407.633-1.227 0-.484-.242-.851a1.6 1.6 0 0 0-.68-.578 2.4 2.4 0 0 0-1.031-.204h-1.836v-2.007h1.836q.883 0 1.336-.407.46-.406.461-1.023a1.35 1.35 0 0 0-.485-1.078q-.477-.414-1.32-.414t-1.406.383q-.555.382-.578.984h-2.79q.016-1.047.625-1.82.618-.774 1.657-1.203 1.047-.43 2.359-.43 1.406 0 2.43.422 1.023.422 1.578 1.179.555.75.555 1.766 0 .977-.61 1.617-.61.633-1.64.906v.125q.711.04 1.281.407.57.359.906.976t.336 1.43q0 1.102-.633 1.906-.632.797-1.742 1.227-1.102.429-2.523.429-1.383 0-2.477-.414-1.085-.421-1.727-1.211-.64-.788-.679-1.898m16.362 3.523q-1.758 0-3.047-.773a5.26 5.26 0 0 1-2-2.164q-.703-1.39-.703-3.25t.703-3.258q.711-1.398 2-2.172 1.289-.773 3.047-.773t3.047.773q1.288.774 1.992 2.172.711 1.398.711 3.258t-.711 3.25a5.2 5.2 0 0 1-1.992 2.164q-1.29.774-3.047.773m.016-2.265q.953 0 1.593-.524.64-.531.953-1.421.321-.891.321-1.985 0-1.101-.321-1.992-.312-.899-.953-1.43-.64-.531-1.593-.531-.977 0-1.625.531-.642.531-.961 1.43-.313.891-.313 1.992 0 1.094.313 1.985.32.89.961 1.421.648.524 1.625.524m7.254 2.031v-12h5.039q2.133 0 3.368.852 1.242.85 1.242 2.375 0 1.008-.703 1.648-.696.633-1.899.852.946.078 1.656.476.72.399 1.125 1.047.407.649.407 1.492 0 .993-.524 1.727-.515.726-1.508 1.133-.984.398-2.39.398zm2.649-2.226h3.164q.782 0 1.226-.368.446-.375.446-1.015 0-.743-.446-1.164-.444-.43-1.226-.43h-3.164zm0-4.805h2.445q.578 0 .992-.164.414-.173.633-.477a1.26 1.26 0 0 0 .219-.742q0-.617-.508-.969-.5-.351-1.391-.351h-2.39zm12.493 7.273q-1.14 0-2.055-.406a3.35 3.35 0 0 1-1.437-1.219q-.524-.804-.524-1.984 0-1.016.375-1.68t1.024-1.062a5.2 5.2 0 0 1 1.461-.602q.82-.21 1.695-.305a65 65 0 0 0 1.711-.195q.656-.093.953-.281.305-.195.305-.602v-.047q0-.882-.524-1.367-.523-.484-1.508-.484-1.038 0-1.648.453-.602.453-.813 1.07l-2.64-.375q.312-1.093 1.031-1.828a4.5 4.5 0 0 1 1.758-1.109q1.039-.375 2.297-.375.867 0 1.726.203a4.8 4.8 0 0 1 1.571.672q.711.46 1.14 1.258.438.797.438 1.992v8.031h-2.719v-1.648h-.094a3.5 3.5 0 0 1-.726.937 3.5 3.5 0 0 1-1.164.695q-.696.258-1.633.258m.734-2.078q.852 0 1.477-.336.625-.343.961-.906a2.3 2.3 0 0 0 .343-1.227v-1.414q-.132.11-.453.203a6 6 0 0 1-.703.165q-.39.07-.773.125l-.664.093a5 5 0 0 0-1.133.282q-.5.195-.789.546-.29.344-.289.891 0 .781.57 1.18t1.453.398m6.222-7.844v-2.32h10.5v2.32h-3.883v9.68h-2.734v-9.68zm16.69 9.914q-1.805 0-3.117-.75a5.08 5.08 0 0 1-2.008-2.14q-.703-1.39-.703-3.274 0-1.85.703-3.25.71-1.405 1.984-2.187 1.274-.789 2.993-.789 1.109 0 2.093.359a4.7 4.7 0 0 1 1.75 1.094q.766.742 1.204 1.891.437 1.14.437 2.718v.868h-9.836v-1.907h7.125a3.04 3.04 0 0 0-.351-1.445 2.57 2.57 0 0 0-.961-1.008q-.61-.367-1.422-.367-.867 0-1.524.422-.656.413-1.023 1.094a3.14 3.14 0 0 0-.367 1.476v1.664q0 1.047.382 1.797.383.742 1.071 1.141.688.39 1.609.39.618 0 1.117-.172.5-.179.868-.523.366-.343.554-.852l2.641.297a4.1 4.1 0 0 1-.953 1.828q-.696.774-1.782 1.204-1.086.421-2.484.421m6.02-.234-.015-2.328h.414q.468 0 .789-.211t.531-.703q.211-.5.328-1.344.117-.843.164-2.101l.211-5.313h8.75v12h-2.734v-9.68h-3.445l-.188 3.868q-.07 1.5-.336 2.601-.257 1.094-.734 1.805a3 3 0 0 1-1.18 1.062q-.711.345-1.68.344zm15.054-8.094h3.539q2.297 0 3.555 1.118 1.257 1.117 1.265 2.929-.007 1.18-.578 2.094-.563.914-1.64 1.437-1.07.516-2.602.516h-5.453v-12h2.727v9.68h2.726q.922 0 1.516-.469.594-.477.594-1.219 0-.781-.594-1.273t-1.516-.492h-3.539zm18.145.922v2.321h-6.39v-2.321zm-5.515-4.828v12h-2.727v-12zm7.367 0v12h-2.719v-12zm7.216 12.234q-1.758 0-3.047-.773a5.25 5.25 0 0 1-2-2.164q-.703-1.39-.703-3.25t.703-3.258q.71-1.398 2-2.172 1.289-.773 3.047-.773 1.757 0 3.047.773 1.288.774 1.992 2.172.711 1.398.711 3.258t-.711 3.25a5.2 5.2 0 0 1-1.992 2.164q-1.29.774-3.047.773m.015-2.265q.954 0 1.594-.524.64-.531.953-1.421.321-.891.321-1.985 0-1.101-.321-1.992-.312-.899-.953-1.43-.64-.531-1.594-.531-.976 0-1.625.531-.64.531-.961 1.43-.312.891-.312 1.992 0 1.094.312 1.985.32.89.961 1.421.649.524 1.625.524m15.193-9.969v2.32h-5.172v9.68h-2.766v-12zm6.127 12.234q-1.757 0-3.046-.773a5.25 5.25 0 0 1-2-2.164q-.704-1.39-.704-3.25t.704-3.258q.71-1.398 2-2.172 1.289-.773 3.046-.773 1.758 0 3.047.773a5.2 5.2 0 0 1 1.992 2.172q.711 1.398.711 3.258t-.711 3.25a5.2 5.2 0 0 1-1.992 2.164q-1.289.774-3.047.773m.016-2.265q.953 0 1.594-.524.64-.531.953-1.421.32-.891.32-1.985 0-1.101-.32-1.992-.312-.899-.953-1.43t-1.594-.531q-.977 0-1.625.531-.64.531-.961 1.43-.312.891-.312 1.992 0 1.094.312 1.985.32.89.961 1.421.648.524 1.625.524m17.066 2.265q-1.796 0-3.086-.789a5.26 5.26 0 0 1-1.976-2.179q-.688-1.399-.688-3.219 0-1.828.703-3.227.704-1.405 1.985-2.187 1.289-.789 3.047-.789 1.461 0 2.586.539a4.4 4.4 0 0 1 1.804 1.508q.672.969.766 2.265h-2.703a2.6 2.6 0 0 0-.782-1.445q-.609-.586-1.632-.586-.867 0-1.524.469-.656.46-1.023 1.328-.36.867-.36 2.078 0 1.227.36 2.109.359.875 1.008 1.352.656.47 1.539.469.624 0 1.117-.235.5-.242.836-.695t.461-1.101h2.703q-.102 1.273-.75 2.257a4.44 4.44 0 0 1-1.766 1.532q-1.118.546-2.625.546m5.712-9.914v-2.32h10.5v2.32h-3.883v9.68h-2.734v-9.68zm14.831 9.922q-1.14 0-2.055-.406a3.35 3.35 0 0 1-1.437-1.219q-.524-.804-.524-1.984 0-1.016.375-1.68t1.024-1.062a5.2 5.2 0 0 1 1.461-.602q.82-.21 1.695-.305a65 65 0 0 0 1.711-.195q.656-.093.953-.281.305-.195.305-.602v-.047q0-.882-.524-1.367-.523-.484-1.507-.484-1.04 0-1.649.453-.602.453-.812 1.07l-2.641-.375q.312-1.093 1.031-1.828a4.5 4.5 0 0 1 1.758-1.109q1.039-.375 2.297-.375.868 0 1.726.203a4.8 4.8 0 0 1 1.571.672q.711.46 1.14 1.258.438.797.438 1.992v8.031h-2.719v-1.648h-.094a3.5 3.5 0 0 1-.726.937 3.5 3.5 0 0 1-1.164.695q-.696.258-1.633.258m.734-2.078q.852 0 1.477-.336a2.5 2.5 0 0 0 .961-.906q.344-.562.344-1.227v-1.414q-.133.11-.454.203a6 6 0 0 1-.703.165q-.39.07-.773.125l-.664.093a5 5 0 0 0-1.133.282q-.5.195-.789.546-.29.344-.289.891 0 .781.57 1.18t1.453.398m7.566 6.336v-16.5h2.781v1.984h.164q.22-.437.617-.929.399-.5 1.078-.852.68-.359 1.735-.359 1.39 0 2.507.711 1.125.703 1.782 2.086.663 1.374.664 3.375 0 1.976-.649 3.359t-1.765 2.109q-1.117.727-2.532.727-1.03 0-1.71-.344a3.5 3.5 0 0 1-1.094-.828 5.3 5.3 0 0 1-.633-.93h-.117v6.391zm2.773-10.5q0 1.164.328 2.039.336.875.961 1.367.633.485 1.531.485.938 0 1.571-.5.632-.509.953-1.383.328-.883.328-2.008 0-1.117-.32-1.984-.321-.867-.953-1.36-.633-.492-1.579-.492-.906 0-1.539.477-.633.476-.961 1.336-.32.86-.32 2.023m8.774-3.68v-2.32h10.5v2.32h-3.882v9.68h-2.735v-9.68zm14.831 9.922q-1.14 0-2.054-.406a3.35 3.35 0 0 1-1.438-1.219q-.523-.804-.523-1.984 0-1.016.375-1.68t1.023-1.062a5.2 5.2 0 0 1 1.461-.602q.82-.21 1.695-.305a64 64 0 0 0 1.711-.195q.657-.093.953-.281.305-.195.305-.602v-.047q0-.882-.523-1.367-.524-.484-1.508-.484-1.039 0-1.649.453-.601.453-.812 1.07l-2.641-.375q.313-1.093 1.032-1.828a4.5 4.5 0 0 1 1.757-1.109q1.04-.375 2.297-.375a7.5 7.5 0 0 1 1.727.203 4.8 4.8 0 0 1 1.57.672q.71.46 1.141 1.258.437.797.437 1.992v8.031h-2.719v-1.648h-.093a3.5 3.5 0 0 1-.727.937 3.5 3.5 0 0 1-1.164.695q-.695.258-1.633.258m.735-2.078q.851 0 1.476-.336a2.5 2.5 0 0 0 .961-.906q.344-.562.344-1.227v-1.414q-.134.11-.453.203a6 6 0 0 1-.703.165q-.392.07-.774.125l-.664.093a5 5 0 0 0-1.133.282q-.5.195-.789.546-.288.344-.289.891 0 .781.571 1.18.57.398 1.453.398m7.565 1.836v-12h10.133v12h-2.727v-9.68h-4.703v9.68zm15.614.242q-1.14 0-2.055-.406a3.35 3.35 0 0 1-1.437-1.219q-.523-.804-.523-1.984 0-1.016.375-1.68t1.023-1.062a5.2 5.2 0 0 1 1.461-.602q.82-.21 1.695-.305a64 64 0 0 0 1.711-.195q.657-.093.953-.281.305-.195.305-.602v-.047q0-.882-.523-1.367-.524-.484-1.508-.484-1.039 0-1.649.453-.602.453-.812 1.07l-2.641-.375q.312-1.093 1.031-1.828a4.5 4.5 0 0 1 1.758-1.109q1.04-.375 2.297-.375a7.5 7.5 0 0 1 1.727.203 4.8 4.8 0 0 1 1.57.672q.71.46 1.141 1.258.437.797.437 1.992v8.031h-2.719v-1.648h-.093a3.5 3.5 0 0 1-.727.937 3.5 3.5 0 0 1-1.164.695q-.696.258-1.633.258m.735-2.078q.85 0 1.476-.336a2.5 2.5 0 0 0 .961-.906q.344-.562.344-1.227v-1.414q-.134.11-.453.203a6 6 0 0 1-.703.165q-.391.07-.774.125l-.664.093a5 5 0 0 0-1.133.282q-.5.195-.789.546-.29.344-.289.891 0 .781.57 1.18.571.398 1.454.398"/><rect width="595" height="61" x="405.48" y="516.978" fill="#fff" rx="30.5"/><rect width="595" height="61" x="405.48" y="516.978" stroke="#000" rx="30.5"/><path fill="#000" d="M435.132 558.478V536.66h8.353q2.365 0 3.931.746 1.577.735 2.354 2.013.789 1.278.789 2.898 0 1.332-.512 2.28a4.3 4.3 0 0 1-1.374 1.523 5.8 5.8 0 0 1-1.928.842v.213a4.7 4.7 0 0 1 2.226.714q1.077.638 1.758 1.811.682 1.171.682 2.833 0 1.695-.82 3.047-.82 1.343-2.472 2.12-1.651.778-4.155.778zm3.953-3.303h4.251q2.152 0 3.1-.82.959-.83.959-2.131a3.26 3.26 0 0 0-1.844-2.982q-.883-.459-2.109-.459h-4.357zm0-9.236h3.91q1.022 0 1.843-.373a3.1 3.1 0 0 0 1.289-1.076q.479-.704.479-1.662 0-1.268-.895-2.088-.884-.82-2.631-.82h-3.995zm20.635 18.675v-22.5h3.793v2.706h.224q.298-.596.841-1.267.543-.682 1.47-1.162.928-.49 2.365-.49 1.897 0 3.42.97 1.535.958 2.429 2.844.906 1.875.906 4.603 0 2.694-.885 4.58-.884 1.886-2.407 2.877t-3.452.991q-1.406 0-2.333-.469-.927-.47-1.492-1.129a7.3 7.3 0 0 1-.862-1.268h-.16v8.714zm3.782-14.318q0 1.587.448 2.781.458 1.193 1.31 1.864.863.66 2.088.661 1.278 0 2.141-.682.864-.693 1.3-1.886.447-1.203.448-2.738 0-1.523-.437-2.706-.437-1.182-1.3-1.853-.863-.672-2.152-.672-1.236 0-2.099.65t-1.31 1.822q-.437 1.172-.437 2.759m18.477 8.512q-1.555 0-2.802-.554a4.57 4.57 0 0 1-1.96-1.662q-.714-1.096-.714-2.706 0-1.384.512-2.29a3.95 3.95 0 0 1 1.395-1.449 7 7 0 0 1 1.992-.82 16 16 0 0 1 2.312-.416 90 90 0 0 0 2.333-.266q.895-.128 1.3-.384.415-.266.415-.82v-.064q0-1.203-.713-1.864-.714-.661-2.056-.661-1.417 0-2.248.618-.821.618-1.108 1.46l-3.601-.512q.426-1.491 1.406-2.493a6.1 6.1 0 0 1 2.397-1.512q1.417-.512 3.132-.512 1.183 0 2.355.277t2.141.917q.97.628 1.555 1.715.597 1.087.597 2.716v10.952h-3.707v-2.248h-.128a4.7 4.7 0 0 1-.991 1.279q-.628.585-1.587.948-.95.351-2.227.351m1.001-2.834q1.162 0 2.014-.458a3.4 3.4 0 0 0 1.31-1.235 3.15 3.15 0 0 0 .469-1.673v-1.928q-.181.148-.618.277-.426.128-.959.223a30 30 0 0 1-1.054.171l-.906.128a6.8 6.8 0 0 0-1.545.383q-.681.267-1.076.746-.394.468-.394 1.214 0 1.066.778 1.609.777.543 1.981.543m19.734-1.981 4.858-11.879h3.111l-6.616 16.364h-2.695l-6.467-16.364h3.079zm-5.699-11.879v16.364h-3.718v-16.364zm11.559 16.364v-16.364h3.686v16.364zm6.374 0v-16.364h3.857v6.606h1.406l4.922-6.606h4.645l-6.062 8.033 6.126 8.331h-4.666l-4.485-6.168h-1.886v6.168zm20.589.33q-1.555 0-2.802-.554a4.57 4.57 0 0 1-1.96-1.662q-.714-1.096-.714-2.706 0-1.384.512-2.29a3.96 3.96 0 0 1 1.395-1.449 7 7 0 0 1 1.993-.82 16 16 0 0 1 2.311-.416 90 90 0 0 0 2.333-.266q.895-.128 1.3-.384.416-.266.416-.82v-.064q0-1.203-.714-1.864t-2.056-.661q-1.417 0-2.248.618-.82.618-1.108 1.46l-3.601-.512q.426-1.491 1.406-2.493a6.1 6.1 0 0 1 2.397-1.512q1.418-.512 3.132-.512 1.183 0 2.355.277t2.141.917q.97.628 1.556 1.715.596 1.087.596 2.716v10.952h-3.707v-2.248h-.128a4.7 4.7 0 0 1-.991 1.279q-.628.585-1.587.948-.949.351-2.227.351m1.002-2.834q1.161 0 2.013-.458a3.4 3.4 0 0 0 1.311-1.235 3.15 3.15 0 0 0 .468-1.673v-1.928q-.18.148-.618.277-.426.128-.958.223-.534.096-1.055.171l-.906.128a6.8 6.8 0 0 0-1.544.383q-.683.267-1.076.746-.395.468-.395 1.214 0 1.066.778 1.609t1.982.543m13.469-13.86 3.303 6.041 3.356-6.041h4.08l-4.933 8.182 5.018 8.182h-4.059l-3.462-5.891-3.43 5.891h-4.091l4.985-8.182-4.858-8.182zm18.763 16.364v-16.364h13.818v16.364h-3.718v-13.2h-6.414v13.2zm16.584 6.136v-22.5h3.792v2.706h.224q.298-.596.842-1.267.543-.682 1.47-1.162.927-.49 2.365-.49 1.896 0 3.42.97 1.534.958 2.428 2.844.906 1.875.906 4.603 0 2.694-.884 4.58-.885 1.886-2.408 2.877-1.524.99-3.452.991-1.406 0-2.333-.469-.927-.47-1.491-1.129a7.3 7.3 0 0 1-.863-1.268h-.16v8.714zm3.782-14.318q0 1.587.447 2.781.458 1.193 1.31 1.864.864.66 2.088.661 1.279 0 2.142-.682.863-.693 1.299-1.886.448-1.203.448-2.738 0-1.523-.437-2.706-.436-1.182-1.3-1.853-.862-.672-2.152-.672-1.235 0-2.098.65t-1.311 1.822q-.436 1.172-.436 2.759m20.905 8.502q-2.397 0-4.154-1.055t-2.728-2.951q-.959-1.897-.959-4.432t.959-4.442q.97-1.908 2.728-2.962 1.757-1.055 4.154-1.055t4.155 1.055q1.758 1.054 2.717 2.962.969 1.907.969 4.442t-.969 4.432q-.959 1.896-2.717 2.951t-4.155 1.055m.022-3.09q1.3 0 2.173-.714.873-.724 1.3-1.939.436-1.213.436-2.706 0-1.501-.436-2.716-.427-1.226-1.3-1.95t-2.173-.724q-1.332 0-2.216.724-.874.725-1.311 1.95-.426 1.215-.426 2.716 0 1.492.426 2.706.437 1.215 1.311 1.939.884.714 2.216.714m20.716-13.594v3.164h-7.052v13.2h-3.771v-16.364zm1.893 22.5v-22.5h3.792v2.706h.224q.298-.596.841-1.267.544-.682 1.471-1.162.927-.49 2.365-.49 1.896 0 3.419.97 1.535.958 2.429 2.844.906 1.875.906 4.603 0 2.694-.884 4.58-.885 1.886-2.408 2.877-1.524.99-3.452.991-1.406 0-2.333-.469-.927-.47-1.491-1.129a7.3 7.3 0 0 1-.863-1.268h-.16v8.714zm3.782-14.318q0 1.587.447 2.781.458 1.193 1.31 1.864.864.66 2.088.661 1.279 0 2.142-.682.863-.693 1.299-1.886.448-1.203.448-2.738 0-1.523-.437-2.706-.436-1.182-1.3-1.853-.862-.672-2.152-.672-1.235 0-2.098.65t-1.311 1.822q-.436 1.172-.436 2.759m18.476 8.512q-1.556 0-2.801-.554a4.57 4.57 0 0 1-1.961-1.662q-.714-1.096-.713-2.706 0-1.384.511-2.29a3.96 3.96 0 0 1 1.395-1.449 7 7 0 0 1 1.993-.82 16 16 0 0 1 2.311-.416 90 90 0 0 0 2.334-.266q.894-.128 1.299-.384.416-.266.416-.82v-.064q0-1.203-.714-1.864t-2.056-.661q-1.417 0-2.248.618-.82.618-1.108 1.46l-3.601-.512q.426-1.491 1.406-2.493a6.1 6.1 0 0 1 2.397-1.512q1.417-.512 3.133-.512 1.182 0 2.354.277t2.141.917q.97.628 1.556 1.715.596 1.087.596 2.716v10.952h-3.707v-2.248h-.128a4.7 4.7 0 0 1-.991 1.279q-.628.585-1.587.948-.948.351-2.227.351m1.002-2.834q1.161 0 2.013-.458a3.4 3.4 0 0 0 1.311-1.235 3.15 3.15 0 0 0 .468-1.673v-1.928q-.18.148-.618.277-.426.128-.958.223-.533.096-1.055.171l-.906.128a6.8 6.8 0 0 0-1.544.383q-.682.267-1.076.746-.394.468-.394 1.214 0 1.066.777 1.609.778.543 1.982.543m19.734-1.981 4.858-11.879h3.11l-6.615 16.364h-2.696l-6.466-16.364h3.079zm-5.7-11.879v16.364h-3.718v-16.364zm11.559 16.364v-16.364h3.686v16.364zm15.792-4.485 4.858-11.879h3.111l-6.616 16.364h-2.695l-6.467-16.364h3.079zm-5.699-11.879v16.364h-3.718v-16.364zm11.559 16.364v-16.364h3.686v16.364zm8.984-11.037h4.826q3.132 0 4.848 1.524 1.714 1.523 1.725 3.995-.01 1.608-.788 2.855-.767 1.246-2.237 1.96-1.46.703-3.548.703h-7.436v-16.364h3.718v13.2h3.718q1.257 0 2.067-.639.81-.65.81-1.662 0-1.065-.81-1.737-.81-.67-2.067-.671h-4.826zm13.434 11.037v-16.364h3.857v16.364zm12.875 0v-16.364h13.817v16.364h-3.718v-13.2h-6.413v13.2zm16.583 6.136v-22.5h3.792v2.706h.224q.299-.596.842-1.267.543-.682 1.47-1.162.927-.49 2.365-.49 1.896 0 3.42.97 1.533.958 2.429 2.844.905 1.875.905 4.603 0 2.694-.884 4.58t-2.408 2.877-3.451.991q-1.407 0-2.333-.469-.928-.47-1.492-1.129a7.3 7.3 0 0 1-.863-1.268h-.16v8.714zm3.782-14.318q0 1.587.447 2.781.458 1.193 1.311 1.864.863.66 2.088.661 1.278 0 2.141-.682.862-.693 1.3-1.886.447-1.203.447-2.738 0-1.523-.437-2.706-.437-1.182-1.299-1.853-.864-.672-2.152-.672-1.236 0-2.099.65t-1.31 1.822q-.438 1.172-.437 2.759m21.012 8.502q-2.46 0-4.251-1.023-1.778-1.033-2.738-2.919-.958-1.896-.958-4.464 0-2.524.958-4.432.97-1.917 2.706-2.983 1.737-1.076 4.081-1.076 1.512 0 2.855.49 1.353.48 2.386 1.492 1.044 1.012 1.641 2.578.597 1.556.596 3.707v1.183h-13.412v-2.6h9.716q-.01-1.107-.48-1.97a3.5 3.5 0 0 0-1.31-1.375q-.83-.5-1.939-.5-1.183 0-2.077.575a3.96 3.96 0 0 0-1.396 1.491 4.3 4.3 0 0 0-.501 2.014v2.269q0 1.428.522 2.45a3.73 3.73 0 0 0 1.46 1.556q.937.532 2.194.532.842 0 1.524-.234a3.4 3.4 0 0 0 1.182-.714 3 3 0 0 0 .757-1.161l3.601.405a5.6 5.6 0 0 1-1.3 2.493q-.948 1.055-2.429 1.64-1.481.576-3.388.576m7.89 4.431v-7.926h1.3q.522-.404.873-1.097a7.6 7.6 0 0 0 .576-1.651 19 19 0 0 0 .383-2.142q.15-1.193.267-2.567l.468-5.732h11.826v13.189h2.535v7.926h-3.729v-4.751h-10.706v4.751zm5.263-7.926h6.744v-10.078h-4.794l-.256 2.621q-.213 2.6-.565 4.453t-1.129 3.004m17.041 9.311a8 8 0 0 1-1.459-.127 5.5 5.5 0 0 1-1.055-.277l.895-3.005q.842.246 1.502.235.66-.01 1.161-.416.512-.394.863-1.321l.33-.884-5.934-16.705h4.091l3.772 12.358h.17l3.782-12.358h4.102l-6.552 18.346q-.458 1.299-1.215 2.226a4.94 4.94 0 0 1-1.853 1.428q-1.087.5-2.6.5m20.27-5.816q-2.451 0-4.209-1.076-1.746-1.076-2.695-2.973-.937-1.907-.937-4.389 0-2.493.958-4.4.96-1.917 2.706-2.983 1.758-1.076 4.155-1.076 1.993 0 3.526.735 1.545.725 2.461 2.057.917 1.32 1.044 3.089h-3.686a3.53 3.53 0 0 0-1.065-1.971q-.83-.8-2.227-.799-1.182 0-2.077.639-.895.629-1.396 1.811-.49 1.183-.49 2.834 0 1.673.49 2.877.49 1.192 1.375 1.843.895.639 2.098.639.853 0 1.524-.32a3.1 3.1 0 0 0 1.14-.948q.458-.618.628-1.502h3.686q-.138 1.737-1.022 3.079-.885 1.332-2.408 2.088-1.524.746-3.579.746m18.394-4.805 4.858-11.879h3.111l-6.616 16.364h-2.696l-6.466-16.364h3.079zm-5.7-11.879v16.364h-3.718v-16.364zm11.559 16.364v-16.364h3.686v16.364zm13.513.32q-2.398 0-4.155-1.055t-2.728-2.951q-.958-1.897-.958-4.432t.958-4.442q.97-1.908 2.728-2.962 1.757-1.055 4.155-1.055 2.396 0 4.154 1.055t2.717 2.962q.969 1.907.969 4.442t-.969 4.432q-.959 1.896-2.717 2.951t-4.154 1.055m.021-3.09q1.3 0 2.173-.714.873-.724 1.3-1.939.437-1.213.437-2.706 0-1.501-.437-2.716-.427-1.226-1.3-1.95-.874-.724-2.173-.724-1.332 0-2.216.724-.873.725-1.31 1.95-.427 1.215-.427 2.716 0 1.492.427 2.706.437 1.215 1.31 1.939.884.714 2.216.714m8.09-10.43v-3.164h14.318v3.164h-5.295v13.2h-3.729v-13.2zm16.189 19.336v-22.5h3.792v2.706h.224q.298-.596.842-1.267.543-.682 1.47-1.162.927-.49 2.365-.49 1.896 0 3.42.97 1.533.958 2.429 2.844.905 1.875.905 4.603 0 2.694-.884 4.58-.885 1.886-2.408 2.877t-3.452.991q-1.406 0-2.333-.469-.927-.47-1.491-1.129a7.3 7.3 0 0 1-.863-1.268h-.16v8.714zm3.782-14.318q0 1.587.447 2.781.458 1.193 1.31 1.864.864.66 2.088.661 1.28 0 2.142-.682.862-.693 1.3-1.886.447-1.203.447-2.738 0-1.523-.437-2.706-.436-1.182-1.3-1.853-.862-.672-2.152-.672-1.235 0-2.098.65t-1.311 1.822q-.436 1.172-.436 2.759m21.012 8.502q-2.461 0-4.251-1.023-1.779-1.033-2.738-2.919-.958-1.896-.958-4.464 0-2.524.958-4.432.97-1.917 2.706-2.983 1.737-1.076 4.081-1.076 1.512 0 2.855.49 1.353.48 2.386 1.492 1.044 1.012 1.641 2.578.596 1.556.596 3.707v1.183h-13.412v-2.6h9.716q-.011-1.107-.48-1.97a3.5 3.5 0 0 0-1.31-1.375q-.832-.5-1.939-.5-1.183 0-2.078.575a3.96 3.96 0 0 0-1.395 1.491 4.3 4.3 0 0 0-.501 2.014v2.269q0 1.428.522 2.45a3.73 3.73 0 0 0 1.46 1.556q.937.532 2.194.532.842 0 1.524-.234a3.4 3.4 0 0 0 1.182-.714 3 3 0 0 0 .757-1.161l3.6.405a5.6 5.6 0 0 1-1.299 2.493q-.948 1.055-2.429 1.64-1.481.576-3.388.576m20.578-10.1v3.164h-8.714v-3.164zm-7.521-6.584v16.364h-3.718v-16.364zm10.046 0v16.364h-3.707v-16.364zm5.312 5.327h4.826q3.132 0 4.847 1.524 1.716 1.523 1.726 3.995-.01 1.608-.788 2.855-.767 1.246-2.238 1.96-1.46.703-3.547.703h-7.436v-16.364h3.718v13.2h3.718q1.257 0 2.067-.639.809-.65.809-1.662 0-1.065-.809-1.737-.81-.67-2.067-.671h-4.826zm13.434 11.037v-16.364h3.856v16.364zm9.008.234q-.97 0-1.661-.681a2.2 2.2 0 0 1-.682-1.662q-.01-.96.682-1.641a2.28 2.28 0 0 1 1.661-.682q.938 0 1.63.682a2.24 2.24 0 0 1 .373 2.823 2.45 2.45 0 0 1-.852.852 2.2 2.2 0 0 1-1.151.309m0-11.676a2.28 2.28 0 0 1-1.661-.682 2.23 2.23 0 0 1-.682-1.661q-.01-.96.682-1.641a2.26 2.26 0 0 1 1.661-.693q.938 0 1.63.693.703.681.714 1.641a2.25 2.25 0 0 1-.341 1.171q-.32.534-.852.853a2.16 2.16 0 0 1-1.151.319"/></svg>