<svg width="1441" height="285" viewBox="0 0 1441 285" fill="none" xmlns="http://www.w3.org/2000/svg">
<path d="M341.543 50.0916C346.306 56.7695 345.583 65.7326 339.936 76.3338C334.298 86.9171 323.81 99.0193 309.299 111.877C280.283 137.588 235.27 166.247 181.135 191.748C127.001 217.249 74.0285 234.749 32.155 242.433C11.2147 246.275 -6.91965 247.657 -21.0217 246.372C-35.1476 245.086 -45.0771 241.141 -49.8402 234.463C-54.6033 227.785 -53.8806 218.821 -48.2335 208.22C-42.596 197.637 -32.1074 185.535 -17.5971 172.678C11.419 146.967 56.4317 118.307 110.566 92.8061C164.7 67.3047 217.673 49.8059 259.547 42.1221C280.487 38.2795 298.622 36.897 312.724 38.1815C326.85 39.4682 336.78 43.4136 341.543 50.0916Z" fill="black" stroke="white"/>
<path d="M435.504 50.0916C440.267 56.7695 439.544 65.7326 433.897 76.3338C428.259 86.9171 417.771 99.0193 403.26 111.877C374.244 137.588 329.231 166.247 275.096 191.748C220.962 217.249 167.989 234.749 126.116 242.433C105.176 246.275 87.0413 247.657 72.9392 246.372C58.8133 245.086 48.8838 241.141 44.1207 234.463C39.3576 227.785 40.0803 218.821 45.7275 208.22C51.365 197.637 61.8535 185.535 76.3638 172.678C105.38 146.967 150.393 118.307 204.527 92.8061C258.661 67.3047 311.634 49.8059 353.508 42.1221C374.448 38.2795 392.583 36.897 406.685 38.1815C420.811 39.4682 430.741 43.4136 435.504 50.0916Z" fill="black" stroke="white"/>
<path d="M570.996 50.0916C575.759 56.7695 575.036 65.7326 569.389 76.3338C563.751 86.9171 553.263 99.0193 538.752 111.877C509.736 137.588 464.723 166.247 410.589 191.748C356.454 217.249 303.482 234.749 261.608 242.433C240.668 246.275 222.533 247.657 208.431 246.372C194.306 245.086 184.376 241.141 179.613 234.463C174.85 227.785 175.573 218.821 181.22 208.22C186.857 197.637 197.346 185.535 211.856 172.678C240.872 146.967 285.885 118.307 340.019 92.8061C394.153 67.3047 447.126 49.8059 489 42.1221C509.941 38.2795 528.075 36.897 542.177 38.1815C556.303 39.4682 566.233 43.4136 570.996 50.0916Z" fill="black" stroke="white"/>
<path d="M700.934 50.0916C705.696 56.7695 704.973 65.7326 699.326 76.3338C693.689 86.9171 683.2 99.0193 668.69 111.877C639.673 137.588 594.66 166.247 540.526 191.748C486.392 217.249 433.419 234.749 391.546 242.433C370.605 246.275 352.471 247.657 338.369 246.372C324.243 245.086 314.314 241.141 309.55 234.463C304.787 227.785 305.51 218.821 311.157 208.22C316.795 197.637 327.283 185.535 341.794 172.678C370.81 146.967 415.822 118.307 469.956 92.8061C524.091 67.3047 577.064 49.8059 618.938 42.1221C639.878 38.2795 658.012 36.897 672.115 38.1815C686.241 39.4682 696.171 43.4136 700.934 50.0916Z" fill="black" stroke="white"/>
<path d="M815.254 50.0916C820.017 56.7695 819.294 65.7326 813.647 76.3338C808.009 86.9171 797.521 99.0193 783.01 111.877C753.994 137.588 708.981 166.247 654.846 191.748C600.712 217.249 547.739 234.749 505.866 242.433C484.926 246.275 466.791 247.657 452.689 246.372C438.563 245.086 428.634 241.141 423.871 234.463C419.108 227.785 419.83 218.821 425.477 208.22C431.115 197.637 441.604 185.535 456.114 172.678C485.13 146.967 530.143 118.307 584.277 92.8061C638.411 67.3047 691.384 49.8059 733.258 42.1221C754.198 38.2795 772.333 36.897 786.435 38.1815C800.561 39.4682 810.491 43.4136 815.254 50.0916Z" fill="black" stroke="white"/>
<path d="M932.652 50.0916C937.415 56.7695 936.692 65.7326 931.045 76.3338C925.408 86.9171 914.919 99.0193 900.408 111.877C871.392 137.588 826.379 166.247 772.245 191.748C718.111 217.249 665.138 234.749 623.264 242.433C602.324 246.275 584.19 247.657 570.088 246.372C555.962 245.086 546.032 241.141 541.269 234.463C536.506 227.785 537.229 218.821 542.876 208.22C548.513 197.637 559.002 185.535 573.512 172.678C602.528 146.967 647.541 118.307 701.675 92.8061C755.81 67.3047 808.783 49.8059 850.656 42.1221C871.597 38.2795 889.731 36.897 903.833 38.1815C917.959 39.4682 927.889 43.4136 932.652 50.0916Z" fill="black" stroke="white"/>
<path d="M1017.74 50.0916C1022.51 56.7695 1021.78 65.7326 1016.14 76.3338C1010.5 86.9171 1000.01 99.0193 985.5 111.877C956.484 137.588 911.471 166.247 857.337 191.748C803.202 217.249 750.23 234.749 708.356 242.433C687.416 246.275 669.282 247.657 655.179 246.372C641.054 245.086 631.124 241.141 626.361 234.463C621.598 227.785 622.321 218.821 627.968 208.22C633.605 197.637 644.094 185.535 658.604 172.678C687.62 146.967 732.633 118.307 786.767 92.8061C840.901 67.3047 893.875 49.8059 935.748 42.1221C956.689 38.2795 974.823 36.897 988.925 38.1815C1003.05 39.4682 1012.98 43.4136 1017.74 50.0916Z" fill="black" stroke="white"/>
<path d="M1093.82 50.0916C1098.58 56.7695 1097.86 65.7326 1092.21 76.3338C1086.57 86.9171 1076.08 99.0193 1061.57 111.877C1032.56 137.588 987.543 166.247 933.409 191.748C879.275 217.249 826.302 234.749 784.428 242.433C763.488 246.275 745.354 247.657 731.252 246.372C717.126 245.086 707.196 241.141 702.433 234.463C697.67 227.785 698.393 218.821 704.04 208.22C709.677 197.637 720.166 185.535 734.676 172.678C763.692 146.967 808.705 118.307 862.839 92.8061C916.974 67.3047 969.947 49.8059 1011.82 42.1221C1032.76 38.2795 1050.9 36.897 1065 38.1815C1079.12 39.4682 1089.05 43.4136 1093.82 50.0916Z" fill="black" stroke="white"/>
<path d="M1164.37 50.0916C1169.13 56.7695 1168.41 65.7326 1162.76 76.3338C1157.12 86.9171 1146.64 99.0193 1132.13 111.877C1103.11 137.588 1058.1 166.247 1003.96 191.748C949.827 217.249 896.855 234.749 854.981 242.433C834.041 246.275 815.907 247.657 801.804 246.372C787.679 245.086 777.749 241.141 772.986 234.463C768.223 227.785 768.946 218.821 774.593 208.22C780.23 197.637 790.719 185.535 805.229 172.678C834.245 146.967 879.258 118.307 933.392 92.8061C987.526 67.3047 1040.5 49.8059 1082.37 42.1221C1103.31 38.2795 1121.45 36.897 1135.55 38.1815C1149.68 39.4682 1159.61 43.4136 1164.37 50.0916Z" fill="black" stroke="white"/>
<path d="M1248.67 50.0916C1253.44 56.7695 1252.71 65.7326 1247.07 76.3338C1241.43 86.9171 1230.94 99.0193 1216.43 111.877C1187.41 137.588 1142.4 166.247 1088.27 191.748C1034.13 217.249 981.159 234.749 939.286 242.433C918.346 246.275 900.211 247.657 886.109 246.372C871.983 245.086 862.054 241.141 857.291 234.463C852.528 227.785 853.25 218.821 858.897 208.22C864.535 197.637 875.023 185.535 889.534 172.678C918.55 146.967 963.563 118.307 1017.7 92.8061C1071.83 67.3047 1124.8 49.8059 1166.68 42.1221C1187.62 38.2795 1205.75 36.897 1219.85 38.1815C1233.98 39.4682 1243.91 43.4136 1248.67 50.0916Z" fill="black" stroke="white"/>
<path d="M1319.83 50.0916C1324.59 56.7695 1323.87 65.7326 1318.22 76.3338C1312.58 86.9171 1302.09 99.0193 1287.58 111.877C1258.57 137.588 1213.55 166.247 1159.42 191.748C1105.28 217.249 1052.31 234.749 1010.44 242.433C989.498 246.275 971.364 247.657 957.262 246.372C943.136 245.086 933.206 241.141 928.443 234.463C923.68 227.785 924.403 218.821 930.05 208.22C935.687 197.637 946.176 185.535 960.686 172.678C989.702 146.967 1034.71 118.307 1088.85 92.8061C1142.98 67.3047 1195.96 49.8059 1237.83 42.1221C1258.77 38.2795 1276.9 36.897 1291.01 38.1815C1305.13 39.4682 1315.06 43.4136 1319.83 50.0916Z" fill="black" stroke="white"/>
<path d="M1414.96 50.0916C1419.72 56.7695 1418.99 65.7326 1413.35 76.3338C1407.71 86.9171 1397.22 99.0193 1382.71 111.877C1353.69 137.588 1308.68 166.247 1254.55 191.748C1200.41 217.249 1147.44 234.749 1105.57 242.433C1084.63 246.275 1066.49 247.657 1052.39 246.372C1038.26 245.086 1028.34 241.141 1023.57 234.463C1018.81 227.785 1019.53 218.821 1025.18 208.22C1030.82 197.637 1041.3 185.535 1055.82 172.678C1084.83 146.967 1129.84 118.307 1183.98 92.8061C1238.11 67.3047 1291.09 49.8059 1332.96 42.1221C1353.9 38.2795 1372.03 36.897 1386.14 38.1815C1400.26 39.4682 1410.19 43.4136 1414.96 50.0916Z" fill="black" stroke="white"/>
<path d="M1512.56 50.0916C1517.32 56.7695 1516.6 65.7326 1510.95 76.3338C1505.32 86.9171 1494.83 99.0193 1480.32 111.877C1451.3 137.588 1406.29 166.247 1352.15 191.748C1298.02 217.249 1245.05 234.749 1203.17 242.433C1182.23 246.275 1164.1 247.657 1150 246.372C1135.87 245.086 1125.94 241.141 1121.18 234.463C1116.41 227.785 1117.14 218.821 1122.78 208.22C1128.42 197.637 1138.91 185.535 1153.42 172.678C1182.44 146.967 1227.45 118.307 1281.58 92.8061C1335.72 67.3047 1388.69 49.8059 1430.56 42.1221C1451.5 38.2795 1469.64 36.897 1483.74 38.1815C1497.87 39.4682 1507.8 43.4136 1512.56 50.0916Z" fill="black" stroke="white"/>
<path d="M1590.96 50.0916C1595.73 56.7695 1595 65.7326 1589.36 76.3338C1583.72 86.9171 1573.23 99.0193 1558.72 111.877C1529.7 137.588 1484.69 166.247 1430.56 191.748C1376.42 217.249 1323.45 234.749 1281.57 242.433C1260.63 246.275 1242.5 247.657 1228.4 246.372C1214.27 245.086 1204.34 241.141 1199.58 234.463C1194.82 227.785 1195.54 218.821 1201.19 208.22C1206.82 197.637 1217.31 185.535 1231.82 172.678C1260.84 146.967 1305.85 118.307 1359.99 92.8061C1414.12 67.3047 1467.09 49.8059 1508.97 42.1221C1529.91 38.2795 1548.04 36.897 1562.14 38.1815C1576.27 39.4682 1586.2 43.4136 1590.96 50.0916Z" fill="black" stroke="white"/>
<path d="M1673.13 50.0916C1677.89 56.7695 1677.17 65.7326 1671.52 76.3338C1665.89 86.9171 1655.4 99.0193 1640.89 111.877C1611.87 137.588 1566.86 166.247 1512.72 191.748C1458.59 217.249 1405.62 234.749 1363.74 242.433C1342.8 246.275 1324.67 247.657 1310.57 246.372C1296.44 245.086 1286.51 241.141 1281.75 234.463C1276.98 227.785 1277.71 218.821 1283.35 208.22C1288.99 197.637 1299.48 185.535 1313.99 172.678C1343.01 146.967 1388.02 118.307 1442.15 92.8061C1496.29 67.3047 1549.26 49.8059 1591.13 42.1221C1612.08 38.2795 1630.21 36.897 1644.31 38.1815C1658.44 39.4682 1668.37 43.4136 1673.13 50.0916Z" fill="black" stroke="white"/>
<path d="M1751.53 50.0916C1756.3 56.7695 1755.57 65.7326 1749.93 76.3338C1744.29 86.9171 1733.8 99.0193 1719.29 111.877C1690.27 137.588 1645.26 166.247 1591.13 191.748C1536.99 217.249 1484.02 234.749 1442.15 242.433C1421.2 246.275 1403.07 247.657 1388.97 246.372C1374.84 245.086 1364.91 241.141 1360.15 234.463C1355.39 227.785 1356.11 218.821 1361.76 208.22C1367.39 197.637 1377.88 185.535 1392.39 172.678C1421.41 146.967 1466.42 118.307 1520.56 92.8061C1574.69 67.3047 1627.66 49.8059 1669.54 42.1221C1690.48 38.2795 1708.61 36.897 1722.71 38.1815C1736.84 39.4682 1746.77 43.4136 1751.53 50.0916Z" fill="black" stroke="white"/>
</svg>
