<svg width="1271" height="285" viewBox="0 0 1271 285" fill="none" xmlns="http://www.w3.org/2000/svg">
<path d="M347.29 50.1286C351.165 56.8139 350.572 65.7727 345.991 76.3554C341.414 86.9271 332.897 99.0198 321.109 111.872C297.537 137.573 260.965 166.226 216.978 191.723C172.991 217.22 129.951 234.713 95.9342 242.394C78.9227 246.235 64.1964 247.616 52.7483 246.333C41.2882 245.048 33.2196 241.11 29.3445 234.425C25.4696 227.739 26.0628 218.781 30.644 208.199C35.2206 197.627 43.7375 185.534 55.5255 172.682C79.0974 146.981 115.669 118.329 159.656 92.8316C203.643 67.3345 246.683 49.8406 280.7 42.1598C297.712 38.3188 312.438 36.9385 323.886 38.2215C335.346 39.5059 343.414 43.4435 347.29 50.1286Z" fill="white" stroke="black"/>
<path d="M423.651 50.1286C427.526 56.8139 426.933 65.7727 422.352 76.3554C417.775 86.9271 409.258 99.0198 397.47 111.872C373.898 137.573 337.326 166.226 293.339 191.723C249.352 217.22 206.312 234.713 172.295 242.394C155.284 246.235 140.558 247.616 129.11 246.333C117.649 245.048 109.581 241.11 105.706 234.425C101.831 227.739 102.424 218.781 107.005 208.199C111.582 197.627 120.099 185.534 131.887 172.682C155.459 146.981 192.03 118.329 236.017 92.8316C280.004 67.3345 323.045 49.8406 357.062 42.1598C374.073 38.3188 388.8 36.9385 400.248 38.2215C411.707 39.5059 419.776 43.4435 423.651 50.1286Z" fill="white" stroke="black"/>
<path d="M533.762 50.1286C537.637 56.8139 537.044 65.7727 532.463 76.3554C527.887 86.9271 519.37 99.0198 507.582 111.872C484.01 137.573 447.438 166.226 403.451 191.723C359.464 217.22 316.424 234.713 282.407 242.394C265.395 246.235 250.669 247.616 239.221 246.333C227.761 245.048 219.692 241.11 215.817 234.425C211.942 227.739 212.535 218.781 217.117 208.199C221.693 197.627 230.21 185.534 241.998 172.682C265.57 146.981 302.141 118.329 346.128 92.8316C390.116 67.3345 433.156 49.8406 467.173 42.1598C484.184 38.3188 498.911 36.9385 510.359 38.2215C521.819 39.5059 529.887 43.4435 533.762 50.1286Z" fill="white" stroke="black"/>
<path d="M639.362 50.1286C643.237 56.8139 642.644 65.7727 638.063 76.3554C633.486 86.9271 624.969 99.0198 613.181 111.872C589.609 137.573 553.037 166.226 509.05 191.723C465.063 217.22 422.023 234.713 388.006 242.394C370.995 246.235 356.269 247.616 344.821 246.333C333.36 245.048 325.292 241.11 321.417 234.425C317.542 227.739 318.135 218.781 322.716 208.199C327.293 197.627 335.81 185.534 347.598 172.682C371.17 146.981 407.741 118.329 451.728 92.8316C495.715 67.3345 538.756 49.8406 572.773 42.1598C589.784 38.3188 604.51 36.9385 615.959 38.2215C627.418 39.5059 635.487 43.4435 639.362 50.1286Z" fill="white" stroke="black"/>
<path d="M732.27 50.1286C736.145 56.8139 735.552 65.7727 730.971 76.3554C726.394 86.9271 717.877 99.0198 706.089 111.872C682.518 137.573 645.946 166.226 601.958 191.723C557.971 217.22 514.932 234.713 480.915 242.394C463.903 246.235 449.177 247.616 437.729 246.333C426.269 245.048 418.2 241.11 414.325 234.425C410.45 227.739 411.043 218.781 415.624 208.199C420.201 197.627 428.718 185.534 440.506 172.682C464.078 146.981 500.649 118.329 544.636 92.8316C588.623 67.3345 631.664 49.8406 665.681 42.1598C682.692 38.3188 697.419 36.9385 708.867 38.2215C720.327 39.5059 728.395 43.4435 732.27 50.1286Z" fill="white" stroke="black"/>
<path d="M827.678 50.1286C831.553 56.8139 830.96 65.7727 826.379 76.3554C821.803 86.9271 813.286 99.0198 801.498 111.872C777.926 137.573 741.354 166.226 697.367 191.723C653.38 217.22 610.34 234.713 576.323 242.394C559.311 246.235 544.585 247.616 533.137 246.333C521.677 245.048 513.608 241.11 509.733 234.425C505.858 227.739 506.451 218.781 511.033 208.199C515.609 197.627 524.126 185.534 535.914 172.682C559.486 146.981 596.057 118.329 640.044 92.8316C684.032 67.3345 727.072 49.8406 761.089 42.1598C778.1 38.3188 792.827 36.9385 804.275 38.2215C815.735 39.5059 823.803 43.4435 827.678 50.1286Z" fill="white" stroke="black"/>
<path d="M896.833 50.1286C900.708 56.8139 900.115 65.7727 895.533 76.3554C890.957 86.9271 882.44 99.0198 870.652 111.872C847.08 137.573 810.508 166.226 766.521 191.723C722.534 217.22 679.494 234.713 645.477 242.394C628.466 246.235 613.739 247.616 602.291 246.333C590.831 245.048 582.763 241.11 578.887 234.425C575.013 227.739 575.606 218.781 580.187 208.199C584.764 197.627 593.28 185.534 605.069 172.682C628.64 146.981 665.212 118.329 709.199 92.8316C753.186 67.3345 796.226 49.8406 830.243 42.1598C847.255 38.3188 861.981 36.9385 873.429 38.2215C884.889 39.5059 892.957 43.4435 896.833 50.1286Z" fill="white" stroke="black"/>
<path d="M958.657 50.1286C962.532 56.8139 961.939 65.7727 957.358 76.3554C952.781 86.9271 944.264 99.0198 932.476 111.872C908.904 137.573 872.332 166.226 828.345 191.723C784.358 217.22 741.318 234.713 707.301 242.394C690.29 246.235 675.564 247.616 664.115 246.333C652.655 245.048 644.587 241.11 640.712 234.425C636.837 227.739 637.43 218.781 642.011 208.199C646.588 197.627 655.105 185.534 666.893 172.682C690.465 146.981 727.036 118.329 771.023 92.8316C815.01 67.3345 858.051 49.8406 892.068 42.1598C909.079 38.3188 923.805 36.9385 935.253 38.2215C946.713 39.5059 954.782 43.4435 958.657 50.1286Z" fill="white" stroke="black"/>
<path d="M1015.99 50.1286C1019.87 56.8139 1019.28 65.7727 1014.7 76.3554C1010.12 86.9271 1001.6 99.0198 989.814 111.872C966.242 137.573 929.67 166.226 885.683 191.723C841.696 217.22 798.656 234.713 764.639 242.394C747.628 246.235 732.901 247.616 721.453 246.333C709.993 245.048 701.925 241.11 698.05 234.425C694.175 227.739 694.768 218.781 699.349 208.199C703.926 197.627 712.443 185.534 724.231 172.682C747.802 146.981 784.374 118.329 828.361 92.8316C872.348 67.3345 915.388 49.8406 949.405 42.1598C966.417 38.3188 981.143 36.9385 992.591 38.2215C1004.05 39.5059 1012.12 43.4435 1015.99 50.1286Z" fill="white" stroke="black"/>
<path d="M1084.51 50.1286C1088.38 56.8139 1087.79 65.7727 1083.21 76.3554C1078.63 86.9271 1070.12 99.0198 1058.33 111.872C1034.76 137.573 998.184 166.226 954.197 191.723C910.21 217.22 867.17 234.713 833.153 242.394C816.141 246.235 801.415 247.616 789.967 246.333C778.507 245.048 770.438 241.11 766.563 234.425C762.688 227.739 763.282 218.781 767.863 208.199C772.439 197.627 780.956 185.534 792.744 172.682C816.316 146.981 852.887 118.329 896.875 92.8316C940.862 67.3345 983.902 49.8406 1017.92 42.1598C1034.93 38.3188 1049.66 36.9385 1061.11 38.2215C1072.56 39.5059 1080.63 43.4435 1084.51 50.1286Z" fill="white" stroke="black"/>
<path d="M1142.33 50.1286C1146.21 56.8139 1145.61 65.7727 1141.03 76.3554C1136.46 86.9271 1127.94 99.0198 1116.15 111.872C1092.58 137.573 1056.01 166.226 1012.02 191.723C968.034 217.22 924.994 234.713 890.977 242.394C873.966 246.235 859.239 247.616 847.791 246.333C836.331 245.048 828.263 241.11 824.387 234.425C820.513 227.739 821.106 218.781 825.687 208.199C830.264 197.627 838.78 185.534 850.569 172.682C874.14 146.981 910.712 118.329 954.699 92.8316C998.686 67.3345 1041.73 49.8406 1075.74 42.1598C1092.75 38.3188 1107.48 36.9385 1118.93 38.2215C1130.39 39.5059 1138.46 43.4435 1142.33 50.1286Z" fill="white" stroke="black"/>
<path d="M1219.64 50.1286C1223.52 56.8139 1222.93 65.7727 1218.34 76.3554C1213.77 86.9271 1205.25 99.0198 1193.46 111.872C1169.89 137.573 1133.32 166.226 1089.33 191.723C1045.34 217.22 1002.3 234.713 968.288 242.394C951.276 246.235 936.55 247.616 925.102 246.333C913.642 245.048 905.573 241.11 901.698 234.425C897.823 227.739 898.416 218.781 902.998 208.199C907.574 197.627 916.091 185.534 927.879 172.682C951.451 146.981 988.022 118.329 1032.01 92.8316C1076 67.3345 1119.04 49.8406 1153.05 42.1598C1170.07 38.3188 1184.79 36.9385 1196.24 38.2215C1207.7 39.5059 1215.77 43.4435 1219.64 50.1286Z" fill="white" stroke="black"/>
<path d="M1298.97 50.1286C1302.84 56.8139 1302.25 65.7727 1297.67 76.3554C1293.09 86.9271 1284.57 99.0198 1272.79 111.872C1249.21 137.573 1212.64 166.226 1168.66 191.723C1124.67 217.22 1081.63 234.713 1047.61 242.394C1030.6 246.235 1015.87 247.616 1004.43 246.333C992.966 245.048 984.897 241.11 981.022 234.425C977.147 227.739 977.741 218.781 982.322 208.199C986.898 197.627 995.415 185.534 1007.2 172.682C1030.78 146.981 1067.35 118.329 1111.33 92.8316C1155.32 67.3345 1198.36 49.8406 1232.38 42.1598C1249.39 38.3188 1264.12 36.9385 1275.56 38.2215C1287.02 39.5059 1295.09 43.4435 1298.97 50.1286Z" fill="white" stroke="black"/>
<path d="M1362.68 50.1286C1366.56 56.8139 1365.97 65.7727 1361.39 76.3554C1356.81 86.9271 1348.29 99.0198 1336.5 111.872C1312.93 137.573 1276.36 166.226 1232.37 191.723C1188.39 217.22 1145.35 234.713 1111.33 242.394C1094.32 246.235 1079.59 247.616 1068.14 246.333C1056.68 245.048 1048.61 241.11 1044.74 234.425C1040.86 227.739 1041.46 218.781 1046.04 208.199C1050.62 197.627 1059.13 185.534 1070.92 172.682C1094.49 146.981 1131.06 118.329 1175.05 92.8316C1219.04 67.3345 1262.08 49.8406 1296.09 42.1598C1313.11 38.3188 1327.83 36.9385 1339.28 38.2215C1350.74 39.5059 1358.81 43.4435 1362.68 50.1286Z" fill="white" stroke="black"/>
<path d="M1429.46 50.1286C1433.34 56.8139 1432.74 65.7727 1428.16 76.3554C1423.59 86.9271 1415.07 99.0198 1403.28 111.872C1379.71 137.573 1343.14 166.226 1299.15 191.723C1255.16 217.22 1212.12 234.713 1178.11 242.394C1161.09 246.235 1146.37 247.616 1134.92 246.333C1123.46 245.048 1115.39 241.11 1111.52 234.425C1107.64 227.739 1108.23 218.781 1112.82 208.199C1117.39 197.627 1125.91 185.534 1137.7 172.682C1161.27 146.981 1197.84 118.329 1241.83 92.8316C1285.81 67.3345 1328.86 49.8406 1362.87 42.1598C1379.88 38.3188 1394.61 36.9385 1406.06 38.2215C1417.52 39.5059 1425.59 43.4435 1429.46 50.1286Z" fill="white" stroke="black"/>
<path d="M1493.18 50.1286C1497.05 56.8139 1496.46 65.7727 1491.88 76.3554C1487.3 86.9271 1478.79 99.0198 1467 111.872C1443.43 137.573 1406.85 166.226 1362.87 191.723C1318.88 217.22 1275.84 234.713 1241.82 242.394C1224.81 246.235 1210.09 247.616 1198.64 246.333C1187.18 245.048 1179.11 241.11 1175.23 234.425C1171.36 227.739 1171.95 218.781 1176.53 208.199C1181.11 197.627 1189.63 185.534 1201.41 172.682C1224.99 146.981 1261.56 118.329 1305.54 92.8316C1349.53 67.3345 1392.57 49.8406 1426.59 42.1598C1443.6 38.3188 1458.33 36.9385 1469.77 38.2215C1481.23 39.5059 1489.3 43.4435 1493.18 50.1286Z" fill="white" stroke="black"/>
</svg>
